<svg width="67" height="31" viewBox="0 0 67 31" fill="none" xmlns="http://www.w3.org/2000/svg">
<g clip-path="url(#clip0_182_197)">
<path d="M17.4229 4.68705C14.907 5.09941 12.9379 7.1288 12.5719 9.69101C12.5441 9.89023 12.5255 11.9752 12.5255 15.0795C12.5255 20.6024 12.5116 20.2874 12.785 20.5051C12.9008 20.5978 12.9657 20.6024 13.758 20.6024H14.6105L14.7866 20.4449L14.958 20.2874L14.9719 17.2942L14.9812 14.3058L16.6399 14.2919C18.8129 14.2734 18.6878 14.3475 18.6878 13.027V12.2161L18.5303 12.0401L18.3728 11.8687L16.6862 11.8455L15.0043 11.8223V10.8725C15.0043 9.78832 15.046 9.56127 15.3519 8.94967C16.1256 7.37436 17.9975 6.66545 19.633 7.33267C20.0037 7.48093 20.328 7.70332 20.7311 8.06936C21.1852 8.48636 21.2176 8.48636 22.2276 8.00449C23.0107 7.62919 23.1358 7.52727 23.1358 7.27245C23.1358 7.0871 23.0014 6.89249 22.5473 6.41988C21.7226 5.56736 20.7172 4.99749 19.6052 4.75191C19.0307 4.62682 17.9789 4.59438 17.4229 4.68705Z" fill="#1B5633"/>
<path d="M24.5026 8.61119C21.996 8.88919 19.8601 10.9278 19.4523 13.4206C19.3921 13.8005 19.3828 14.6345 19.3828 19.3373V24.8092L19.4987 24.9482C19.6886 25.1752 19.8045 25.1984 20.6709 25.1799C21.44 25.166 21.4632 25.1614 21.5883 25.0501C21.8431 24.8138 21.8385 24.8602 21.8385 21.9227C21.8385 20.4308 21.8524 19.2122 21.8663 19.2122C21.8848 19.2122 22.0146 19.2817 22.1582 19.3697C22.779 19.745 23.3582 19.9721 24.0625 20.125C24.6092 20.2408 25.786 20.2408 26.3328 20.125C28.617 19.6338 30.3082 17.989 30.8827 15.7001C30.9707 15.3527 30.9846 15.172 30.9846 14.3936C30.9846 13.6244 30.9707 13.4298 30.8827 13.0916C30.2665 10.6313 28.2927 8.87993 25.8092 8.60658C25.3042 8.55097 25.0308 8.55097 24.5026 8.61119ZM26.0316 11.1317C26.4255 11.229 27 11.5255 27.3429 11.8035C27.8757 12.2437 28.3436 13.0082 28.4872 13.6754C28.8579 15.4361 27.8062 17.1643 26.0548 17.6647C25.647 17.7805 24.7621 17.7805 24.3405 17.6647C23.2424 17.3635 22.3759 16.5388 21.9914 15.4361C21.8756 15.0978 21.8663 15.0098 21.8663 14.3936C21.8663 13.782 21.8756 13.6893 21.9914 13.365C22.4223 12.1325 23.4926 11.229 24.7296 11.0576C25.0818 11.0066 25.6656 11.0437 26.0316 11.1317Z" fill="#1B5633"/>
<path d="M5.36217 9.25068C4.0046 9.44529 2.8648 10.0106 1.91961 10.9696C1.08099 11.8129 0.53889 12.8739 0.335025 14.0601C-0.188538 17.1458 1.79915 20.0787 4.87104 20.7506C5.40847 20.871 6.60852 20.8896 7.10426 20.7922C7.80391 20.6532 8.75374 20.2733 9.24487 19.9397C9.33752 19.8749 9.42556 19.8332 9.43947 19.8517C9.45334 19.8656 9.46726 19.949 9.46726 20.0416C9.47191 20.2502 9.55065 20.3984 9.72674 20.5142C9.84717 20.593 9.94913 20.6023 10.6626 20.6023C11.5383 20.6023 11.6495 20.5745 11.8117 20.3382C11.8951 20.2131 11.8997 20.0787 11.8997 17.3126C11.8997 14.1249 11.8951 14.0786 11.5986 13.1797C10.9592 11.2616 9.30974 9.79277 7.2896 9.33873C6.83556 9.23681 5.78843 9.19047 5.36217 9.25068ZM6.89578 11.7759C7.35908 11.8917 7.97534 12.2253 8.32282 12.545C9.05491 13.2122 9.43017 14.0601 9.43017 15.0469C9.43017 16.613 8.40621 17.9057 6.82626 18.3412C6.46487 18.4385 5.60774 18.4154 5.18147 18.2902C4.07873 17.9798 3.24474 17.169 2.86017 16.0385C2.74897 15.7142 2.73044 15.5937 2.73044 15.0886C2.72581 14.4122 2.79531 14.1018 3.0733 13.5365C3.76367 12.1419 5.38995 11.3913 6.89578 11.7759Z" fill="#1B5633"/>
<path d="M32.1009 9.57499C32.0499 9.59351 31.948 9.6769 31.8692 9.76029L31.7302 9.90394L31.7163 14.9635C31.707 18.3366 31.7163 20.0787 31.7487 20.1899C31.7766 20.2779 31.8507 20.403 31.9202 20.4679C32.036 20.5744 32.0592 20.5791 32.9163 20.5929L33.7966 20.6069L33.982 20.4262L34.1627 20.2408V15.1071C34.1627 10.0337 34.1627 9.96881 34.07 9.8159C33.9171 9.57033 33.7549 9.52864 32.9256 9.53329C32.5225 9.53329 32.1519 9.55181 32.1009 9.57499Z" fill="#1B5633"/>
<mask id="mask0_182_197" style="mask-type:luminance" maskUnits="userSpaceOnUse" x="40" y="0" width="27" height="31">
<path d="M66.2411 0.5H40.1729V30.0717H66.2411V0.5Z" fill="white"/>
</mask>
<g mask="url(#mask0_182_197)">
<path d="M42.3723 7.35912L40.998 5.55308L41.2189 5.22217L43.4137 5.79912L43.2041 6.11308L42.6041 5.93917L42.185 6.56826L42.5737 7.05652L42.3723 7.35912ZM41.4098 5.60478L42.0037 6.34917L42.3328 5.85608L41.4198 5.59173L41.4098 5.60478Z" fill="#1A5632"/>
<path d="M43.3696 5.30218C43.4018 5.33505 43.4406 5.3607 43.4835 5.37739C43.5278 5.39474 43.5751 5.40313 43.6227 5.40218C43.6757 5.40087 43.7283 5.391 43.7783 5.37305C43.8357 5.35239 43.8905 5.324 43.9405 5.2887C44.0092 5.24378 44.0683 5.18574 44.1144 5.11783C44.1509 5.06413 44.1714 5.00109 44.1735 4.93609C44.1735 4.8737 44.154 4.81285 44.1175 4.76219C44.0983 4.73138 44.0722 4.70536 44.0414 4.68608C44.0105 4.6668 43.9757 4.65476 43.9396 4.65088C43.8444 4.64701 43.7496 4.66486 43.6627 4.70305L43.3226 4.83045C43.2279 4.86861 43.1273 4.89026 43.0252 4.89435C42.9356 4.89778 42.8466 4.87831 42.7665 4.83785C42.6743 4.78649 42.5972 4.71185 42.5428 4.62137C42.4884 4.53089 42.4586 4.42774 42.4565 4.32219C42.4582 4.20211 42.4924 4.08473 42.5557 3.98262C42.706 3.75088 42.9412 3.58742 43.2109 3.52741C43.323 3.50604 43.4387 3.51383 43.547 3.55001C43.6488 3.58499 43.7388 3.64835 43.8057 3.73262L43.5209 3.92871C43.4802 3.88843 43.4297 3.85949 43.3744 3.8448C43.3159 3.83055 43.2549 3.83055 43.1965 3.8448C43.1271 3.86093 43.0615 3.89048 43.0035 3.93176C42.9115 3.98811 42.8418 4.07439 42.8061 4.1761C42.792 4.21874 42.7883 4.26411 42.7952 4.30847C42.8021 4.35284 42.8194 4.39493 42.8457 4.43131C42.8638 4.45896 42.8877 4.48231 42.9158 4.49973C42.9439 4.51715 42.9755 4.52823 43.0083 4.53219C43.0905 4.53951 43.1733 4.52621 43.2492 4.49349L43.587 4.3661C43.6901 4.3249 43.7983 4.29911 43.9088 4.28958C44.0009 4.28169 44.0935 4.29819 44.1775 4.33741C44.2657 4.38266 44.3409 4.45045 44.3948 4.53393C44.4666 4.63347 44.507 4.75245 44.5101 4.87522C44.5101 4.99978 44.474 5.1217 44.4062 5.22609C44.2557 5.44531 44.0383 5.61026 43.787 5.69652C43.6983 5.72552 43.6046 5.73735 43.5113 5.73131C43.4272 5.72548 43.3454 5.70161 43.2713 5.66131C43.1981 5.62105 43.1336 5.56648 43.0818 5.50087L43.3696 5.30218Z" fill="#1A5632"/>
<path d="M46.2751 4.00361C46.2656 4.15785 46.2095 4.30562 46.1147 4.42752C46.0069 4.55281 45.8708 4.65061 45.7177 4.71284C45.5647 4.77506 45.399 4.79992 45.2342 4.78535C45.0808 4.76436 44.9377 4.69753 44.8229 4.59362C44.6912 4.47139 44.5895 4.32015 44.5264 4.15187L44.4164 3.881C44.3442 3.71605 44.3112 3.53653 44.3203 3.35666C44.3303 3.20225 44.3864 3.05442 44.4816 2.9323C44.589 2.80668 44.7251 2.70866 44.8782 2.64647C45.0316 2.58429 45.1973 2.55975 45.3621 2.57492C45.5151 2.59645 45.6582 2.66322 45.7729 2.76665C45.9047 2.88913 46.0064 3.04068 46.0695 3.20926L46.1795 3.48056C46.2516 3.64509 46.2842 3.82419 46.2751 4.00361ZM45.5308 3.02665C45.4599 2.95765 45.3703 2.91133 45.2729 2.89361C45.1782 2.8805 45.0816 2.89256 44.9929 2.92858C44.9042 2.9646 44.8264 3.02332 44.7677 3.09883C44.7103 3.17926 44.6786 3.27492 44.676 3.37361C44.6738 3.50008 44.699 3.62551 44.7508 3.741L44.8625 4.01622C44.906 4.13506 44.9751 4.24284 45.0651 4.33187C45.136 4.40093 45.226 4.44751 45.3234 4.46578C45.4182 4.4793 45.5151 4.46738 45.6038 4.43125C45.6925 4.39512 45.7703 4.33606 45.8286 4.26013C45.8856 4.17929 45.9177 4.0834 45.9203 3.98448C45.9229 3.85791 45.8973 3.73233 45.846 3.61665L45.7342 3.34144C45.6899 3.22286 45.6203 3.1154 45.5303 3.02665H45.5308Z" fill="#1A5632"/>
<path d="M46.8738 3.66299C46.896 3.70338 46.9264 3.73863 46.9629 3.76647C47.0008 3.795 47.0442 3.81568 47.0903 3.82734C47.1416 3.84086 47.1951 3.84571 47.2482 3.84168C47.3095 3.83768 47.3695 3.82525 47.4273 3.80473C47.506 3.7804 47.579 3.74047 47.6416 3.68734C47.6912 3.64545 47.7282 3.59024 47.7473 3.52821C47.7642 3.46814 47.7621 3.40421 47.7403 3.3456C47.7303 3.31073 47.7121 3.27863 47.6877 3.25174C47.6634 3.22484 47.6334 3.20386 47.5995 3.19038C47.509 3.16063 47.4129 3.15215 47.3186 3.1656L46.9569 3.19603C46.8551 3.20735 46.7521 3.20088 46.6525 3.17691C46.5651 3.15591 46.4847 3.11312 46.4186 3.05255C46.3512 2.98795 46.3008 2.90735 46.2725 2.81821C46.2316 2.70648 46.2273 2.58477 46.2599 2.47038C46.2942 2.35525 46.359 2.25155 46.4473 2.17038C46.549 2.07715 46.6695 2.007 46.8008 1.96473C46.929 1.91742 47.0656 1.89858 47.2016 1.90951C47.3156 1.91897 47.4247 1.95777 47.519 2.02212C47.6073 2.08339 47.6764 2.16861 47.7182 2.26778L47.3908 2.37951C47.3625 2.33007 47.3216 2.28886 47.2725 2.25995C47.2203 2.22986 47.1616 2.21271 47.1016 2.20995C47.0303 2.20689 46.959 2.21798 46.8916 2.24256C46.7882 2.27195 46.6977 2.33612 46.6355 2.4243C46.6103 2.46154 46.5947 2.50421 46.589 2.54879C46.5838 2.59338 46.589 2.63862 46.6042 2.68081C46.6142 2.7125 46.6312 2.74158 46.6538 2.76599C46.6764 2.79041 46.7038 2.80958 46.7347 2.82212C46.8116 2.85126 46.8947 2.86068 46.9764 2.84951L47.3364 2.81821C47.4469 2.80632 47.5582 2.81087 47.6669 2.83168C47.7577 2.84881 47.8425 2.88961 47.9125 2.94995C47.9851 3.01751 48.0386 3.10298 48.0677 3.19777C48.1099 3.31318 48.1164 3.43868 48.086 3.55777C48.0525 3.6778 47.9847 3.78549 47.8912 3.86777C47.6869 4.03761 47.4334 4.13756 47.1682 4.15299C47.0747 4.1559 46.9812 4.14114 46.8929 4.10951C46.8138 4.08162 46.7416 4.03715 46.6808 3.97908C46.6212 3.92045 46.5738 3.85055 46.5416 3.77343L46.8738 3.66299Z" fill="#1A5632"/>
<path d="M48.5872 3.67727L47.9312 1.63379L48.2707 1.52466L48.9268 3.56814L48.5872 3.67727Z" fill="#1A5632"/>
<path d="M49.1265 3.45578L49.2669 1.19056L49.6504 1.08447L50.9343 2.95404L50.5708 3.05491L50.2291 2.53317L49.5034 2.7336L49.4786 3.35708L49.1265 3.45578ZM49.5447 1.49926L49.5078 2.45056L50.0791 2.29274L49.5599 1.49535L49.5447 1.49926Z" fill="#1A5632"/>
<path d="M51.2072 2.28616C51.2215 2.32983 51.2455 2.36997 51.2763 2.40398C51.3085 2.43903 51.3476 2.46739 51.3907 2.48746C51.4389 2.51003 51.4902 2.52471 51.5433 2.53094C51.6041 2.53779 51.6659 2.53633 51.7263 2.5266C51.8076 2.51664 51.8868 2.49063 51.9581 2.45007C52.0146 2.41759 52.0602 2.3698 52.0907 2.31225C52.1181 2.25621 52.1272 2.19291 52.1168 2.13138C52.1128 2.09522 52.1011 2.06041 52.0815 2.02953C52.0624 1.99866 52.0368 1.97254 52.0059 1.95312C51.922 1.90789 51.8294 1.88231 51.7342 1.87833L51.3728 1.84311C51.2707 1.83581 51.1707 1.81095 51.0772 1.76964C50.9955 1.73327 50.9237 1.67673 50.8698 1.60529C50.815 1.52952 50.7798 1.44116 50.7681 1.34833C50.7485 1.23171 50.7659 1.11189 50.8181 1.00573C50.8724 0.898859 50.9546 0.808712 51.0563 0.744855C51.2933 0.602698 51.5763 0.559147 51.845 0.623554C51.955 0.653441 52.0559 0.711238 52.1372 0.791374C52.2133 0.867585 52.2663 0.963985 52.2894 1.0692L51.9472 1.12008C51.9281 1.06628 51.8955 1.01833 51.8524 0.980941C51.8063 0.942032 51.752 0.914742 51.6933 0.901377C51.6237 0.885521 51.5515 0.8836 51.4811 0.895725C51.3737 0.906102 51.2733 0.95308 51.1968 1.02877C51.165 1.06088 51.142 1.10001 51.1285 1.14296C51.115 1.1859 51.112 1.23141 51.1198 1.27573C51.1237 1.30859 51.135 1.34015 51.1528 1.36818C51.1707 1.3962 51.1941 1.42001 51.222 1.4379C51.2924 1.48059 51.3724 1.50495 51.455 1.50877L51.8146 1.54225C51.925 1.55051 52.0337 1.57497 52.1372 1.61486C52.2233 1.64853 52.2994 1.70413 52.3576 1.77616C52.4168 1.85568 52.4542 1.94939 52.4659 2.0479C52.4868 2.16904 52.4702 2.29363 52.4189 2.40529C52.3641 2.51723 52.2785 2.61089 52.1715 2.67485C52.0407 2.75302 51.895 2.80307 51.7437 2.82182C51.6328 2.83997 51.5202 2.84128 51.4089 2.82572C51.3163 2.81246 51.2272 2.78193 51.1459 2.73572C51.0728 2.6936 51.0098 2.63638 50.9611 2.5679C50.9128 2.49931 50.8789 2.42188 50.8611 2.34008L51.2072 2.28616Z" fill="#1A5632"/>
<path d="M52.8083 2.65087L52.7778 0.505215L53.1348 0.5L53.1652 2.64565L52.8083 2.65087Z" fill="#1A5632"/>
<path d="M54.1211 2.6811L54.4924 0.567627L55.7946 0.796754L55.742 1.09546L54.7911 0.928059L54.6776 1.57545L55.5472 1.72806L55.4954 2.0224L54.6259 1.86937L54.4724 2.74284L54.1211 2.6811Z" fill="#1A5632"/>
<path d="M55.6553 2.99435L56.2144 0.922607L56.5588 1.01565L55.9996 3.08739L55.6553 2.99435Z" fill="#1A5632"/>
<path d="M56.4141 3.22392L57.0762 1.18262L57.3754 1.27957L57.8536 3.05436L57.8688 3.05914L58.3445 1.59349L58.6706 1.69957L58.008 3.74087L57.7106 3.64435L57.2323 1.86436L57.2188 1.86001L56.7406 3.33001L56.4141 3.22392Z" fill="#1A5632"/>
<path d="M58.8184 4.01866L59.4162 2.27953L58.8227 2.07605L58.9218 1.78735L60.4475 2.31127L60.3484 2.59952L59.7536 2.39518L59.1558 4.13431L58.8184 4.01866Z" fill="#1A5632"/>
<path d="M61.1966 4.89703L59.957 4.38966L60.7701 2.40356L62.0096 2.91139L61.8962 3.18922L60.9853 2.81617L60.7536 3.38139L61.6105 3.73226L61.5014 3.99835L60.6449 3.64704L60.4001 4.24487L61.3109 4.61791L61.1966 4.89703Z" fill="#1A5632"/>
<path d="M62.191 4.37565C62.1206 4.47594 62.071 4.58891 62.044 4.70826C62.0223 4.80339 62.0305 4.90282 62.0679 4.99304C62.1084 5.08295 62.1753 5.15865 62.2592 5.21043C62.3249 5.25582 62.4006 5.28556 62.4797 5.29739C62.5497 5.30713 62.621 5.29856 62.6871 5.27261C62.7527 5.24595 62.811 5.203 62.8558 5.14782L63.1458 5.33913L63.1388 5.35C63.1362 5.35304 63.134 5.35695 63.1319 5.36043C63.0575 5.45882 62.9566 5.53417 62.8414 5.57782C62.7236 5.62182 62.5971 5.63482 62.4732 5.61565C62.3227 5.58939 62.1806 5.53004 62.0562 5.44191C61.9319 5.35374 61.8288 5.23904 61.7545 5.10608C61.6871 4.96956 61.6636 4.81561 61.6871 4.66522C61.7166 4.48857 61.7858 4.32077 61.8884 4.17391L62.0466 3.93391C62.1414 3.78134 62.2697 3.65184 62.421 3.55478C62.5505 3.47309 62.7023 3.43275 62.8558 3.43913C63.021 3.45029 63.1797 3.50654 63.3153 3.60174C63.4049 3.65943 63.484 3.73174 63.5501 3.81566C63.6092 3.89259 63.6536 3.98007 63.6806 4.07348C63.7075 4.1652 63.7153 4.26148 63.7036 4.35637C63.6919 4.45127 63.661 4.54277 63.6127 4.62522L63.6062 4.63522L63.5997 4.64522L63.3097 4.45435C63.3449 4.38738 63.3636 4.31277 63.364 4.23696C63.364 4.16372 63.3449 4.09175 63.3084 4.02827C63.2684 3.95937 63.2123 3.90118 63.1453 3.8587C63.0645 3.80206 62.9684 3.77169 62.8701 3.77174C62.7714 3.77526 62.6758 3.80777 62.5958 3.86522C62.4949 3.93741 62.4092 4.02871 62.344 4.13391L62.191 4.37565Z" fill="#1A5632"/>
<path d="M63.7515 6.94844L64.5341 6.40801L63.9759 5.59931L63.1933 6.14018L62.9902 5.8467L64.7559 4.62671L64.9585 4.92018L64.225 5.4267L64.7833 6.2354L65.5168 5.72844L65.7198 6.02236L63.9546 7.23975L63.7515 6.94844Z" fill="#1A5632"/>
<path d="M42.2505 10.05C42.1931 10.1529 42.1074 10.2373 42.0035 10.293C41.8941 10.3517 41.7716 10.3816 41.6474 10.38C41.5233 10.382 41.4006 10.352 41.2913 10.293C41.1879 10.2369 41.1025 10.1524 41.0453 10.0496C40.9829 9.93299 40.952 9.80216 40.9557 9.66999V9.20608H40.1948V8.84912H42.3409V9.67521C42.344 9.8059 42.3128 9.93512 42.2505 10.05ZM41.9413 9.90956C41.9773 9.8706 42.0051 9.82473 42.023 9.77473C42.0409 9.72473 42.0484 9.67169 42.0453 9.61869V9.20347H41.2483V9.61869C41.2463 9.69225 41.2625 9.76516 41.2957 9.83086C41.3263 9.88873 41.3737 9.93586 41.4318 9.96608C41.4993 9.99934 41.574 10.0154 41.6492 10.013C41.7023 10.0162 41.7556 10.0087 41.8057 9.99095C41.856 9.97316 41.902 9.94547 41.9413 9.90956Z" fill="#1A5632"/>
<path d="M40.1948 12.1967V10.8572H42.3409V12.1967H42.0405V11.2128H41.4292V12.1389H41.1413V11.2128H40.4953V12.1967H40.1948Z" fill="#1A5632"/>
<path d="M40.1948 12.7473H42.3409V13.0621L40.8 14.0621V14.0782H42.3409V14.4208H40.1948V14.1082L41.74 13.1034V13.0895H40.1948V12.7473Z" fill="#1A5632"/>
<path d="M42.3411 15.7869C42.3478 15.9716 42.3048 16.1548 42.2167 16.3173C42.1332 16.4589 42.0062 16.5698 41.8545 16.6334C41.4774 16.7734 41.0626 16.7734 40.6854 16.6334C40.5329 16.5699 40.4048 16.4589 40.3202 16.3169C40.2317 16.1552 40.1884 15.9725 40.195 15.7882V15.0491H42.3411V15.7869ZM40.4954 15.403V15.7473C40.4933 15.8419 40.5096 15.9359 40.5432 16.0243C40.5736 16.1007 40.6235 16.1677 40.688 16.2186C40.7596 16.2727 40.8414 16.3116 40.9285 16.333C41.0388 16.3606 41.1522 16.3736 41.2659 16.3717C41.4124 16.3758 41.5585 16.3528 41.6967 16.3039C41.8034 16.2659 41.8944 16.1935 41.9554 16.0982C42.0168 15.9919 42.0469 15.8704 42.0424 15.7478V15.4034L40.4954 15.403Z" fill="#1A5632"/>
<path d="M40.1729 17.02L42.3372 17.7022L42.3476 18.1L40.222 18.8948L40.212 18.5178L40.8011 18.3122L40.7811 17.5596L40.182 17.3857L40.1729 17.02ZM41.9715 17.8974L41.0585 17.6322L41.0742 18.2244L41.9733 17.9126L41.9715 17.8974Z" fill="#1A5632"/>
<path d="M40.3179 19.667L42.3892 19.1057L42.4714 19.4101L41.2461 20.7792L41.2505 20.7944L42.7374 20.3914L42.827 20.7227L40.7557 21.2835L40.674 20.9805L41.9031 19.6066L41.8992 19.5931L40.4074 19.997L40.3179 19.667Z" fill="#1A5632"/>
<path d="M41.1123 22.1053L43.3097 21.5371L43.5293 21.8688L42.1475 23.6688L41.9392 23.354L42.3306 22.8679L41.9149 22.2397L41.3145 22.4092L41.1123 22.1053ZM43.1023 21.8966L42.1862 22.1575L42.5132 22.6523L43.111 21.9132L43.1023 21.8966Z" fill="#1A5632"/>
<path d="M42.5659 24.1198L44.563 23.0415L44.8556 23.3106L43.9456 25.3902L43.6682 25.1345L43.929 24.5693L43.375 24.0593L42.8324 24.3676L42.5659 24.1198ZM44.4482 23.4402L43.6221 23.9115L44.0569 24.3128L44.4599 23.4506L44.4482 23.4402Z" fill="#1A5632"/>
<path d="M44.4331 25.7544L45.6618 23.9949L45.9196 24.1749L45.8588 26.0114L45.8718 26.0205L46.7535 24.7575L47.0344 24.9536L45.8057 26.7131L45.5492 26.534L45.6101 24.6918L45.5983 24.6836L44.7135 25.951L44.4331 25.7544Z" fill="#1A5632"/>
<path d="M48.1812 25.637L48.9243 26.0604C49.069 26.1333 49.1825 26.2556 49.2443 26.4052C49.269 26.474 49.2777 26.5477 49.2699 26.6204C49.2616 26.6932 49.2373 26.763 49.1977 26.8248C49.1616 26.8917 49.1108 26.9496 49.0495 26.9944C48.9938 27.0339 48.9299 27.0596 48.8625 27.0696C48.7929 27.0794 48.7221 27.0752 48.6543 27.0574L48.6464 27.0709C48.7169 27.1209 48.7751 27.1859 48.8173 27.2613C48.8573 27.3339 48.8769 27.4159 48.8747 27.4987C48.8708 27.5917 48.8434 27.6821 48.7951 27.7617C48.7408 27.8636 48.656 27.946 48.5529 27.9978C48.4499 28.046 48.3356 28.0634 48.2229 28.0478C48.0903 28.03 47.9625 27.9857 47.8473 27.9174L47.1182 27.5013L48.1812 25.637ZM47.5669 27.4313L47.8629 27.6004C47.979 27.6792 48.1143 27.7243 48.2543 27.7309C48.3034 27.7272 48.3503 27.7107 48.3912 27.6831C48.4316 27.6555 48.4647 27.6177 48.486 27.5735C48.5208 27.5164 48.539 27.4508 48.539 27.3839C48.5369 27.3209 48.5151 27.2602 48.4769 27.21C48.4299 27.1491 48.3708 27.0987 48.3029 27.0622L47.9086 26.8374L47.5669 27.4313ZM48.0403 26.6009L48.3012 26.7504C48.3769 26.7966 48.459 26.8299 48.5456 26.8491C48.6073 26.8627 48.6716 26.8562 48.729 26.8304C48.7851 26.8017 48.8308 26.7561 48.8595 26.7C48.8821 26.665 48.8969 26.6256 48.9025 26.5844C48.9086 26.5432 48.9056 26.5012 48.8934 26.4613C48.8612 26.3765 48.7982 26.3072 48.7169 26.2674L48.3482 26.057L48.0403 26.6009Z" fill="#1A5632"/>
<path d="M50.1198 29.1604L48.9385 28.5287L49.9502 26.6365L51.1315 27.2678L50.9898 27.5326L50.1202 27.0686L49.832 27.6078L50.6485 28.0426L50.5128 28.296L49.6963 27.8613L49.392 28.4313L50.2615 28.8952L50.1198 29.1604Z" fill="#1A5632"/>
<path d="M52.6101 28.0039C52.6901 28.0871 52.744 28.192 52.7644 28.3056C52.784 28.4259 52.7705 28.5491 52.7262 28.6626C52.6957 28.751 52.6466 28.832 52.5827 28.9004C52.5249 28.9612 52.4553 29.0096 52.3783 29.0426C52.3062 29.0739 52.2283 29.0906 52.1496 29.0917L52.2536 30.0717L51.877 29.9339L51.7983 29.0269L51.3805 28.8743L51.0975 29.6499L50.7666 29.5291L51.5023 27.5134L52.2731 27.7947C52.4005 27.8372 52.5157 27.9088 52.6101 28.0039ZM51.8614 28.7482C51.9623 28.7925 52.0757 28.7991 52.1809 28.7669C52.2279 28.7477 52.2696 28.7182 52.3036 28.6806C52.3375 28.6429 52.3627 28.5981 52.3766 28.5495C52.3979 28.5014 52.4083 28.4493 52.4075 28.3967C52.4062 28.3441 52.3936 28.2924 52.3705 28.2452C52.3162 28.1522 52.2292 28.0829 52.1262 28.0513L51.7349 27.9082L51.4792 28.6082L51.8614 28.7482Z" fill="#1A5632"/>
<path d="M53.6729 29.5487C53.6912 29.5909 53.7177 29.6288 53.7516 29.66C53.7864 29.6922 53.8277 29.7172 53.8725 29.7335C53.9225 29.7516 53.9751 29.7614 54.0281 29.7627C54.089 29.7644 54.1503 29.7579 54.2099 29.7431C54.2903 29.7266 54.3668 29.694 54.4346 29.6474C54.4881 29.6105 54.5299 29.5591 54.5555 29.4992C54.5781 29.441 54.582 29.377 54.5664 29.3166C54.5594 29.2809 54.5442 29.2473 54.5225 29.2183C54.5007 29.1892 54.4729 29.1654 54.4407 29.1487C54.3533 29.1104 54.2585 29.0927 54.1638 29.097L53.8007 29.0927C53.6985 29.0938 53.5968 29.0774 53.5003 29.044C53.4155 29.0147 53.3394 28.9642 53.2799 28.8974C53.2185 28.8268 53.1764 28.7418 53.1568 28.6505C53.1268 28.5352 53.1342 28.4135 53.1777 28.3027C53.2233 28.1912 53.2985 28.0942 53.3951 28.0222C53.619 27.8604 53.8977 27.7932 54.1707 27.8353C54.2825 27.8557 54.3877 27.9049 54.4751 27.9779C54.5568 28.0475 54.6172 28.139 54.649 28.2418L54.3125 28.3218C54.289 28.2698 54.2525 28.2248 54.2064 28.1914C54.1572 28.1565 54.1007 28.1339 54.0416 28.1253C53.9707 28.1155 53.8985 28.1197 53.8294 28.1374C53.7233 28.1568 53.6268 28.212 53.5568 28.294C53.5281 28.3286 53.5081 28.3696 53.4985 28.4135C53.4885 28.4575 53.4899 28.503 53.5012 28.5466C53.5081 28.5789 53.522 28.6093 53.542 28.6357C53.562 28.662 53.5872 28.6837 53.6168 28.6992C53.6907 28.7357 53.7725 28.7532 53.8551 28.75L54.2159 28.7535C54.3264 28.7518 54.4368 28.7664 54.5433 28.797C54.632 28.8233 54.7125 28.8723 54.7764 28.9392C54.8416 29.0132 54.8868 29.1031 54.9068 29.2C54.9377 29.319 54.932 29.4444 54.8903 29.56C54.8451 29.6761 54.7672 29.7767 54.6664 29.8496C54.4464 29.999 54.1846 30.074 53.919 30.0635C53.8255 30.0581 53.7342 30.0351 53.6494 29.9957C53.5729 29.96 53.5055 29.9082 53.4512 29.844C53.3972 29.7801 53.3572 29.7062 53.3325 29.6266L53.6729 29.5487Z" fill="#1A5632"/>
<path d="M55.621 29.5091L55.291 27.2634L55.6441 27.0808L57.2867 28.646L56.9514 28.8199L56.5093 28.3795L55.8406 28.7273L55.9445 29.3425L55.621 29.5091ZM55.6262 27.5091L55.7862 28.4478L56.3128 28.1752L55.6401 27.5017L55.6262 27.5091Z" fill="#1A5632"/>
<path d="M57.6402 28.4604L56.5894 26.5908L56.9007 26.4169L58.2163 27.4217L58.2272 27.4152L58.0533 25.7686L58.3628 25.5947L59.4137 27.4643L59.1328 27.6221L58.4015 26.3178L58.385 26.3269L58.525 27.6999L58.3015 27.8256L57.202 26.9912L57.1854 27.0004L57.9167 28.3047L57.6402 28.4604Z" fill="#1A5632"/>
<path d="M59.8719 27.1998L59.3188 24.9989L59.6523 24.7815L61.4432 26.1758L61.1271 26.3815L60.6432 25.9876L60.0123 26.3989L60.1775 27.0006L59.8719 27.1998ZM59.6771 25.208L59.9302 26.1258L60.4267 25.8024L59.6897 25.1998L59.6771 25.208Z" fill="#1A5632"/>
<path d="M62.5295 25.3278L61.1382 23.6925L61.4099 23.4617L62.8012 25.0969L62.5295 25.3278Z" fill="#1A5632"/>
<path d="M63.4517 24.543L61.8291 23.1387L62.0348 22.9009L63.8548 23.1517L63.8652 23.14L62.7004 22.1317L62.9248 21.8708L64.5474 23.2752L64.3426 23.5117L62.5165 23.26L62.5074 23.2704L63.6756 24.2822L63.4517 24.543Z" fill="#1A5632"/>
<path d="M63.4671 20.827C63.5345 20.6548 63.6471 20.5038 63.7928 20.3897C63.9258 20.2931 64.0867 20.2422 64.2511 20.2445C64.6528 20.2664 65.0328 20.432 65.3228 20.711C65.4372 20.8298 65.5102 20.9822 65.5319 21.1458C65.5485 21.3295 65.515 21.5142 65.4354 21.6805L65.1402 22.3592L63.1724 21.5036L63.4671 20.827ZM65.0067 21.914L65.1441 21.5979C65.1837 21.5122 65.2063 21.4196 65.2106 21.3253C65.2132 21.2433 65.1941 21.162 65.1554 21.0896C65.1115 21.0116 65.0524 20.9433 64.9815 20.8888C64.8911 20.8196 64.7924 20.7625 64.6876 20.7188C64.5545 20.6566 64.4115 20.6195 64.2654 20.6092C64.1524 20.602 64.0402 20.6326 63.9463 20.6962C63.8485 20.7698 63.7728 20.8693 63.7289 20.9836L63.5915 21.2997L65.0067 21.914Z" fill="#1A5632"/>
<path d="M65.8115 18.2499C65.9424 18.3326 66.045 18.4527 66.1059 18.5947C66.1637 18.7496 66.1837 18.9159 66.1646 19.0801C66.145 19.2442 66.0872 19.4014 65.995 19.5386C65.9033 19.6632 65.7754 19.7567 65.6289 19.8069C65.4585 19.8636 65.2767 19.8796 65.0989 19.8539L64.8085 19.8199C64.6293 19.8037 64.4559 19.7459 64.3028 19.6512C64.1724 19.5682 64.0702 19.448 64.0089 19.306C63.9507 19.1512 63.9302 18.9847 63.9493 18.8204C63.9685 18.6561 64.0267 18.4988 64.1193 18.3617C64.212 18.2382 64.3398 18.1451 64.4854 18.0943C64.6563 18.0377 64.838 18.0218 65.0163 18.0478L65.3067 18.0817C65.4859 18.0977 65.6585 18.1553 65.8115 18.2499ZM64.5967 18.4317C64.5024 18.4605 64.4185 18.5168 64.3563 18.5934C64.2989 18.6702 64.2633 18.7607 64.252 18.8558C64.2406 18.9509 64.255 19.0472 64.2928 19.1352C64.3354 19.2242 64.4041 19.2984 64.4893 19.3482C64.5989 19.4113 64.7211 19.4495 64.8472 19.4599L65.1424 19.4947C65.2676 19.5136 65.3954 19.5049 65.5167 19.4691C65.6115 19.4403 65.6954 19.3842 65.758 19.3078C65.8159 19.2312 65.852 19.1406 65.8633 19.0453C65.8746 18.95 65.8598 18.8535 65.8215 18.7656C65.778 18.6767 65.7093 18.6026 65.6241 18.5526C65.5141 18.4897 65.392 18.4516 65.2659 18.4408L64.9706 18.406C64.8454 18.3872 64.718 18.396 64.5967 18.4317Z" fill="#1A5632"/>
<path d="M66.199 17.4826H64.0508V17.1678L65.5912 16.1678V16.1517H64.0508V15.8091H66.1969V16.1217L64.6517 17.1265V17.1404H66.1969L66.199 17.4826Z" fill="#1A5632"/>
<path d="M66.199 13.8352V15.1748H64.0508V13.8352H64.3512V14.8191H64.9638V13.893H65.2517V14.8191H65.8977V13.8352H66.199Z" fill="#1A5632"/>
<path d="M65.6343 13.0784C65.6795 13.0704 65.7226 13.0529 65.7608 13.0271C65.8004 13.0006 65.8339 12.9664 65.8599 12.9267C65.8891 12.8822 65.9112 12.8333 65.9247 12.7819C65.9404 12.7227 65.9482 12.6618 65.9473 12.6006C65.9491 12.5184 65.9343 12.4367 65.9039 12.3602C65.8804 12.2996 65.8399 12.2469 65.7873 12.2084C65.7365 12.1731 65.6756 12.1547 65.6134 12.1558C65.5773 12.1542 65.5408 12.1609 65.5073 12.1754C65.4743 12.1898 65.4447 12.2117 65.4208 12.2393C65.3639 12.3154 65.3247 12.4036 65.3069 12.4971L65.2199 12.8493C65.1978 12.949 65.1582 13.0442 65.1034 13.1306C65.0552 13.2064 64.9886 13.2688 64.9099 13.3119C64.8269 13.355 64.7347 13.3765 64.6412 13.3745C64.523 13.3769 64.4069 13.342 64.3095 13.275C64.2117 13.2054 64.1347 13.1105 64.0865 13.0006C63.9808 12.7454 63.9795 12.4588 64.0834 12.2028C64.1291 12.0983 64.2012 12.0074 64.2926 11.9389C64.3791 11.875 64.4821 11.8371 64.5895 11.8297V12.1776C64.5334 12.1884 64.4812 12.2135 64.4378 12.2506C64.3926 12.2904 64.3578 12.3403 64.3356 12.3963C64.3099 12.4629 64.2973 12.5339 64.2986 12.6054C64.293 12.7131 64.3247 12.8195 64.3882 12.9067C64.4152 12.9425 64.4504 12.9714 64.4908 12.991C64.5313 13.0106 64.576 13.0203 64.6208 13.0193C64.6539 13.0197 64.686 13.0131 64.716 12.9998C64.746 12.9866 64.773 12.967 64.7947 12.9424C64.8473 12.8788 64.883 12.8032 64.8991 12.7224L64.986 12.3719C65.0104 12.2638 65.0508 12.1599 65.1056 12.0637C65.1517 11.9834 65.2178 11.9165 65.2973 11.8697C65.3847 11.8227 65.483 11.7996 65.5821 11.8028C65.7052 11.7999 65.8265 11.8343 65.9299 11.9015C66.0326 11.972 66.113 12.071 66.1604 12.1863C66.2552 12.4345 66.2682 12.7067 66.1965 12.9628C66.1699 13.0524 66.1265 13.1362 66.0686 13.2097C66.016 13.2755 65.9499 13.3293 65.8752 13.3676C65.8004 13.4049 65.7191 13.4271 65.6356 13.4328L65.6343 13.0784Z" fill="#1A5632"/>
<path d="M66.199 11.284H64.0508V10.927H66.1969L66.199 11.284Z" fill="#1A5632"/>
<path d="M66.1988 10.4996L64.0527 9.76049V9.36267L66.1988 8.62354V9.00093L65.6045 9.19136V9.94397L66.1988 10.1344V10.4996ZM64.424 9.57484L65.331 9.86397V9.2718L64.424 9.55919V9.57484Z" fill="#1A5632"/>
<path d="M62.7357 7.07514C62.2978 6.51266 61.71 6.08549 61.04 5.84297C60.7791 5.73745 60.3726 5.58701 59.8204 5.39166C59.2683 5.19632 58.6704 4.99092 58.0274 4.77558C57.3848 4.56022 56.793 4.365 56.2526 4.18992C55.7117 4.01485 55.3235 3.8908 55.0874 3.81776C54.7756 3.72406 54.4578 3.65271 54.1361 3.60427C53.8252 3.55401 53.5113 3.52756 53.197 3.52515C52.8822 3.52839 52.5678 3.55747 52.2578 3.6121C51.9374 3.66434 51.6196 3.73342 51.3065 3.81906C51.0704 3.89239 50.6822 4.01645 50.1417 4.19123C49.6009 4.36602 49.0096 4.56123 48.367 4.77689C47.7243 4.99253 47.1243 5.19788 46.5678 5.39297C46.0109 5.58806 45.6061 5.73849 45.3539 5.84427C44.6817 6.0804 44.093 6.50627 43.6583 7.07036C43.3028 7.69906 43.1376 8.4174 43.1825 9.13819V17.3725C43.1645 18.3139 43.3281 19.25 43.6643 20.1295C44.0196 20.9765 44.5496 21.7391 45.2196 22.3678C46.0783 23.1711 47.023 23.8768 48.0374 24.4721C49.2 25.1796 50.6191 25.9561 52.2943 26.8017C52.443 26.8761 52.5983 26.9373 52.7578 26.9847C52.9 27.0302 53.0478 27.055 53.197 27.0582C53.3448 27.0554 53.4913 27.0306 53.6317 26.9847C53.7926 26.9352 53.9496 26.874 54.1013 26.8017C55.7843 25.9721 57.2096 25.204 58.377 24.4973C59.3922 23.9047 60.3357 23.1966 61.1887 22.3873C61.8526 21.7515 62.3778 20.9854 62.7317 20.1369C63.0674 19.2551 63.2309 18.3172 63.2135 17.3738V9.13645C63.2583 8.41745 63.0922 7.70097 62.7357 7.07514Z" fill="#1A5632"/>
<path d="M55.4847 19.1988C55.3999 19.1961 55.3156 19.2158 55.2408 19.2558C55.1617 19.3052 55.096 19.3731 55.0495 19.4536L53.0847 22.5405L52.0969 21.3592C52.0508 21.3015 51.9921 21.2552 51.9252 21.2238C51.8586 21.1925 51.7856 21.1769 51.7117 21.1784C51.646 21.1763 51.5808 21.1875 51.5195 21.2112C51.4586 21.235 51.403 21.2708 51.356 21.3166C51.3099 21.3617 51.2734 21.4159 51.2491 21.4758C51.2252 21.5357 51.2134 21.5999 51.2156 21.6645C51.2152 21.7246 51.226 21.7843 51.2473 21.8405C51.2747 21.9057 51.3134 21.9655 51.3617 22.0171L52.6521 23.5414C52.7056 23.6062 52.773 23.6581 52.8491 23.693C52.9256 23.728 53.0091 23.7451 53.093 23.7431C53.1825 23.7478 53.2721 23.7292 53.3525 23.6891C53.433 23.6491 53.5017 23.5889 53.5521 23.5145L55.8782 20.0018C55.9125 19.9505 55.9399 19.8946 55.9591 19.8358C55.9752 19.7855 55.9838 19.7329 55.9843 19.6801C55.986 19.6158 55.9743 19.5519 55.9495 19.4925C55.9252 19.433 55.8886 19.3794 55.8421 19.3349C55.7947 19.2895 55.7386 19.254 55.6773 19.2306C55.6156 19.2073 55.5504 19.1965 55.4847 19.1988Z" fill="white"/>
<path d="M48.0442 9.58344H48.9572V10.1226H47.3438V7.25562H48.042L48.0442 9.58344Z" fill="white"/>
<path d="M49.992 7.81494V8.3945H50.9273V8.93363H49.992V9.56276H51.0494V10.1223H49.2925V7.25537H51.049V7.8145L49.992 7.81494Z" fill="white"/>
<path d="M53.4066 8.16265C53.3562 8.06921 53.2784 7.99339 53.184 7.94525C53.0779 7.89304 52.961 7.86721 52.8431 7.87004C52.7418 7.86565 52.6405 7.8833 52.5466 7.92173C52.4531 7.96012 52.3688 8.01843 52.2997 8.09265C52.1575 8.25699 52.084 8.46995 52.0953 8.68699C52.0884 8.79913 52.104 8.91152 52.1405 9.01765C52.1775 9.12382 52.2349 9.22169 52.3097 9.30569C52.387 9.38173 52.4797 9.44082 52.5814 9.47912C52.6827 9.51747 52.7914 9.53421 52.9001 9.5283C53.0553 9.53334 53.2079 9.48756 53.3349 9.39786C53.4592 9.30321 53.5501 9.17178 53.5957 9.02221H52.7097V8.50525H54.2288V9.15482C54.1744 9.33304 54.0849 9.49843 53.9653 9.64091C53.8362 9.79508 53.6753 9.91943 53.4936 10.0053C53.2918 10.1001 53.071 10.1476 52.8484 10.144C52.5836 10.1487 52.3227 10.0847 52.0905 9.9583C51.8723 9.83839 51.6923 9.65934 51.5718 9.44178C51.4497 9.20821 51.3857 8.9486 51.3857 8.68504C51.3857 8.42147 51.4497 8.16182 51.5718 7.9283C51.6914 7.71017 51.8705 7.53039 52.0883 7.4096C52.3197 7.28278 52.5801 7.21865 52.8444 7.22352C53.1531 7.21295 53.4575 7.29999 53.714 7.47221C53.9488 7.63765 54.1149 7.88321 54.1814 8.16265H53.4066Z" fill="white"/>
<path d="M56.4009 9.61605H55.3313L55.16 10.1226H54.4287L55.4657 7.25562H56.2744L57.3105 10.1226H56.5709L56.4009 9.61605ZM56.2209 9.07735L55.8657 8.02735L55.5148 9.07735H56.2209Z" fill="white"/>
<path d="M58.3245 9.58344H59.2375V10.1226H57.624V7.25562H58.3223L58.3245 9.58344Z" fill="white"/>
<path d="M50.8015 11.5199C51.0211 11.6341 51.2033 11.8094 51.3259 12.0247C51.4476 12.2553 51.5115 12.5123 51.5115 12.7732C51.5115 13.0341 51.4476 13.291 51.3259 13.5217C51.2033 13.7381 51.0202 13.9141 50.7989 14.0277C50.5541 14.1518 50.2828 14.2136 50.0089 14.2077H48.9346V11.3408H50.0089C50.2837 11.3344 50.5559 11.3959 50.8015 11.5199ZM50.5811 13.3869C50.6576 13.3052 50.7167 13.2087 50.7546 13.1034C50.7924 12.998 50.8085 12.886 50.8015 12.7743C50.8124 12.6615 50.7985 12.5477 50.7607 12.4409C50.7224 12.3342 50.6611 12.2373 50.5807 12.1572C50.5007 12.0771 50.4037 12.0158 50.2967 11.9777C50.1902 11.9396 50.0763 11.9256 49.9637 11.9369H49.6328V13.603H49.9637C50.0754 13.6098 50.188 13.5942 50.2937 13.557C50.3998 13.52 50.4976 13.4621 50.5811 13.3869Z" fill="white"/>
<path d="M53.6889 13.701H52.6202L52.4489 14.2075H51.7158L52.7532 11.3406H53.5619L54.5993 14.2075H53.8602L53.6889 13.701ZM53.5089 13.1623L53.1536 12.1123L52.8028 13.1623H53.5089Z" fill="white"/>
<path d="M57.4793 14.2078H56.7806L55.6123 12.4391V14.2078H54.9141V11.3408H55.6123L56.7806 13.1173V11.3408H57.4793V14.2078Z" fill="white"/>
<path d="M48.8251 17.785H47.7551L47.5838 18.2915H46.8525L47.8899 15.4246H48.6986L49.736 18.2915H48.9969L48.8251 17.785ZM48.6451 17.2463L48.2899 16.1963L47.9391 17.2463H48.6451Z" fill="white"/>
<path d="M53.2971 15.4258V18.2927H52.5988V16.5732L51.9575 18.2927H51.3923L50.7471 16.5693V18.2927H50.0488V15.4258H50.8749L51.6797 17.4106L52.4758 15.4258H53.2971Z" fill="white"/>
<path d="M55.5844 17.785H54.5144L54.3427 18.2915H53.6118L54.6492 15.4246H55.4579L56.4953 18.2915H55.7562L55.5844 17.785ZM55.4044 17.2463L55.0492 16.1963L54.6983 17.2463H55.4044Z" fill="white"/>
<path d="M59.3748 18.2919H58.6766L57.5083 16.5232V18.2919H56.8101V15.4258H57.5083L58.6766 17.2023V15.4258H59.3748V18.2919Z" fill="white"/>
</g>
</g>
<defs>
<clipPath id="clip0_182_197">
<rect width="66.5217" height="30" fill="white" transform="translate(0.135254 0.5)"/>
</clipPath>
</defs>
</svg>
