<svg width="180" height="47" viewBox="0 0 180 47" fill="none" xmlns="http://www.w3.org/2000/svg">
<g clip-path="url(#clip0_302_3854)">
<path d="M96.1854 12.9699C96.0642 12.7471 95.8848 12.5613 95.6664 12.4323C95.4568 12.3097 95.2182 12.2455 94.9754 12.2464C94.7331 12.2459 94.495 12.3085 94.2843 12.4282C94.0653 12.5545 93.8855 12.7389 93.7647 12.961C93.6272 13.2153 93.5586 13.5012 93.5657 13.7902C93.5583 14.0837 93.6256 14.3743 93.7612 14.6347C93.8815 14.8637 94.0627 15.0551 94.285 15.1875C94.4939 15.3123 94.7327 15.3782 94.9761 15.3782C95.2189 15.3791 95.4575 15.315 95.6671 15.1923C95.8867 15.0619 96.066 14.8735 96.1854 14.6478C96.3225 14.3891 96.391 14.0995 96.3844 13.8068C96.3914 13.5156 96.3229 13.2268 96.1854 12.9699ZM92.8684 12.5477C93.0503 12.2005 93.324 11.9099 93.6596 11.7074C93.9955 11.5074 94.3799 11.4036 94.7708 11.4075C95.1031 11.3999 95.4321 11.4737 95.7293 11.6224C95.9843 11.7514 96.2079 11.9347 96.3844 12.1594V11.4835H97.356V16.1383H96.3844V15.4473C96.2067 15.679 95.9784 15.8669 95.7169 15.9967C95.4186 16.147 95.0882 16.2224 94.7542 16.2164C94.3662 16.22 93.9851 16.1131 93.6555 15.9082C93.3186 15.6972 93.0455 15.3983 92.8656 15.0437C92.667 14.6559 92.5671 14.2251 92.5747 13.7895C92.5662 13.357 92.6665 12.9293 92.8663 12.5457" fill="#1B5633"/>
<path d="M99.1175 16.0153C98.8444 15.8981 98.6063 15.7121 98.4264 15.4756C98.2598 15.2545 98.1654 14.9874 98.1562 14.7106H99.1569C99.1654 14.8085 99.1951 14.9034 99.2439 14.9887C99.2927 15.074 99.3595 15.1477 99.4395 15.2047C99.6264 15.3423 99.8544 15.4124 100.086 15.4037C100.307 15.4167 100.527 15.3622 100.716 15.2476C100.784 15.2052 100.84 15.1461 100.879 15.0758C100.918 15.0055 100.939 14.9264 100.938 14.8461C100.94 14.764 100.917 14.6833 100.873 14.6141C100.829 14.545 100.765 14.4905 100.69 14.4577C100.435 14.3423 100.171 14.2498 99.8997 14.1813C99.61 14.1064 99.325 14.0141 99.0463 13.9049C98.826 13.814 98.6305 13.6719 98.4762 13.4903C98.3075 13.2825 98.2216 13.0196 98.235 12.7522C98.2341 12.508 98.311 12.2698 98.4548 12.0723C98.616 11.8561 98.8339 11.6887 99.0843 11.5885C99.3828 11.4654 99.7034 11.405 100.026 11.4109C100.487 11.3888 100.941 11.5311 101.306 11.8124C101.467 11.9461 101.597 12.1132 101.686 12.3021C101.776 12.491 101.824 12.6972 101.826 12.9063H100.862C100.857 12.8099 100.832 12.7155 100.788 12.6294C100.745 12.5433 100.683 12.4674 100.608 12.4067C100.43 12.2747 100.212 12.209 99.9909 12.2208C99.7865 12.208 99.5831 12.2584 99.4084 12.3653C99.3449 12.406 99.293 12.4624 99.2574 12.5289C99.2218 12.5954 99.2039 12.6699 99.2052 12.7453C99.2044 12.8043 99.2163 12.8627 99.2402 12.9166C99.264 12.9705 99.2993 13.0186 99.3434 13.0577C99.4385 13.1459 99.5507 13.2137 99.6731 13.2567C99.8023 13.3051 99.9937 13.3652 100.247 13.4384C100.529 13.5111 100.806 13.6034 101.076 13.7149C101.292 13.8069 101.484 13.947 101.638 14.1246C101.803 14.3264 101.89 14.5811 101.883 14.8419C101.886 15.0958 101.81 15.3442 101.663 15.5516C101.505 15.7689 101.29 15.9385 101.041 16.0416C100.743 16.166 100.422 16.2265 100.099 16.2192C99.7606 16.225 99.4246 16.1571 99.1147 16.0201" fill="#1B5633"/>
<path d="M105.428 15.2007C105.651 15.0766 105.834 14.8918 105.956 14.6679C106.099 14.4031 106.168 14.1053 106.159 13.8048C106.168 13.5071 106.101 13.212 105.965 12.9473C105.846 12.7272 105.668 12.5453 105.45 12.4228C105.239 12.3052 105.001 12.244 104.759 12.2452C104.517 12.2429 104.279 12.3041 104.068 12.4228C103.852 12.5458 103.677 12.7294 103.565 12.9507C103.435 13.2162 103.372 13.5094 103.381 13.8048C103.354 14.2272 103.491 14.6437 103.765 14.9665C103.888 15.0998 104.038 15.2054 104.204 15.2761C104.371 15.3468 104.551 15.3809 104.732 15.3763C104.976 15.3777 105.215 15.3173 105.428 15.2007ZM103.54 15.9139C103.187 15.7162 102.898 15.4236 102.704 15.0694C102.494 14.6814 102.39 14.2456 102.4 13.8048C102.391 13.3652 102.499 12.9312 102.712 12.5465C102.911 12.1904 103.206 11.8979 103.565 11.7027C103.936 11.5032 104.351 11.4014 104.773 11.407C105.194 11.4014 105.609 11.5032 105.981 11.7027C106.34 11.898 106.636 12.191 106.836 12.5479C107.049 12.9322 107.156 13.3657 107.148 13.8048C107.156 14.2457 107.045 14.6807 106.827 15.0639C106.62 15.4233 106.317 15.7177 105.952 15.9139C105.577 16.1153 105.157 16.2184 104.731 16.2138C104.315 16.2196 103.904 16.1162 103.54 15.9139Z" fill="#1B5633"/>
<path d="M108.596 16.0153C108.323 15.8978 108.085 15.712 107.904 15.4756C107.738 15.2545 107.643 14.9874 107.634 14.7107H108.635C108.643 14.8086 108.673 14.9035 108.722 14.9889C108.771 15.0742 108.837 15.1479 108.918 15.2047C109.104 15.3425 109.332 15.4127 109.564 15.4038C109.785 15.4167 110.005 15.3622 110.194 15.2476C110.262 15.2053 110.319 15.1462 110.358 15.0759C110.397 15.0057 110.418 14.9266 110.418 14.8461C110.419 14.764 110.397 14.6833 110.352 14.6141C110.308 14.545 110.244 14.4906 110.169 14.4577C109.914 14.3422 109.65 14.2497 109.378 14.1813C109.089 14.1063 108.804 14.014 108.525 13.9049C108.305 13.814 108.11 13.6719 107.956 13.4903C107.787 13.2826 107.7 13.0197 107.714 12.7523C107.713 12.5081 107.789 12.2699 107.933 12.0723C108.094 11.856 108.312 11.6886 108.562 11.5886C108.861 11.4654 109.181 11.4049 109.504 11.411C109.964 11.3887 110.418 11.531 110.783 11.8125C110.944 11.9461 111.074 12.1132 111.164 12.3021C111.254 12.491 111.301 12.6972 111.303 12.9064H110.341C110.336 12.8099 110.31 12.7156 110.267 12.6295C110.223 12.5435 110.161 12.4676 110.086 12.4067C109.908 12.2747 109.69 12.209 109.469 12.2209C109.265 12.2079 109.061 12.2583 108.886 12.3653C108.823 12.4061 108.771 12.4624 108.735 12.5289C108.7 12.5954 108.682 12.6699 108.683 12.7454C108.683 12.8043 108.694 12.8627 108.718 12.9166C108.742 12.9705 108.777 13.0186 108.821 13.0577C108.917 13.1459 109.029 13.2136 109.151 13.2567C109.281 13.3051 109.472 13.3652 109.725 13.4385C110.008 13.5112 110.285 13.6035 110.555 13.7149C110.77 13.8071 110.963 13.9473 111.116 14.1247C111.282 14.3265 111.369 14.5812 111.361 14.842C111.364 15.0939 111.288 15.3403 111.143 15.5468C110.985 15.7642 110.77 15.9337 110.521 16.0367C110.223 16.1612 109.902 16.2217 109.579 16.2143C109.24 16.2201 108.905 16.1522 108.596 16.0153Z" fill="#1B5633"/>
<path d="M113.154 16.1369H112.191V11.4856H113.154V16.1369Z" fill="#1B5633"/>
<path d="M117.499 12.9699C117.377 12.7472 117.198 12.5615 116.98 12.4323C116.77 12.3097 116.531 12.2455 116.289 12.2464C116.046 12.2459 115.808 12.3086 115.598 12.4282C115.379 12.5545 115.199 12.7389 115.079 12.961C114.941 13.2153 114.873 13.5012 114.88 13.7902C114.872 14.0837 114.939 14.3743 115.074 14.6347C115.194 14.8638 115.375 15.0552 115.598 15.1875C115.807 15.3122 116.045 15.3781 116.289 15.3782C116.531 15.3791 116.77 15.3149 116.98 15.1923C117.199 15.0619 117.379 14.8735 117.499 14.6478C117.636 14.3892 117.705 14.0996 117.698 13.8068C117.705 13.5155 117.636 13.2267 117.499 12.9699ZM114.182 12.5477C114.364 12.1998 114.639 11.9089 114.976 11.7074C115.312 11.5074 115.696 11.4036 116.087 11.4075C116.419 11.3999 116.748 11.4737 117.045 11.6224C117.3 11.7515 117.524 11.9348 117.7 12.1594V11.4835H118.672V16.1383H117.698V15.4473C117.52 15.679 117.292 15.8669 117.03 15.9967C116.732 16.1469 116.401 16.2224 116.068 16.2164C115.679 16.2199 115.298 16.113 114.969 15.9082C114.632 15.6974 114.359 15.3985 114.179 15.0437C113.98 14.656 113.88 14.2252 113.888 13.7895C113.879 13.357 113.979 12.9292 114.18 12.5457" fill="#1B5633"/>
<path d="M120.43 16.0153C120.157 15.8978 119.919 15.712 119.739 15.4756C119.572 15.2546 119.478 14.9875 119.468 14.7107H120.47C120.478 14.8086 120.508 14.9035 120.556 14.9889C120.605 15.0742 120.672 15.1479 120.752 15.2047C120.939 15.3425 121.167 15.4126 121.399 15.4038C121.62 15.4168 121.839 15.3623 122.029 15.2476C122.097 15.2053 122.153 15.1462 122.193 15.0759C122.232 15.0057 122.252 14.9266 122.252 14.8461C122.254 14.764 122.231 14.6833 122.187 14.6141C122.143 14.545 122.079 14.4906 122.004 14.4577C121.749 14.3422 121.484 14.2497 121.213 14.1813C120.923 14.1063 120.638 14.014 120.36 13.9049C120.14 13.8139 119.944 13.6718 119.79 13.4903C119.621 13.2826 119.535 13.0197 119.548 12.7523C119.547 12.5081 119.624 12.2699 119.767 12.0723C119.929 11.856 120.147 11.6886 120.397 11.5886C120.695 11.4654 121.016 11.4049 121.338 11.411C121.799 11.3887 122.253 11.531 122.618 11.8125C122.779 11.9461 122.909 12.1132 122.998 12.3021C123.088 12.491 123.136 12.6972 123.138 12.9064H122.176C122.171 12.8098 122.146 12.7154 122.102 12.6293C122.058 12.5432 121.996 12.4673 121.921 12.4067C121.743 12.2747 121.525 12.2089 121.304 12.2209C121.099 12.2079 120.896 12.2583 120.721 12.3653C120.658 12.4061 120.606 12.4624 120.57 12.5289C120.535 12.5954 120.517 12.6699 120.518 12.7454C120.517 12.8043 120.529 12.8627 120.553 12.9166C120.577 12.9705 120.612 13.0186 120.656 13.0577C120.751 13.1457 120.864 13.2135 120.986 13.2567C121.116 13.3051 121.307 13.3652 121.56 13.4385C121.843 13.5111 122.12 13.6035 122.389 13.7149C122.605 13.8071 122.798 13.9472 122.952 14.1247C123.117 14.3266 123.203 14.5813 123.196 14.842C123.199 15.0939 123.122 15.3403 122.978 15.5468C122.82 15.7642 122.604 15.9337 122.356 16.0367C122.058 16.1613 121.737 16.2218 121.414 16.2143C121.075 16.2201 120.74 16.1522 120.43 16.0153Z" fill="#1B5633"/>
<path d="M124.989 16.1369H124.025V11.4856H124.989V16.1369Z" fill="#1B5633"/>
<path d="M129.98 12.2685H129.119V16.1383H128.147V12.2685H127.598V11.4828H128.147V11.1532C128.128 10.9388 128.156 10.7228 128.23 10.5206C128.304 10.3184 128.421 10.135 128.574 9.9833C128.963 9.70672 129.437 9.57673 129.913 9.61636V10.4186C129.694 10.397 129.475 10.4555 129.296 10.5831C129.23 10.6614 129.18 10.7523 129.149 10.8504C129.119 10.9485 129.109 11.0517 129.119 11.1539V11.4835H129.981L129.98 12.2685Z" fill="#1B5633"/>
<path d="M131.586 16.1369H130.623V11.4856H131.586V16.1369Z" fill="#1B5633"/>
<path d="M135.974 11.6357C136.264 11.7872 136.501 12.0228 136.654 12.3116C136.826 12.6455 136.911 13.0176 136.9 13.393V16.1378H135.945V13.5375C135.968 13.1893 135.856 12.8457 135.632 12.5783C135.522 12.4654 135.389 12.3773 135.242 12.3196C135.096 12.2619 134.938 12.2361 134.781 12.2438C134.622 12.236 134.464 12.2617 134.316 12.3192C134.169 12.3767 134.035 12.4648 133.923 12.5776C133.697 12.844 133.583 13.1884 133.606 13.5375V16.1378H132.639V11.4837H133.606V12.0172C133.768 11.8212 133.975 11.6671 134.209 11.568C134.455 11.461 134.72 11.4062 134.988 11.407C135.33 11.4016 135.668 11.4801 135.972 11.6357" fill="#1B5633"/>
<path d="M139.037 12.2694V14.8455C139.03 14.9132 139.037 14.9816 139.059 15.0463C139.08 15.111 139.114 15.1706 139.159 15.2215C139.278 15.3095 139.425 15.351 139.573 15.3382H140.165V16.1378H139.405C139.047 16.1621 138.692 16.0539 138.409 15.8337C138.283 15.7038 138.187 15.5482 138.127 15.3776C138.068 15.207 138.046 15.0254 138.063 14.8455V12.2694H137.514V11.4837H138.063V10.3262H139.035V11.4837H140.169V12.2694H139.037Z" fill="#1B5633"/>
<path d="M144.105 13.3921C144.108 13.2305 144.075 13.0703 144.009 12.9228C143.944 12.7753 143.846 12.6441 143.723 12.5386C143.467 12.3218 143.14 12.2073 142.804 12.2173C142.49 12.2108 142.185 12.3242 141.951 12.5345C141.709 12.7581 141.558 13.0637 141.528 13.3921H144.105ZM145.077 14.1688H141.52C141.526 14.3385 141.566 14.5052 141.637 14.6594C141.709 14.8136 141.809 14.9521 141.934 15.0671C142.183 15.2935 142.51 15.4149 142.847 15.4057C143.074 15.4207 143.301 15.3663 143.497 15.2495C143.693 15.1328 143.849 14.9593 143.945 14.752H144.981C144.844 15.174 144.577 15.5418 144.218 15.8024C143.818 16.0855 143.336 16.2294 142.847 16.2122C142.428 16.2193 142.016 16.1161 141.65 15.913C141.3 15.7154 141.012 15.4227 140.821 15.0685C140.616 14.6798 140.513 14.2449 140.523 13.8053C140.513 13.3667 140.613 12.9328 140.814 12.5428C141 12.1889 141.285 11.8968 141.634 11.7025C142.006 11.5003 142.423 11.3984 142.847 11.4067C143.256 11.3995 143.661 11.4986 144.021 11.6942C144.36 11.8814 144.638 12.1612 144.823 12.5006C145.02 12.8679 145.119 13.2796 145.11 13.6961C145.112 13.8543 145.1 14.0124 145.077 14.1688Z" fill="#1B5633"/>
<path d="M145.815 12.543C145.999 12.1915 146.279 11.8998 146.623 11.7027C146.983 11.5001 147.391 11.3971 147.805 11.4041C148.302 11.3846 148.792 11.5253 149.204 11.8056C149.582 12.0864 149.847 12.4934 149.951 12.9527H148.914C148.839 12.7346 148.697 12.5455 148.508 12.4124C148.301 12.2761 148.055 12.208 147.807 12.2175C147.629 12.2105 147.451 12.2447 147.288 12.3173C147.124 12.3899 146.98 12.499 146.866 12.6362C146.613 12.9716 146.488 13.3861 146.513 13.8055C146.488 14.2262 146.612 14.6423 146.864 14.9802C146.977 15.1185 147.121 15.2286 147.285 15.302C147.448 15.3754 147.626 15.41 147.805 15.4032C148.045 15.4232 148.285 15.3615 148.486 15.228C148.686 15.0945 148.836 14.8971 148.911 14.6679H149.947C149.827 15.1182 149.559 15.5153 149.187 15.7957C148.784 16.0844 148.297 16.2316 147.801 16.2144C147.389 16.2214 146.982 16.1176 146.623 15.9138C146.279 15.7136 145.999 15.4198 145.815 15.0666C145.615 14.677 145.515 14.2436 145.524 13.8055C145.514 13.3669 145.615 12.933 145.815 12.543Z" fill="#1B5633"/>
<path d="M154.061 11.6357C154.343 11.7906 154.572 12.0259 154.72 12.3116C154.888 12.6466 154.97 13.0183 154.959 13.393V16.1378H154.006V13.5368C154.029 13.1885 153.917 12.8448 153.692 12.5776C153.582 12.4646 153.449 12.3764 153.301 12.3188C153.154 12.2613 152.997 12.2357 152.839 12.2438C152.68 12.2361 152.522 12.2618 152.374 12.3193C152.227 12.3768 152.093 12.4648 151.981 12.5776C151.755 12.844 151.642 13.1881 151.665 13.5368V16.1378H150.702V9.88672H151.665V12.0241C151.833 11.8239 152.046 11.6674 152.287 11.568C152.548 11.4591 152.828 11.4046 153.111 11.4077C153.442 11.402 153.769 11.4805 154.061 11.6357Z" fill="#1B5633"/>
<path d="M96.49 23.2155C96.3682 22.993 96.1868 22.8087 95.9662 22.6834C95.7536 22.5639 95.5136 22.5015 95.2697 22.5024C95.0269 22.5019 94.7884 22.566 94.5786 22.6883C94.3575 22.8169 94.1762 23.0041 94.0548 23.2294C93.9171 23.4861 93.8485 23.7743 93.8558 24.0655C93.8496 24.3582 93.9188 24.6476 94.0569 24.9058C94.1771 25.1327 94.3586 25.3214 94.5807 25.4503C94.7903 25.5728 95.0289 25.637 95.2717 25.6362C95.5161 25.6364 95.756 25.5708 95.9662 25.4462C96.1885 25.3138 96.3697 25.1224 96.49 24.8934C96.6267 24.6337 96.6951 24.3436 96.689 24.0503C96.6964 23.7601 96.6278 23.4731 96.49 23.2176M94.5282 21.886C94.8236 21.7358 95.1512 21.6602 95.4825 21.6656C95.8734 21.6619 96.2577 21.7656 96.5937 21.9655C96.929 22.1675 97.2018 22.4586 97.3815 22.8064C97.5786 23.1909 97.6771 23.6183 97.6682 24.0503C97.6756 24.4853 97.5769 24.9155 97.3808 25.3038C97.2023 25.6582 96.9291 25.9562 96.5916 26.1649C96.2576 26.3701 95.8724 26.4769 95.4804 26.4731C95.1522 26.4792 94.8274 26.405 94.5344 26.2568C94.2746 26.1265 94.0445 25.944 93.8586 25.7205V28.6111H92.8953V21.7423H93.8579V22.4257C94.0385 22.1983 94.2675 22.0139 94.5282 21.886Z" fill="#1B5633"/>
<path d="M101.673 23.6506C101.676 23.489 101.644 23.3287 101.578 23.1812C101.512 23.0337 101.414 22.9025 101.291 22.7972C101.035 22.5808 100.708 22.4666 100.372 22.4765C100.058 22.4696 99.7526 22.5828 99.5187 22.793C99.2762 23.0164 99.1257 23.3222 99.0965 23.6506H101.673ZM102.641 24.4273H99.0875C99.0942 24.597 99.1343 24.7636 99.2054 24.9178C99.2766 25.0719 99.3774 25.2105 99.5022 25.3257C99.7511 25.5521 100.078 25.6734 100.414 25.6643C100.642 25.6794 100.869 25.6249 101.065 25.5082C101.261 25.3915 101.417 25.2179 101.512 25.0106H102.549C102.412 25.4322 102.146 25.7998 101.787 26.0609C101.387 26.3439 100.905 26.4878 100.414 26.4707C99.9962 26.478 99.5836 26.3747 99.2181 26.1715C98.8675 25.974 98.58 25.6812 98.3889 25.3271C98.1828 24.9387 98.0796 24.5041 98.089 24.0645C98.0795 23.6257 98.1797 23.1915 98.3806 22.8013C98.5665 22.4472 98.8518 22.1551 99.2016 21.961C99.5733 21.7589 99.9913 21.657 100.414 21.6653C100.824 21.6578 101.229 21.7568 101.589 21.9527C101.928 22.1396 102.206 22.4191 102.391 22.7585C102.587 23.1258 102.686 23.5374 102.678 23.954C102.679 24.1122 102.668 24.2702 102.644 24.4266" fill="#1B5633"/>
<path d="M106.746 21.8933C107.035 22.0451 107.272 22.2806 107.426 22.5692C107.598 22.9031 107.682 23.2752 107.671 23.6506V26.3954H106.716V23.7951C106.74 23.447 106.628 23.1033 106.404 22.8359C106.294 22.723 106.161 22.6348 106.014 22.5772C105.867 22.5195 105.71 22.4937 105.552 22.5014C105.394 22.4936 105.236 22.5193 105.088 22.5769C104.94 22.6344 104.806 22.7224 104.694 22.8352C104.468 23.1017 104.354 23.4461 104.378 23.7951V26.3954H103.41V21.7413H104.378V22.2748C104.54 22.079 104.746 21.925 104.98 21.8256C105.226 21.7185 105.491 21.6637 105.76 21.6646C106.102 21.6589 106.44 21.7375 106.744 21.8933" fill="#1B5633"/>
<path d="M111.976 23.227C111.855 23.0026 111.675 22.8155 111.456 22.6859C111.246 22.5633 111.008 22.4991 110.765 22.5C110.523 22.4993 110.284 22.562 110.074 22.6818C109.855 22.8076 109.675 22.9918 109.555 23.2139C109.417 23.4682 109.349 23.7541 109.356 24.0431C109.348 24.338 109.415 24.6302 109.551 24.8917C109.671 25.121 109.852 25.3124 110.075 25.4445C110.283 25.5693 110.522 25.6352 110.766 25.6352C111.008 25.6362 111.247 25.572 111.457 25.4494C111.676 25.3192 111.856 25.1307 111.976 24.9048C112.112 24.6463 112.181 24.357 112.174 24.0645C112.182 23.7729 112.113 23.4842 111.976 23.227ZM108.659 22.8041C108.842 22.4565 109.117 22.1659 109.453 21.9638C109.792 21.7629 110.179 21.6591 110.573 21.6639C110.883 21.6655 111.189 21.7333 111.471 21.8629C111.746 21.9786 111.988 22.1599 112.176 22.3908V20.1443H113.148V26.3954H112.174V25.6947C112.004 25.9303 111.779 26.1214 111.519 26.2516C111.223 26.4038 110.894 26.4805 110.56 26.4749C110.168 26.4778 109.783 26.3697 109.45 26.1632C109.111 25.9538 108.836 25.6552 108.655 25.3001C108.456 24.9124 108.356 24.4816 108.364 24.0459C108.355 23.6134 108.455 23.1857 108.655 22.802" fill="#1B5633"/>
<path d="M117.491 23.2284C117.37 23.0053 117.191 22.8195 116.972 22.6908C116.762 22.5682 116.524 22.504 116.281 22.5049C116.038 22.5042 115.8 22.5669 115.59 22.6867C115.371 22.8125 115.191 22.9967 115.071 23.2188C114.933 23.4731 114.865 23.759 114.872 24.048C114.864 24.3413 114.932 24.6317 115.067 24.8918C115.187 25.121 115.368 25.3124 115.59 25.4446C115.799 25.5693 116.038 25.6352 116.281 25.6353C116.524 25.6362 116.763 25.572 116.972 25.4494C117.193 25.3185 117.372 25.129 117.491 24.9021C117.628 24.6444 117.696 24.3561 117.69 24.0646C117.697 23.7734 117.629 23.4853 117.491 23.2284ZM114.174 22.8055C114.357 22.4584 114.63 22.1678 114.966 21.9652C115.302 21.7652 115.686 21.6614 116.077 21.6653C116.409 21.6577 116.738 21.7315 117.035 21.8802C117.29 22.0092 117.513 22.1925 117.69 22.4172V21.7413H118.661V26.3961H117.69V25.7051C117.512 25.937 117.284 26.125 117.022 26.2545C116.724 26.405 116.394 26.4805 116.06 26.4742C115.672 26.478 115.29 26.3711 114.961 26.166C114.624 25.9553 114.351 25.6563 114.171 25.3015C113.972 24.9138 113.872 24.483 113.879 24.0473C113.871 23.6148 113.971 23.1871 114.171 22.8035" fill="#1B5633"/>
<path d="M123.05 21.8933C123.34 22.0448 123.577 22.2804 123.73 22.5691C123.902 22.9031 123.986 23.2752 123.975 23.6506V26.3954H123.02V23.795C123.044 23.447 122.932 23.1034 122.708 22.8359C122.598 22.7231 122.465 22.635 122.318 22.5774C122.171 22.5197 122.014 22.4938 121.857 22.5014C121.698 22.4935 121.54 22.5192 121.392 22.5767C121.244 22.6342 121.11 22.7223 120.999 22.8352C120.772 23.1016 120.658 23.446 120.682 23.795V26.3954H119.714V21.7413H120.682V22.2748C120.844 22.0789 121.051 21.9249 121.285 21.8256C121.531 21.7185 121.796 21.6636 122.064 21.6646C122.406 21.6591 122.744 21.7376 123.049 21.8933" fill="#1B5633"/>
<path d="M128.279 23.2285C128.158 23.0053 127.978 22.8195 127.759 22.6908C127.55 22.5681 127.311 22.5039 127.068 22.5049C126.826 22.5042 126.588 22.5669 126.377 22.6867C126.158 22.8126 125.979 22.9968 125.858 23.2188C125.721 23.4731 125.652 23.759 125.659 24.048C125.652 24.3413 125.719 24.6317 125.855 24.8918C125.974 25.121 126.155 25.3125 126.378 25.4446C126.587 25.5693 126.825 25.6352 127.069 25.6353C127.312 25.6364 127.55 25.5722 127.76 25.4494C127.98 25.3185 128.16 25.1291 128.279 24.9021C128.416 24.6446 128.484 24.3562 128.478 24.0646C128.485 23.7733 128.417 23.4852 128.279 23.2285ZM124.962 22.8055C125.144 22.4583 125.417 22.1677 125.753 21.9652C126.089 21.7651 126.473 21.6614 126.864 21.6653C127.196 21.6577 127.525 21.7315 127.822 21.8802C128.077 22.0093 128.301 22.1926 128.477 22.4172V21.7413H129.449V26.3962H128.478V25.7051C128.3 25.9368 128.072 26.1247 127.81 26.2545C127.512 26.405 127.182 26.4804 126.848 26.4742C126.46 26.4779 126.078 26.371 125.749 26.166C125.412 25.9553 125.139 25.6564 124.959 25.3016C124.76 24.914 124.659 24.4831 124.667 24.0473C124.658 23.6148 124.758 23.187 124.958 22.8035" fill="#1B5633"/>
<path d="M133.795 23.2285C133.674 23.0053 133.494 22.8195 133.275 22.6908C133.065 22.5681 132.827 22.5039 132.584 22.5049C132.342 22.5042 132.104 22.5669 131.893 22.6867C131.674 22.8126 131.494 22.9968 131.374 23.2188C131.237 23.4731 131.168 23.759 131.175 24.048C131.167 24.3413 131.235 24.6317 131.371 24.8918C131.49 25.121 131.671 25.3125 131.894 25.4446C132.103 25.5693 132.341 25.6352 132.585 25.6353C132.828 25.6364 133.066 25.5722 133.276 25.4494C133.496 25.3185 133.676 25.1291 133.795 24.9021C133.932 24.6446 134 24.3562 133.994 24.0646C134.001 23.7733 133.933 23.4852 133.795 23.2285ZM130.478 22.8055C130.66 22.4583 130.933 22.1677 131.269 21.9652C131.605 21.7651 131.989 21.6614 132.379 21.6653C132.712 21.6577 133.041 21.7315 133.338 21.8802C133.593 22.0093 133.816 22.1926 133.993 22.4172V21.7413H134.965V26.3962H133.994V25.7051C133.816 25.9368 133.588 26.1247 133.326 26.2545C133.028 26.405 132.698 26.4804 132.364 26.4742C131.975 26.4779 131.594 26.371 131.265 26.166C130.928 25.9553 130.654 25.6564 130.475 25.3016C130.276 24.914 130.175 24.4831 130.183 24.0473C130.174 23.6148 130.274 23.187 130.474 22.8035" fill="#1B5633"/>
<path d="M139.354 21.8933C139.643 22.0448 139.88 22.2804 140.034 22.5691C140.205 22.9031 140.29 23.2752 140.279 23.6506V26.3954H139.325V23.795C139.348 23.4469 139.236 23.1033 139.012 22.8359C138.902 22.723 138.769 22.6348 138.622 22.5772C138.475 22.5195 138.318 22.4937 138.16 22.5014C138.002 22.4935 137.844 22.5192 137.696 22.5767C137.548 22.6342 137.414 22.7223 137.303 22.8352C137.076 23.1016 136.962 23.446 136.986 23.795V26.3954H136.018V21.7413H136.986V22.2748C137.148 22.0787 137.355 21.9246 137.589 21.8256C137.834 21.7186 138.1 21.6637 138.368 21.6646C138.709 21.6591 139.047 21.7377 139.352 21.8933" fill="#1B5633"/>
<path d="M146.872 23.2146C146.75 22.992 146.569 22.8078 146.348 22.6825C146.136 22.5626 145.896 22.5 145.652 22.5007C145.41 22.5002 145.171 22.5644 144.961 22.6866C144.74 22.8153 144.559 23.0026 144.438 23.2277C144.3 23.4846 144.232 23.7727 144.239 24.0638C144.233 24.3566 144.302 24.6462 144.439 24.9048C144.559 25.1316 144.741 25.3203 144.963 25.4494C145.172 25.5717 145.411 25.6359 145.654 25.6352C145.898 25.6357 146.138 25.5703 146.348 25.4459C146.57 25.3134 146.751 25.1221 146.871 24.8931C147.009 24.6331 147.077 24.3425 147.07 24.0486C147.078 23.7584 147.009 23.4713 146.871 23.2159M144.91 21.8802C145.206 21.7346 145.531 21.661 145.86 21.6653C146.253 21.6592 146.639 21.761 146.978 21.9596C147.314 22.1606 147.586 22.4523 147.764 22.8013C147.96 23.1861 148.058 23.6133 148.051 24.0452C148.059 24.4811 147.96 24.9123 147.764 25.3015C147.585 25.6567 147.311 25.9553 146.973 26.1639C146.639 26.3692 146.254 26.476 145.863 26.4721C145.531 26.4783 145.202 26.4058 144.904 26.2606C144.643 26.1352 144.416 25.9498 144.241 25.7196V26.3954H143.277V20.1443H144.241V22.4337C144.417 22.1982 144.647 22.0086 144.912 21.8809" fill="#1B5633"/>
<path d="M152.054 23.6506C152.057 23.489 152.025 23.3287 151.959 23.1812C151.893 23.0336 151.795 22.9025 151.672 22.7972C151.416 22.5807 151.089 22.4666 150.753 22.4765C150.439 22.4697 150.134 22.5829 149.9 22.793C149.657 23.0166 149.507 23.3222 149.477 23.6506H152.054ZM153.025 24.4273H149.469C149.475 24.597 149.515 24.7637 149.586 24.9178C149.657 25.072 149.758 25.2106 149.883 25.3257C150.132 25.5522 150.459 25.6735 150.795 25.6643C151.023 25.6793 151.25 25.6248 151.446 25.5081C151.642 25.3914 151.798 25.2179 151.893 25.0106H152.93C152.793 25.4323 152.526 25.7999 152.168 26.0609C151.767 26.3438 151.285 26.4878 150.795 26.4707C150.377 26.4779 149.965 26.3747 149.599 26.1715C149.249 25.9738 148.961 25.6811 148.77 25.3271C148.564 24.9387 148.461 24.5041 148.47 24.0645C148.461 23.6257 148.562 23.1915 148.763 22.8013C148.949 22.4474 149.233 22.1554 149.583 21.961C149.954 21.7589 150.372 21.657 150.795 21.6653C151.205 21.6581 151.61 21.7571 151.97 21.9527C152.309 22.1398 152.587 22.4196 152.772 22.7592C152.968 23.1265 153.067 23.5381 153.059 23.9547C153.06 24.1129 153.049 24.2709 153.025 24.4273Z" fill="#1B5633"/>
<path d="M155.319 21.8643C155.573 21.7268 155.859 21.6582 156.148 21.6653V22.6618H155.906C155.751 22.6506 155.595 22.6703 155.448 22.7197C155.301 22.769 155.165 22.847 155.048 22.9492C154.824 23.2307 154.72 23.5887 154.757 23.9464V26.3961H153.794V21.7392H154.757V22.4178C154.892 22.1867 155.085 21.9958 155.318 21.865" fill="#1B5633"/>
<path d="M157.532 26.2729C157.26 26.1551 157.022 25.969 156.841 25.7325C156.675 25.5115 156.58 25.2444 156.571 24.9676H157.572C157.58 25.0655 157.61 25.1604 157.659 25.2458C157.708 25.3311 157.774 25.4048 157.854 25.4617C158.041 25.5994 158.269 25.6695 158.501 25.6607C158.722 25.6735 158.942 25.6191 159.131 25.5045C159.199 25.4621 159.255 25.4031 159.294 25.333C159.333 25.2629 159.354 25.184 159.354 25.1037C159.356 25.0215 159.333 24.9406 159.289 24.8713C159.245 24.8021 159.181 24.7475 159.105 24.7147C158.851 24.5989 158.586 24.5064 158.315 24.4382C158.025 24.3631 157.74 24.2708 157.461 24.1618C157.241 24.071 157.046 23.9288 156.891 23.7472C156.723 23.5398 156.637 23.2774 156.651 23.0106C156.649 22.7664 156.726 22.5281 156.87 22.3306C157.031 22.1143 157.249 21.9469 157.5 21.8469C157.798 21.7239 158.119 21.6634 158.441 21.6693C158.902 21.647 159.356 21.7893 159.722 22.0708C159.882 22.2045 160.012 22.3716 160.102 22.5605C160.192 22.7494 160.239 22.9555 160.241 23.1647H159.278C159.273 23.0685 159.248 22.9745 159.205 22.8886C159.161 22.8028 159.1 22.7271 159.025 22.6664C158.847 22.5343 158.629 22.4685 158.408 22.4805C158.204 22.4673 158 22.5175 157.825 22.6243C157.762 22.665 157.71 22.7214 157.674 22.7879C157.639 22.8544 157.621 22.9289 157.622 23.0043C157.621 23.0634 157.633 23.1219 157.657 23.176C157.681 23.23 157.716 23.2782 157.761 23.3174C157.856 23.4052 157.968 23.4727 158.09 23.5157C158.219 23.5645 158.41 23.6251 158.664 23.6975C158.946 23.7701 159.223 23.8625 159.493 23.9739C159.709 24.0661 159.901 24.2063 160.055 24.3836C160.22 24.5856 160.307 24.8403 160.299 25.1009C160.301 25.3523 160.225 25.598 160.08 25.8037C159.922 26.0212 159.707 26.1908 159.458 26.2937C159.16 26.4182 158.839 26.4787 158.517 26.4713C158.178 26.4769 157.843 26.4093 157.532 26.2729Z" fill="#1B5633"/>
<path d="M164.416 23.2285C164.296 23.0053 164.116 22.8194 163.897 22.6908C163.688 22.5683 163.449 22.5041 163.206 22.5049C162.964 22.5042 162.726 22.5669 162.515 22.6867C162.297 22.8128 162.117 22.9969 161.996 23.2188C161.859 23.4732 161.79 23.759 161.797 24.048C161.79 24.3412 161.857 24.6315 161.992 24.8918C162.112 25.1211 162.293 25.3125 162.516 25.4446C162.725 25.5695 162.964 25.6354 163.207 25.6353C163.45 25.6362 163.688 25.572 163.898 25.4494C164.118 25.3185 164.298 25.1291 164.416 24.9021C164.553 24.6446 164.622 24.3562 164.615 24.0646C164.623 23.7733 164.554 23.4852 164.416 23.2285ZM161.099 22.8055C161.281 22.4582 161.555 22.1676 161.891 21.9652C162.227 21.7652 162.611 21.6614 163.002 21.6653C163.334 21.6577 163.663 21.7315 163.96 21.8802C164.215 22.0093 164.439 22.1926 164.615 22.4172V21.7413H165.587V26.3962H164.615V25.7051C164.438 25.9368 164.209 26.1247 163.948 26.2545C163.65 26.405 163.319 26.4804 162.985 26.4742C162.597 26.4779 162.216 26.371 161.886 26.166C161.549 25.9553 161.276 25.6564 161.097 25.3016C160.898 24.9138 160.798 24.483 160.806 24.0473C160.797 23.6148 160.897 23.187 161.097 22.8035" fill="#1B5633"/>
<path d="M173.261 21.8936C173.552 22.0452 173.792 22.2806 173.948 22.5694C174.122 22.9027 174.208 23.275 174.197 23.6509V26.3957H173.24V23.7953C173.264 23.4471 173.152 23.1034 172.927 22.8361C172.817 22.723 172.684 22.6347 172.537 22.5771C172.389 22.5194 172.232 22.4937 172.074 22.5017C171.916 22.4939 171.758 22.5196 171.61 22.5771C171.462 22.6346 171.328 22.7227 171.217 22.8354C170.99 23.1017 170.876 23.4462 170.9 23.7953V26.3957H169.946V23.7953C169.969 23.4471 169.857 23.1034 169.632 22.8361C169.522 22.723 169.389 22.6347 169.242 22.577C169.095 22.5193 168.937 22.4937 168.78 22.5017C168.621 22.4938 168.463 22.5194 168.315 22.5769C168.168 22.6344 168.034 22.7225 167.922 22.8354C167.696 23.1019 167.582 23.4463 167.606 23.7953V26.3957H166.643V21.7415H167.606V22.275C167.767 22.0799 167.973 21.9259 168.205 21.8258C168.45 21.7185 168.715 21.6639 168.982 21.6655C169.329 21.6598 169.672 21.7413 169.979 21.9025C170.269 22.0566 170.504 22.2949 170.655 22.586C170.801 22.3 171.031 22.0657 171.314 21.915C171.608 21.7498 171.94 21.6637 172.277 21.6648C172.619 21.6592 172.957 21.7378 173.262 21.8936" fill="#1B5633"/>
<path d="M178.498 23.2285C178.377 23.0053 178.198 22.8194 177.979 22.6908C177.77 22.5683 177.531 22.5041 177.288 22.5049C177.046 22.5042 176.808 22.5669 176.597 22.6867C176.378 22.8128 176.199 22.9969 176.078 23.2188C175.941 23.4732 175.872 23.759 175.879 24.048C175.872 24.3412 175.939 24.6315 176.074 24.8918C176.194 25.1211 176.375 25.3125 176.598 25.4446C176.807 25.5695 177.045 25.6354 177.289 25.6353C177.532 25.6362 177.77 25.572 177.98 25.4494C178.2 25.3185 178.379 25.1291 178.498 24.9021C178.635 24.6446 178.704 24.3562 178.697 24.0646C178.705 23.7733 178.636 23.4852 178.498 23.2285ZM175.181 22.8055C175.363 22.4582 175.637 22.1676 175.973 21.9652C176.309 21.7652 176.693 21.6614 177.084 21.6653C177.416 21.6577 177.745 21.7315 178.042 21.8802C178.297 22.0093 178.521 22.1926 178.697 22.4172V21.7413H179.669V26.3962H178.697V25.7051C178.519 25.9368 178.291 26.1247 178.03 26.2545C177.731 26.405 177.401 26.4804 177.067 26.4742C176.679 26.4779 176.298 26.371 175.968 26.166C175.631 25.9553 175.358 25.6564 175.178 25.3016C174.98 24.9138 174.88 24.483 174.887 24.0473C174.879 23.6148 174.979 23.187 175.179 22.8035" fill="#1B5633"/>
<path d="M93.8584 36.6538H92.8958V31.999H93.8584V36.6538Z" fill="#1B5633"/>
<path d="M98.2465 32.1516C98.5361 32.3033 98.7731 32.5388 98.9265 32.8275C99.098 33.1615 99.1822 33.5336 99.1711 33.9089V36.6544H98.2168V34.0533C98.2401 33.7053 98.1282 33.3617 97.9044 33.0942C97.7943 32.9814 97.6614 32.8933 97.5147 32.8356C97.3679 32.778 97.2106 32.7521 97.0531 32.7597C96.8947 32.7519 96.7364 32.7775 96.5887 32.835C96.4409 32.8926 96.3069 32.9806 96.1955 33.0935C95.9686 33.3598 95.8548 33.7043 95.8783 34.0533V36.6544H94.9109V31.9996H95.8783V32.5331C96.0406 32.3372 96.2475 32.1832 96.4816 32.0839C96.7273 31.9769 96.9925 31.9221 97.2604 31.9229C97.6024 31.9173 97.9406 31.9958 98.2451 32.1516" fill="#1B5633"/>
<path d="M103.476 33.4848C103.356 33.2604 103.176 33.0733 102.957 32.9437C102.747 32.8212 102.508 32.757 102.265 32.7578C102.023 32.757 101.785 32.8196 101.574 32.9396C101.355 33.0656 101.176 33.2497 101.055 33.4717C100.918 33.7261 100.849 34.0119 100.856 34.3009C100.848 34.596 100.915 34.8883 101.051 35.1502C101.171 35.3794 101.353 35.5708 101.575 35.703C101.784 35.8279 102.023 35.8938 102.266 35.8937C102.509 35.8946 102.748 35.8304 102.957 35.7079C103.177 35.5776 103.357 35.3889 103.476 35.1626C103.613 34.9041 103.681 34.6148 103.675 34.3223C103.682 34.0307 103.614 33.7421 103.476 33.4848ZM100.159 33.0619C100.342 32.7142 100.617 32.4235 100.954 32.2216C101.292 32.0207 101.68 31.9169 102.073 31.9217C102.384 31.9235 102.69 31.9914 102.972 32.1207C103.246 32.2371 103.488 32.4182 103.677 32.6487V30.4021H104.648V36.6539H103.675V35.9525C103.504 36.1882 103.28 36.3793 103.02 36.5095C102.724 36.6615 102.395 36.7382 102.062 36.7327C101.669 36.7357 101.284 36.6277 100.95 36.421C100.612 36.2115 100.337 35.913 100.156 35.5579C99.9579 35.1701 99.8579 34.7393 99.8655 34.3037C99.8567 33.8712 99.9567 33.4435 100.156 33.0598" fill="#1B5633"/>
<path d="M108.419 35.7162C108.641 35.5921 108.824 35.4076 108.947 35.1841C109.089 34.919 109.159 34.6211 109.15 34.3203C109.159 34.023 109.092 33.7284 108.956 33.4641C108.838 33.243 108.659 33.0605 108.44 32.9382C108.229 32.8205 107.991 32.7593 107.749 32.7606C107.507 32.7583 107.269 32.8196 107.058 32.9382C106.843 33.061 106.668 33.2443 106.556 33.4655C106.426 33.7312 106.362 34.0246 106.371 34.3203C106.344 34.7426 106.482 35.1591 106.755 35.4819C106.878 35.6152 107.028 35.7207 107.195 35.7913C107.362 35.862 107.542 35.8962 107.723 35.8917C107.966 35.8932 108.205 35.8328 108.419 35.7162ZM106.531 36.4293C106.178 36.2318 105.889 35.9392 105.695 35.5849C105.485 35.1968 105.381 34.761 105.391 34.3203C105.382 33.8806 105.49 33.4466 105.703 33.0619C105.902 32.7059 106.198 32.4135 106.556 32.2188C106.927 32.0191 107.343 31.9173 107.764 31.9231C108.185 31.9173 108.601 32.0191 108.972 32.2188C109.331 32.4138 109.628 32.7069 109.826 33.064C110.039 33.4478 110.147 33.8813 110.139 34.3203C110.147 34.761 110.036 35.1958 109.817 35.5787C109.611 35.9382 109.308 36.2328 108.943 36.4293C108.568 36.6307 108.148 36.7339 107.723 36.7292C107.306 36.735 106.895 36.6316 106.531 36.4293Z" fill="#1B5633"/>
<path d="M114.213 32.1516C114.503 32.3032 114.74 32.5388 114.893 32.8274C115.065 33.1616 115.149 33.5336 115.138 33.9089V36.6544H114.184V34.0533C114.207 33.7052 114.095 33.3616 113.871 33.0942C113.761 32.9813 113.628 32.8931 113.481 32.8355C113.334 32.7778 113.177 32.752 113.019 32.7597C112.861 32.7519 112.703 32.7776 112.555 32.8351C112.407 32.8926 112.273 32.9807 112.162 33.0935C111.935 33.3599 111.821 33.7043 111.845 34.0533V36.6544H110.877V31.9996H111.845V32.5331C112.007 32.337 112.214 32.183 112.448 32.0839C112.694 31.9769 112.959 31.922 113.227 31.9229C113.569 31.9174 113.906 31.9959 114.211 32.1516" fill="#1B5633"/>
<path d="M119.412 33.9082C119.415 33.7466 119.383 33.5864 119.317 33.4389C119.251 33.2914 119.153 33.1602 119.031 33.0548C118.774 32.8383 118.447 32.7241 118.112 32.7341C117.797 32.7273 117.492 32.8405 117.258 33.0506C117.016 33.2742 116.865 33.5798 116.835 33.9082H119.412ZM120.384 34.6856H116.827C116.833 34.8553 116.873 35.022 116.945 35.1762C117.016 35.3304 117.117 35.4689 117.242 35.5839C117.49 35.8105 117.817 35.9319 118.154 35.9225C118.382 35.9376 118.609 35.8831 118.805 35.7662C119.001 35.6493 119.157 35.4756 119.252 35.2681H120.288C120.151 35.69 119.884 36.0577 119.526 36.3185C119.125 36.6014 118.644 36.7453 118.154 36.7283C117.736 36.7355 117.323 36.6323 116.958 36.4291C116.607 36.2317 116.319 35.9389 116.128 35.5846C115.922 35.1963 115.819 34.7616 115.828 34.3221C115.819 33.8832 115.92 33.4489 116.121 33.0589C116.307 32.705 116.592 32.4132 116.941 32.2193C117.313 32.0166 117.731 31.9145 118.154 31.9228C118.564 31.9157 118.968 32.0147 119.329 32.2103C119.667 32.3977 119.945 32.6776 120.13 33.0174C120.327 33.3847 120.426 33.7964 120.418 34.2129C120.419 34.3714 120.407 34.5289 120.384 34.6856Z" fill="#1B5633"/>
<path d="M121.857 36.5315C121.584 36.4136 121.346 36.2275 121.166 35.9911C120.999 35.7701 120.905 35.5029 120.895 35.2261H121.897C121.905 35.3241 121.935 35.419 121.983 35.5044C122.032 35.5897 122.099 35.6634 122.179 35.7202C122.366 35.8579 122.594 35.9281 122.826 35.9192C123.047 35.9325 123.267 35.878 123.456 35.763C123.524 35.7208 123.58 35.6618 123.62 35.5917C123.659 35.5216 123.679 35.4426 123.679 35.3622C123.681 35.28 123.659 35.1992 123.614 35.1299C123.57 35.0606 123.506 35.0061 123.431 34.9732C123.176 34.8574 122.911 34.7649 122.64 34.6968C122.35 34.6217 122.065 34.5294 121.787 34.4204C121.566 34.3297 121.371 34.1875 121.217 34.0057C121.048 33.7985 120.962 33.5361 120.975 33.2691C120.974 33.0249 121.051 32.7867 121.194 32.5891C121.356 32.373 121.574 32.2056 121.824 32.1054C122.122 31.9822 122.443 31.9218 122.765 31.9278C123.226 31.9055 123.68 32.0478 124.046 32.3293C124.206 32.463 124.336 32.6301 124.426 32.819C124.516 33.0079 124.563 33.2141 124.565 33.4232H123.603C123.598 33.3271 123.573 33.233 123.529 33.1472C123.486 33.0613 123.425 32.9856 123.35 32.925C123.172 32.7929 122.954 32.7271 122.733 32.7391C122.528 32.7259 122.325 32.7761 122.15 32.8828C122.087 32.9236 122.035 32.9799 121.999 33.0464C121.964 33.113 121.946 33.1875 121.947 33.2629C121.946 33.3219 121.958 33.3805 121.982 33.4345C122.006 33.4886 122.041 33.5368 122.085 33.5759C122.18 33.6637 122.292 33.7314 122.414 33.7749C122.544 33.821 122.735 33.8814 122.988 33.956C123.271 34.0286 123.548 34.121 123.818 34.2324C124.034 34.3248 124.226 34.4649 124.38 34.6422C124.545 34.8441 124.632 35.0988 124.624 35.3595C124.626 35.6109 124.55 35.8566 124.405 36.0623C124.247 36.2798 124.032 36.4494 123.783 36.5522C123.485 36.6767 123.164 36.7372 122.841 36.7298C122.503 36.7355 122.167 36.6678 121.857 36.5315Z" fill="#1B5633"/>
<path d="M126.415 36.6538H125.452V31.999H126.415V36.6538Z" fill="#1B5633"/>
<path d="M130.761 33.486C130.64 33.2628 130.461 33.0769 130.242 32.9484C130.032 32.8258 129.794 32.7616 129.551 32.7625C129.309 32.7618 129.07 32.8244 128.86 32.9442C128.641 33.0703 128.461 33.2545 128.34 33.4763C128.203 33.7308 128.135 34.0166 128.142 34.3056C128.134 34.599 128.201 34.8895 128.337 35.15C128.457 35.3793 128.638 35.5707 128.861 35.7028C129.069 35.8277 129.308 35.8937 129.552 35.8936C129.794 35.8944 130.033 35.8303 130.243 35.7077C130.463 35.5766 130.642 35.3869 130.761 35.1597C130.898 34.9021 130.966 34.6138 130.96 34.3222C130.967 34.0309 130.899 33.7427 130.761 33.486ZM127.444 33.0631C127.626 32.7158 127.9 32.4251 128.236 32.2228C128.572 32.0227 128.956 31.9189 129.347 31.9229C129.679 31.9154 130.008 31.9891 130.305 32.1378C130.56 32.267 130.783 32.4502 130.96 32.6747V31.9989H131.931V36.6537H130.96V35.9627C130.782 36.1946 130.554 36.3826 130.292 36.512C129.994 36.6626 129.664 36.738 129.33 36.7318C128.942 36.7356 128.56 36.6287 128.231 36.4236C127.894 36.2128 127.621 35.9139 127.441 35.5591C127.242 35.1714 127.142 34.7405 127.15 34.3049C127.141 33.8723 127.242 33.4445 127.442 33.061" fill="#1B5633"/>
<path d="M57.0036 30.0344C54.967 30.0318 53.0144 29.2216 51.5743 27.7815C50.1342 26.3413 49.324 24.3888 49.3214 22.3521C49.3236 20.3153 50.1337 18.3625 51.5739 16.9222C53.0141 15.4818 54.9668 14.6716 57.0036 14.6692C59.0406 14.6714 60.9935 15.4816 62.4338 16.9219C63.8742 18.3623 64.6844 20.3152 64.6866 22.3521C64.684 24.3889 63.8737 26.3416 62.4334 27.7817C60.9931 29.2219 59.0404 30.032 57.0036 30.0344ZM57.0036 9.02002C53.4691 9.02423 50.0807 10.4303 47.5815 12.9296C45.0824 15.429 43.6767 18.8177 43.6729 22.3521C43.6729 22.3943 43.6729 22.4351 43.6729 22.4765C43.6729 22.4883 43.6694 22.5 43.6694 22.5118V45.5868C43.6703 45.9617 43.8198 46.3209 44.0851 46.5858C44.3504 46.8506 44.7098 46.9996 45.0847 47H47.9089C48.2833 46.9989 48.6421 46.8496 48.9067 46.5848C49.1714 46.32 49.3205 45.9612 49.3214 45.5868V33.2373C51.5663 34.8306 54.2515 35.6855 57.0043 35.6836C60.5387 35.6794 63.9271 34.2734 66.4262 31.7742C68.9253 29.275 70.331 25.8865 70.3351 22.3521C70.3312 18.8175 68.9255 15.4288 66.4262 12.9294C63.9269 10.43 60.5382 9.02404 57.0036 9.02002Z" fill="#1B5633"/>
<path d="M13.3314 31.5036C11.2945 31.501 9.3418 30.6906 7.90162 29.2502C6.46144 27.8097 5.6514 25.8569 5.64921 23.82C5.65177 21.7833 6.46196 19.8308 7.9021 18.3906C9.34225 16.9505 11.2948 16.1403 13.3314 16.1377C15.3682 16.1401 17.3209 16.9502 18.7612 18.3904C20.2015 19.8305 21.0118 21.7832 21.0144 23.82C21.0122 25.857 20.202 27.81 18.7617 29.2504C17.3214 30.6909 15.3685 31.5012 13.3314 31.5036ZM26.6629 23.8206C26.659 20.286 25.2533 16.8973 22.754 14.3979C20.2547 11.8985 16.866 10.4925 13.3314 10.4885C9.79695 10.4925 6.40839 11.8984 3.90913 14.3977C1.40987 16.8969 0.00402373 20.2855 0 23.82C0.00384086 27.3546 1.40961 30.7433 3.90889 33.2427C6.40816 35.7421 9.79683 37.1481 13.3314 37.1521C16.0843 37.1543 18.7695 36.2993 21.0144 34.7058V35.1564C21.0154 35.5306 21.1646 35.8893 21.4293 36.1539C21.6939 36.4186 22.0526 36.5678 22.4268 36.5688H25.2511C25.6252 36.5676 25.9837 36.4183 26.2482 36.1537C26.5127 35.8891 26.6618 35.5305 26.6629 35.1564V23.8234V23.8206Z" fill="#1B5633"/>
<path d="M71.8713 12.6371C71.8724 12.2628 72.0216 11.9042 72.2863 11.6395C72.5509 11.3749 72.9095 11.2257 73.2838 11.2246H76.1088C76.483 11.2257 76.8415 11.3749 77.1061 11.6396C77.3706 11.9042 77.5196 12.2629 77.5205 12.6371V35.1572C77.5195 35.5313 77.3704 35.8899 77.1059 36.1545C76.8414 36.4191 76.4829 36.5684 76.1088 36.5697H73.2838C72.9095 36.5686 72.5509 36.4194 72.2863 36.1548C72.0216 35.8901 71.8724 35.5315 71.8713 35.1572V12.6371Z" fill="#1B5633"/>
<path d="M52.1271 5.46746C50.8923 3.77466 49.2753 2.39723 47.4078 1.44718C45.5402 0.497127 43.4748 0.00129216 41.3794 0C37.8447 0.00365798 34.4558 1.40935 31.9563 3.90864C29.4567 6.40794 28.0507 9.79671 28.0466 13.3314V35.1571C28.0479 35.5312 28.1972 35.8897 28.4618 36.1542C28.7264 36.4187 29.0849 36.5677 29.4591 36.5688H32.2834C32.6575 36.5677 33.016 36.4187 33.2807 36.1542C33.5453 35.8897 33.6946 35.5312 33.6958 35.1571V22.1055H40.7706C41.1449 22.1044 41.5036 21.9552 41.7682 21.6906C42.0329 21.4259 42.182 21.0673 42.1831 20.693V17.8681C42.182 17.4938 42.0329 17.1352 41.7682 16.8705C41.5036 16.6059 41.1449 16.4567 40.7706 16.4556H33.6965V13.3314C33.6987 11.2945 34.5089 9.34156 35.9492 7.90121C37.3896 6.46086 39.3425 5.65071 41.3794 5.64851C42.4578 5.64838 43.5241 5.87608 44.5083 6.3167C45.4926 6.75732 46.3726 7.40092 47.0908 8.20534C47.3023 8.44906 47.5961 8.60639 47.9161 8.64731C48.2362 8.68822 48.5601 8.60986 48.826 8.42716L51.6054 7.12042C52.2556 6.72238 52.5466 6.15297 52.1278 5.46677" fill="#1B5633"/>
</g>
<defs>
<clipPath id="clip0_302_3854">
<rect width="179.669" height="47" fill="white"/>
</clipPath>
</defs>
</svg>
