<?xml version="1.0" encoding="UTF-8"?>
<!-- Generator: visioncortex VTracer 0.6.3 -->
<svg version="1.1" xmlns="http://www.w3.org/2000/svg" width="1280" height="1280">
<path d="M0 0 C1.04 0.27 1.04 0.27 2.1 0.55 C11.81 3.12 21.31 6.12 30.81 9.38 C32.34 9.88 33.87 10.38 35.4 10.88 C54.05 17.1 72.2 24.55 89.94 33.01 C92.82 34.38 95.71 35.72 98.61 37.05 C111.51 43.06 123.93 49.71 136.23 56.87 C138.54 58.22 140.86 59.54 143.19 60.86 C171.62 77.08 198.32 96.64 223.13 117.94 C224.9 119.45 226.68 120.95 228.46 122.45 C234.15 127.27 239.71 132.08 244.89 137.46 C246.71 139.27 248.58 140.94 250.54 142.61 C254.83 146.34 258.87 150.28 262.88 154.31 C263.54 154.98 264.21 155.64 264.9 156.33 C268.82 160.25 272.54 164.29 276.17 168.48 C278.6 171.28 281.15 173.98 283.69 176.69 C288.11 181.45 292.35 186.32 296.42 191.39 C298.19 193.61 299.99 195.8 301.8 197.98 C309.92 207.81 317.48 217.95 324.81 228.38 C325.29 229.05 325.77 229.73 326.26 230.42 C365.48 286.11 394.75 348.4 411.81 414.38 C411.98 415.01 412.14 415.65 412.31 416.31 C421.48 451.92 426.82 487.75 429.81 524.38 C429.9 525.43 429.98 526.48 430.07 527.56 C430.53 533.5 430.73 539.42 430.81 545.38 C430.82 546.01 430.83 546.64 430.84 547.29 C432.27 640.45 414.37 729.84 356.81 850.38 C356.06 851.71 356.06 851.71 355.28 853.07 C340.09 879.69 322.77 905.06 303.22 928.67 C301.3 931 299.43 933.37 297.56 935.75 C294.18 939.99 290.6 944.02 286.95 948.03 C285.14 950.01 283.38 952.03 281.62 954.06 C273.24 963.65 264.42 972.85 255.44 981.88 C254.8 982.52 254.16 983.17 253.49 983.83 C249.69 987.63 245.76 991.23 241.69 994.75 C239.07 997.02 236.54 999.38 234 1001.75 C228.46 1006.87 222.7 1011.66 216.81 1016.38 C215.68 1017.3 214.55 1018.22 213.42 1019.14 C191.71 1036.83 168.24 1053.31 143.9 1067.18 C142.35 1068.07 140.81 1068.96 139.27 1069.85 C113.44 1084.85 86.72 1097.74 58.81 1108.38 C57.16 1109.01 57.16 1109.01 55.47 1109.65 C-4.66 1132.35 -69.76 1146.34 -134.17 1146.58 C-136.09 1146.59 -136.09 1146.59 -138.05 1146.6 C-142.16 1146.62 -146.27 1146.62 -150.38 1146.62 C-151.08 1146.63 -151.78 1146.63 -152.5 1146.63 C-174.16 1146.63 -195.65 1146.29 -217.17 1143.62 C-219.26 1143.37 -221.35 1143.12 -223.44 1142.87 C-311.39 1132.31 -396.45 1101.33 -484.19 1043.38 C-485.66 1042.34 -487.12 1041.3 -488.59 1040.27 C-498.18 1033.47 -507.39 1026.33 -516.43 1018.83 C-518.96 1016.74 -521.51 1014.69 -524.06 1012.62 C-528.36 1009.11 -532.51 1005.46 -536.61 1001.71 C-538.72 999.8 -540.86 997.92 -543.01 996.05 C-547.04 992.53 -550.97 988.91 -554.88 985.25 C-555.56 984.6 -556.25 983.96 -556.96 983.29 C-565.38 975.35 -573.83 967.36 -581.32 958.52 C-583.33 956.21 -585.4 953.98 -587.49 951.75 C-593.33 945.5 -598.85 939.07 -604.19 932.38 C-605.11 931.25 -606.03 930.12 -606.95 928.99 C-647.3 879.45 -684.78 819.12 -702.62 757.44 C-703.9 753.12 -705.5 749 -707.21 744.83 C-709.22 739.78 -710.87 734.65 -712.19 729.38 C-712.68 727.71 -713.18 726.04 -713.69 724.38 C-714.6 721.39 -715.43 718.41 -716.19 715.38 C-716.66 713.58 -717.13 711.78 -717.61 709.98 C-724.93 681.8 -730.17 653.35 -733.19 624.38 C-733.27 623.57 -733.36 622.77 -733.45 621.95 C-735.31 604.51 -735.53 587.13 -735.5 569.62 C-735.5 566.51 -735.51 563.41 -735.52 560.31 C-735.69 531.98 -733.99 504.06 -729.5 476.06 C-729.31 474.87 -729.31 474.87 -729.12 473.66 C-715.33 386.25 -681.29 301.67 -630.19 229.38 C-629.65 228.61 -629.12 227.85 -628.57 227.07 C-621.31 216.76 -613.69 206.83 -605.64 197.13 C-603.57 194.62 -601.54 192.09 -599.5 189.56 C-595.66 184.87 -591.63 180.39 -587.53 175.93 C-585.52 173.74 -583.56 171.51 -581.62 169.25 C-578.38 165.51 -574.89 162.06 -571.37 158.59 C-569.4 156.59 -567.56 154.53 -565.75 152.38 C-562.36 148.42 -558.57 145.04 -554.67 141.6 C-552.38 139.55 -550.21 137.44 -548.06 135.25 C-544.27 131.41 -540.29 127.87 -536.19 124.38 C-535.23 123.55 -534.27 122.73 -533.29 121.88 C-526 115.64 -518.57 109.61 -510.96 103.75 C-509.27 102.44 -507.59 101.11 -505.91 99.79 C-484.72 83.31 -461.66 68.37 -438.19 55.38 C-437.62 55.06 -437.04 54.74 -436.46 54.41 C-368.58 16.84 -294.92 -7.26 -206.19 -17.62 C-204.51 -17.8 -204.51 -17.8 -202.8 -17.98 C-134.95 -24.8 -65.74 -17.33 0 0 Z M-177.19 -18.62 C-177.19 -18.3 -177.19 -17.97 -177.19 -17.62 C-174.55 -17.62 -171.91 -17.62 -169.19 -17.62 C-169.19 -17.95 -169.19 -18.28 -169.19 -18.62 C-171.83 -18.62 -174.47 -18.62 -177.19 -18.62 Z M-134.19 -18.62 C-134.19 -18.3 -134.19 -17.97 -134.19 -17.62 C-131.55 -17.62 -128.91 -17.62 -126.19 -17.62 C-126.19 -17.95 -126.19 -18.28 -126.19 -18.62 C-128.83 -18.62 -131.47 -18.62 -134.19 -18.62 Z M-194.19 -17.62 C-190.19 -16.62 -190.19 -16.62 -190.19 -16.62 Z M-113.19 -17.62 C-109.19 -16.62 -109.19 -16.62 -109.19 -16.62 Z M-729.19 480.38 C-728.19 482.38 -728.19 482.38 -728.19 482.38 Z M-731.19 495.38 C-730.19 498.38 -730.19 498.38 -730.19 498.38 Z M-732.19 504.38 C-731.19 507.38 -731.19 507.38 -731.19 507.38 Z M-733.19 515.38 C-732.19 519.38 -732.19 519.38 -732.19 519.38 Z M-734.19 528.38 C-734.19 530.68 -734.19 533 -734.19 535.38 C-733.86 535.38 -733.53 535.38 -733.19 535.38 C-733.19 533.07 -733.19 530.75 -733.19 528.38 C-733.52 528.38 -733.85 528.38 -734.19 528.38 Z M-734.19 594.38 C-734.19 596.36 -734.19 598.34 -734.19 600.38 C-733.86 600.38 -733.53 600.38 -733.19 600.38 C-733.19 598.39 -733.19 596.41 -733.19 594.38 C-733.52 594.38 -733.85 594.38 -734.19 594.38 Z M-733.19 610.38 C-732.19 613.38 -732.19 613.38 -732.19 613.38 Z M-732.19 621.38 C-731.19 624.38 -731.19 624.38 -731.19 624.38 Z M-731.19 630.38 C-730.19 633.38 -730.19 633.38 -730.19 633.38 Z M-730.19 639.38 C-729.19 641.38 -729.19 641.38 -729.19 641.38 Z M-729.19 646.38 C-728.19 648.38 -728.19 648.38 -728.19 648.38 Z M-728.19 653.38 C-727.19 655.38 -727.19 655.38 -727.19 655.38 Z M-727.19 659.38 C-726.19 661.38 -726.19 661.38 -726.19 661.38 Z " fill="#FAFCFC" transform="translate(799.1875,78.625)"/>
<path d="M0 0 C1.2 -0 2.41 -0 3.65 -0 C22.32 0.01 40.56 0.61 59.06 3.25 C60.95 3.51 60.95 3.51 62.87 3.77 C108.3 10.1 152.33 23.31 194.06 42.25 C194.83 42.59 195.6 42.94 196.39 43.29 C239.1 62.47 275.32 90.47 311.18 120.05 C314.3 122.62 317.43 125.19 320.56 127.75 C325.24 131.57 329.9 135.41 334.56 139.25 C336.74 141.04 338.91 142.83 341.09 144.63 C342.31 145.63 343.53 146.64 344.75 147.64 C346.19 148.83 347.63 150.01 349.06 151.19 C349.91 151.88 350.75 152.58 351.62 153.29 C354.77 155.81 358.01 158.2 361.29 160.55 C363.59 162.75 364.51 164.08 365.06 167.25 C363.64 169.67 362.32 171.47 360.5 173.56 C360 174.17 359.5 174.77 358.98 175.39 C357.91 176.69 356.83 177.98 355.74 179.26 C353.52 181.89 351.36 184.56 349.19 187.24 C347.55 189.26 345.9 191.29 344.25 193.31 C341.31 196.93 338.43 200.58 335.56 204.25 C331.08 209.99 326.5 215.65 321.9 221.29 C318.42 225.55 315 229.85 311.62 234.19 C306.94 240.19 302.11 246.07 297.26 251.93 C293.15 256.9 289.14 261.93 285.18 267.01 C281.69 271.47 278.14 275.87 274.56 280.25 C269.11 286.93 263.76 293.68 258.45 300.47 C255.93 303.69 253.4 306.91 250.88 310.12 C249.94 311.31 249.01 312.49 248.08 313.68 C247.08 314.95 247.08 314.95 246.06 316.25 C241.99 314.86 239.21 312.96 235.94 310.19 C234.98 309.38 234.01 308.58 233.02 307.75 C232.05 306.92 231.07 306.1 230.06 305.25 C228.23 303.75 226.4 302.25 224.56 300.75 C213.56 291.75 202.56 282.75 191.56 273.75 C190.65 273 189.73 272.25 188.79 271.48 C187.02 270.04 185.26 268.59 183.49 267.14 C181.7 265.67 179.9 264.21 178.11 262.75 C175.9 260.93 173.7 259.1 171.52 257.25 C118.57 212.78 47.89 190.22 -20.98 195.75 C-55.11 198.99 -87.9 208.08 -118.53 223.55 C-119.22 223.89 -119.91 224.23 -120.62 224.59 C-122.42 225.49 -124.2 226.42 -125.98 227.36 C-128.94 228.25 -128.94 228.25 -131.44 227.44 C-134.99 224.33 -137.54 220.72 -140.25 216.88 C-141.49 215.15 -142.73 213.43 -143.97 211.71 C-144.94 210.37 -144.94 210.37 -145.93 209 C-149.27 204.42 -152.73 199.93 -156.19 195.44 C-160.93 189.24 -165.59 183.01 -170.08 176.62 C-173.82 171.34 -177.75 166.2 -181.69 161.06 C-189.82 150.45 -197.75 139.7 -205.65 128.92 C-212.37 119.74 -219.16 110.61 -226.06 101.56 C-226.73 100.69 -227.39 99.81 -228.08 98.91 C-231.24 94.76 -234.42 90.63 -237.65 86.54 C-238.22 85.81 -238.79 85.09 -239.37 84.34 C-240.43 82.98 -241.49 81.64 -242.57 80.31 C-245.96 75.93 -245.96 75.93 -245.84 72.74 C-244.66 69.49 -243.39 68.82 -240.4 67.12 C-239.44 66.57 -238.48 66.01 -237.49 65.44 C-236.44 64.86 -235.39 64.28 -234.31 63.69 C-233.23 63.07 -232.14 62.46 -231.03 61.83 C-227.68 59.95 -224.31 58.1 -220.94 56.25 C-219.97 55.71 -219 55.18 -218 54.62 C-151.6 18.07 -75.53 0.04 0 0 Z " fill="#369DA9" transform="translate(648.9375,173.75)"/>
<path d="M0 0 C1.26 1.41 1.26 1.41 2.7 3.42 C3.24 4.17 3.78 4.92 4.34 5.69 C4.93 6.51 5.52 7.34 6.12 8.19 C7.39 9.94 8.66 11.68 9.93 13.43 C10.59 14.34 11.26 15.26 11.94 16.2 C15.31 20.79 18.78 25.3 22.25 29.81 C27 36.01 31.65 42.24 36.14 48.63 C39.88 53.91 43.81 59.05 47.75 64.19 C55.88 74.8 63.81 85.55 71.71 96.33 C78.39 105.45 85.13 114.52 92 123.5 C97.36 130.51 102.68 137.54 107.94 144.62 C108.53 145.42 109.13 146.22 109.75 147.05 C110.29 147.79 110.84 148.53 111.4 149.29 C111.88 149.94 112.36 150.58 112.86 151.25 C114 153 114 153 115 156 C114.18 156.63 113.36 157.26 112.51 157.91 C102.93 165.24 93.42 172.57 84.5 180.72 C82.84 182.24 81.16 183.74 79.46 185.22 C73.5 190.45 68.14 195.96 63 202 C62.53 202.55 62.05 203.1 61.57 203.67 C47.6 219.99 35.82 237.9 26 257 C25.38 258.2 25.38 258.2 24.75 259.42 C14.15 280.2 6.76 301.77 1.64 324.51 C0.9 327.4 -0.05 330.18 -1 333 C-24.32 329.16 -47.61 325.18 -70.87 321.01 C-73.3 320.57 -75.73 320.13 -78.17 319.7 C-85.81 318.33 -93.46 316.96 -101.11 315.59 C-109.87 314.01 -118.63 312.45 -127.39 310.88 C-134.23 309.66 -141.08 308.44 -147.92 307.21 C-151.98 306.48 -156.05 305.75 -160.11 305.03 C-163.9 304.36 -167.69 303.68 -171.47 302.99 C-172.86 302.74 -174.25 302.49 -175.64 302.25 C-177.53 301.91 -179.42 301.57 -181.31 301.23 C-182.36 301.04 -183.42 300.85 -184.51 300.65 C-187 300 -187 300 -189 298 C-184.34 216.69 -131.69 125.93 -77.41 67.62 C-75.53 65.57 -73.71 63.49 -71.89 61.38 C-67.64 56.51 -63.09 51.94 -58.51 47.38 C-57.06 45.94 -55.62 44.49 -54.18 43.04 C-48.96 37.82 -43.63 32.78 -38 28 C-37.04 27.15 -36.07 26.31 -35.08 25.44 C-5.56 0 -5.56 0 0 0 Z " fill="#3DB9A3" transform="translate(384,259)"/>
<path d="M0 0 C4.67 0.51 7.77 2.65 11.5 5.31 C47.83 30.24 89.53 45.11 133.42 49.06 C134.49 49.16 135.55 49.26 136.65 49.36 C137.59 49.44 138.53 49.51 139.5 49.59 C142 50 142 50 146 52 C146 115.69 146 179.38 146 245 C107.37 242.66 107.37 242.66 94.62 240.75 C93.89 240.64 93.15 240.54 92.4 240.43 C78.09 238.36 64.03 235.51 50 232 C48.96 231.75 47.92 231.49 46.84 231.23 C17.49 223.99 -10.58 213.64 -38 201 C-38.93 200.57 -39.85 200.15 -40.81 199.71 C-62.58 189.57 -83.3 176.69 -103 163 C-103.68 162.53 -104.37 162.06 -105.08 161.57 C-107.06 160.2 -109.03 158.82 -111 157.44 C-111.58 157.03 -112.16 156.63 -112.76 156.21 C-115.47 154.28 -117.13 152.8 -119 150 C-117.78 148.51 -117.78 148.51 -116.54 146.99 C-110.69 139.81 -104.87 132.6 -99.17 125.29 C-95.65 120.8 -92.05 116.36 -88.44 111.94 C-84.55 107.18 -80.73 102.39 -77 97.5 C-72.74 91.91 -68.34 86.46 -63.89 81.02 C-58.5 74.41 -53.24 67.72 -48 61 C-41.67 52.89 -35.27 44.86 -28.77 36.89 C-24.62 31.8 -20.61 26.61 -16.63 21.39 C-12.93 16.57 -9.06 11.89 -5.2 7.2 C-4.67 6.55 -4.14 5.91 -3.59 5.24 C-3.11 4.66 -2.64 4.08 -2.15 3.49 C-0.91 1.99 -0.91 1.99 0 0 Z " fill="#72C263" transform="translate(489,863)"/>
<path d="M0 0 C0.8 0.14 1.59 0.28 2.41 0.42 C5.08 0.9 7.75 1.4 10.42 1.9 C12.33 2.24 14.24 2.58 16.14 2.92 C21.32 3.85 26.49 4.8 31.65 5.75 C37.04 6.74 42.43 7.71 47.81 8.68 C56.77 10.3 65.72 11.93 74.67 13.56 C87.92 15.98 101.18 18.36 114.44 20.74 C116.53 21.11 118.61 21.48 120.7 21.86 C123.75 22.41 126.8 22.95 129.85 23.5 C140.29 25.37 150.73 27.25 161.17 29.13 C162 29.28 162.84 29.43 163.7 29.59 C168.22 30.4 172.74 31.22 177.26 32.03 C177.26 32.69 177.26 33.35 177.26 34.03 C178.25 34.36 179.24 34.69 180.26 35.03 C179.93 35.36 179.6 35.69 179.26 36.03 C179.01 38.58 178.83 41.1 178.7 43.66 C178.66 44.43 178.61 45.21 178.57 46 C176.44 89.09 184.19 133.03 202.68 172.12 C203 172.81 203.33 173.5 203.66 174.21 C203.94 174.81 204.23 175.4 204.52 176.02 C205.48 178.64 205.82 181.28 206.26 184.03 C205.58 184.26 204.9 184.49 204.19 184.73 C161.99 198.96 161.99 198.96 119.9 213.53 C101.47 220 82.98 226.27 64.47 232.51 C62.77 233.09 62.77 233.09 61.02 233.68 C58.81 234.43 56.59 235.18 54.37 235.92 C49.57 237.54 44.79 239.19 40.05 240.96 C39.27 241.25 38.49 241.54 37.68 241.84 C36.28 242.36 34.88 242.89 33.49 243.44 C29.39 244.97 26.44 245.46 22.26 244.03 C20.88 242.19 20.88 242.19 19.99 239.75 C19.47 238.38 19.47 238.38 18.94 236.99 C18.59 235.99 18.24 235 17.88 233.97 C17.31 232.42 17.31 232.42 16.73 230.83 C15.54 227.58 14.4 224.31 13.26 221.03 C12.91 220.06 12.56 219.08 12.2 218.08 C-3.74 173.37 -13.75 125 -13.94 77.39 C-13.95 76.22 -13.96 75.06 -13.96 73.86 C-13.98 70.12 -13.99 66.39 -13.99 62.66 C-13.99 61.39 -13.99 60.12 -13.99 58.82 C-13.99 43.89 -13.87 29.03 -12.43 14.16 C-12.31 12.93 -12.19 11.7 -12.07 10.43 C-11.19 2.76 -11.19 2.76 -9.69 0.33 C-6.55 -1.76 -3.5 -0.68 0 0 Z " fill="#45C0C4" transform="translate(200.74072265625,580.966064453125)"/>
<path d="M0 0 C5.72 1.12 10.59 4.44 15.62 7.25 C16.69 7.82 17.75 8.4 18.84 8.99 C19.86 9.55 20.87 10.12 21.91 10.7 C22.84 11.22 23.77 11.73 24.73 12.25 C27.48 14.37 28.34 15.59 29 19 C28.06 21.77 28.06 21.77 26.37 24.81 C25.75 25.96 25.14 27.1 24.5 28.28 C24.17 28.88 23.83 29.49 23.48 30.11 C21.69 33.35 19.96 36.63 18.23 39.91 C17.87 40.58 17.52 41.26 17.15 41.95 C-16.43 105.64 -35.94 182.71 -36.2 254.71 C-36.21 255.98 -36.22 257.25 -36.22 258.56 C-36.24 262.64 -36.25 266.73 -36.25 270.81 C-36.25 271.86 -36.25 271.86 -36.25 272.92 C-36.26 293.77 -35.95 314.32 -33 335 C-32.82 336.3 -32.65 337.6 -32.46 338.93 C-19.91 430.38 15.17 519.27 81.03 599.32 C83.83 602.59 86.52 605.93 89.19 609.31 C93.86 615.08 99.11 620.24 104.42 625.43 C107.87 628.81 111.01 632.2 114 636 C115.16 637.08 116.34 638.12 117.56 639.12 C121 642.05 124.16 645.15 127.31 648.38 C131.66 652.8 136.23 656.78 141.08 660.64 C143.14 662.31 145.15 663.99 147.14 665.73 C155.94 673.47 165.16 680.48 174.67 687.32 C176.81 688.87 178.95 690.43 181.08 691.99 C200.92 706.44 222.25 718.68 244 730 C244.92 730.48 245.84 730.97 246.79 731.46 C281.81 749.72 320.19 764.22 358.83 772.5 C364.81 773.81 364.81 773.81 367 776 C367.24 783.1 365.15 790.29 363.44 797.12 C363.2 798.08 362.97 799.04 362.73 800.02 C362.16 802.35 361.58 804.68 361 807 C355.57 808.83 350.43 806.68 345.06 805.31 C343.23 804.85 343.23 804.85 341.35 804.37 C264.35 784.4 190.99 747.28 129.75 696.44 C127.27 694.4 124.76 692.39 122.25 690.38 C117.33 686.35 112.67 682.1 108.02 677.77 C105.86 675.76 103.64 673.83 101.39 671.91 C96.21 667.39 91.38 662.53 86.53 657.66 C84.94 656.07 83.35 654.48 81.76 652.89 C76.29 647.43 71 641.89 66 636 C64.96 634.81 63.91 633.62 62.86 632.43 C55.61 624.17 48.65 615.75 42 607 C41.48 606.32 40.96 605.63 40.42 604.92 C23.17 582.16 7.88 558.26 -5.79 533.2 C-6.91 531.16 -8.04 529.13 -9.18 527.1 C-40.3 470.6 -58.54 406.23 -67.25 342.56 C-67.4 341.46 -67.55 340.37 -67.71 339.24 C-70.57 317.04 -71.37 294.92 -71.31 272.56 C-71.31 271.19 -71.31 269.81 -71.31 268.44 C-71.27 247.82 -70.73 227.46 -68 207 C-67.83 205.65 -67.65 204.3 -67.48 202.96 C-60.64 150.42 -46.72 98.38 -25 50 C-24.47 48.81 -23.93 47.62 -23.38 46.4 C-16.24 30.56 -8.68 15.06 0 0 Z " fill="#000100" transform="translate(170,369)"/>
<path d="M0 0 C2 2 2 2 2.23 5.62 C2.23 7.18 2.22 8.73 2.2 10.29 C2.19 11.11 2.19 11.93 2.19 12.77 C2.18 15.39 2.15 18.01 2.12 20.62 C2.11 22.4 2.11 24.17 2.1 25.95 C2.08 30.3 2.04 34.65 2 39 C1.27 38.6 0.53 38.19 -0.22 37.78 C-1.68 36.98 -1.68 36.98 -3.17 36.16 C-4.13 35.64 -5.09 35.11 -6.08 34.57 C-24.39 24.73 -43.99 19.8 -64.32 25.74 C-81.44 31.6 -93.69 42.24 -101.91 58.38 C-105.88 66.62 -108.17 75.05 -110 84 C-110.19 84.92 -110.38 85.84 -110.58 86.79 C-113.39 108.34 -110.48 133.75 -97.06 151.53 C-86.69 163.97 -75.21 172.95 -59 176 C-54.53 176.39 -50.11 176.42 -45.62 176.38 C-44.5 176.39 -43.37 176.4 -42.2 176.41 C-27.14 176.36 -10.77 172.52 0.48 161.77 C18.36 140.85 15.14 111.49 15.32 85.75 C15.34 83.15 15.36 80.55 15.38 77.95 C15.43 71.85 15.47 65.76 15.52 59.67 C15.57 52.72 15.62 45.76 15.68 38.81 C15.79 24.54 15.9 10.27 16 -4 C18.55 -5.28 20.35 -5.13 23.21 -5.13 C24.31 -5.13 25.4 -5.14 26.53 -5.14 C28.32 -5.14 28.32 -5.14 30.15 -5.13 C31.4 -5.13 32.64 -5.13 33.92 -5.14 C36.57 -5.14 39.22 -5.14 41.88 -5.13 C45.83 -5.12 49.79 -5.13 53.75 -5.14 C66.47 -5.14 79.18 -5.02 91.89 -4.57 C92.98 -4.53 94.07 -4.5 95.2 -4.46 C115.02 -3.68 133.42 0.92 147.69 15.5 C158.25 28.27 161.45 42.85 160 59 C157.42 70.32 150.65 80.42 143 89 C144.3 92.8 145.81 95.1 148.62 97.94 C163.97 114.85 166.05 134.05 165.22 156.1 C164.19 169.68 157.01 181.63 147.06 190.78 C124.86 208.33 93.67 205.34 67 205 C66.67 204.34 66.34 203.68 66 203 C66.66 203 67.32 203 68 203 C70.87 195.93 73.04 188.2 70.11 180.73 C69.14 179.11 68.08 177.55 67 176 C67 175.34 67 174.68 67 174 C70.97 172.71 75 172.81 79.13 172.75 C80.76 172.72 82.39 172.69 84.02 172.65 C86.56 172.61 89.11 172.56 91.66 172.52 C110.68 172.68 110.68 172.68 127 164 C133.17 156.62 135.51 149.74 135.31 140.15 C133.69 123.62 120.51 110.75 108.35 100.63 C97.82 92.39 85.52 86.53 73 82 C73 81.34 73 80.68 73 80 C73.96 79.96 74.93 79.91 75.92 79.86 C79.52 79.69 83.12 79.5 86.71 79.31 C88.27 79.23 89.82 79.15 91.37 79.08 C93.62 78.98 95.86 78.86 98.1 78.73 C99.13 78.69 99.13 78.69 100.18 78.64 C107.32 78.21 113.47 75.56 119 71 C123.59 64.29 125.77 58.19 125 50 C123.26 40.99 117.81 33.33 110.31 28.08 C105.41 25.79 99.94 26.28 94.63 26.29 C93.35 26.28 92.07 26.26 90.76 26.25 C87.38 26.21 84.01 26.2 80.63 26.19 C77.18 26.18 73.73 26.15 70.28 26.11 C63.52 26.05 56.76 26.01 50 26 C50.01 26.91 50.01 27.81 50.02 28.75 C50.13 48.9 49.94 69.04 49.56 89.19 C49.53 90.83 49.53 90.83 49.5 92.51 C49.37 100.01 49.2 107.5 49 115 C48.97 116.13 48.94 117.27 48.91 118.43 C48.82 121.83 48.71 125.23 48.6 128.63 C48.57 129.66 48.54 130.68 48.51 131.74 C48.21 139.97 46.67 146.56 43 154 C42.47 155.11 41.94 156.23 41.39 157.38 C37.72 164.64 33.43 170.95 28 177 C27.19 177.91 26.38 178.81 25.54 179.75 C7.68 198.62 -16.7 207.75 -42.34 209.19 C-70.93 209.75 -96.75 199.33 -117.62 179.88 C-139.36 157.15 -146.77 125.37 -146.31 94.85 C-145.31 64.84 -132.28 36.1 -110.68 15.34 C-79.6 -11.8 -37.58 -13.41 0 0 Z " fill="#000100" transform="translate(640,543)"/>
<path d="M0 0 C3.04 3.72 5.86 7.57 8.62 11.5 C18 24.69 27.85 36.98 39.41 48.36 C40.17 49.11 40.94 49.87 41.73 50.65 C43.26 52.15 44.8 53.64 46.34 55.13 C47.04 55.82 47.75 56.5 48.47 57.21 C49.1 57.82 49.74 58.43 50.39 59.06 C52.21 61.25 53.08 63.32 54 66 C52.77 67.51 52.77 67.51 51.51 69.04 C46.26 75.47 41.03 81.9 36 88.5 C31.74 94.09 27.34 99.54 22.89 104.98 C17.5 111.59 12.24 118.28 7 125 C1.28 132.33 -4.49 139.62 -10.38 146.81 C-14.84 152.27 -19.18 157.81 -23.44 163.44 C-28.43 170.04 -33.61 176.46 -38.9 182.82 C-47.59 193.3 -55.89 204.07 -64 215 C-72.29 213.78 -79.51 204.66 -85.11 198.89 C-86.98 197.02 -88.92 195.29 -90.94 193.56 C-97.5 187.9 -103.49 181.73 -109.13 175.15 C-111.33 172.62 -113.6 170.16 -115.88 167.69 C-120.31 162.81 -124.57 157.82 -128.68 152.66 C-129.62 151.47 -130.58 150.28 -131.53 149.1 C-149.36 126.92 -164.18 102.91 -177.75 77.94 C-178.68 76.23 -178.68 76.23 -179.63 74.49 C-180.49 72.9 -180.49 72.9 -181.36 71.28 C-181.87 70.33 -182.38 69.38 -182.91 68.41 C-184 66 -184 66 -184 63 C-183.36 62.78 -182.71 62.57 -182.05 62.34 C-142.53 49.02 -142.53 49.02 -103.12 35.38 C-84.73 28.92 -66.28 22.63 -47.81 16.38 C-45.61 15.63 -43.41 14.89 -41.21 14.14 C-40.16 13.79 -39.1 13.43 -38 13.06 C-25.32 8.76 -12.65 4.39 0 0 Z " fill="#3DB9A3" transform="translate(418,784)"/>
<path d="M0 0 C6.78 -0.29 12.05 1.89 18.31 4.25 C19.42 4.65 20.53 5.04 21.67 5.45 C22.73 5.84 23.78 6.24 24.86 6.64 C25.83 7 26.79 7.35 27.78 7.72 C30 9 30 9 30.89 10.96 C31.07 14.25 29.69 16.69 28.38 19.69 C22.63 33.34 19.06 47.34 17 62 C16.9 62.67 16.81 63.33 16.71 64.02 C10.86 109.65 23.46 158.2 51 195 C51.92 196.26 51.92 196.26 52.86 197.54 C83.37 236.98 130.14 263.25 179.38 270.31 C218.58 274.99 260.34 268.07 295 249 C295.61 248.67 296.23 248.34 296.86 248 C309.29 241.28 320.2 233.07 331 224 C331.73 223.39 332.47 222.78 333.22 222.16 C337.97 218.13 342.01 213.77 346 209 C346.76 208.13 347.52 207.25 348.31 206.35 C370.44 180.6 383.92 150.24 390 117 C390.13 116.3 390.27 115.6 390.4 114.88 C396.12 83.54 391.45 49.26 379.92 19.75 C379 17 379 17 379 13 C383.09 11.86 387.19 10.72 391.28 9.58 C392.67 9.19 394.07 8.81 395.46 8.42 C397.46 7.86 399.46 7.3 401.46 6.75 C403.27 6.25 403.27 6.25 405.11 5.73 C408 5 408 5 410 5 C431.83 56.53 431.84 115.08 411.1 166.99 C408.4 173.53 405.36 179.86 402.02 186.09 C401.34 187.37 400.66 188.65 400 189.93 C391.47 206.35 380.46 221.26 367.51 234.46 C365.94 236.06 364.4 237.68 362.86 239.3 C355.93 246.49 348.6 252.83 340.6 258.8 C339.18 259.87 337.78 260.95 336.38 262.04 C289.84 297.38 229.12 310.77 171.54 303.09 C164.62 302.04 157.8 300.65 151 299 C150.09 298.78 149.18 298.56 148.23 298.34 C107.64 288.18 71.35 265.39 42 236 C41.34 235.39 40.68 234.77 40 234.14 C4.87 200.93 -16.53 147.62 -18.11 99.67 C-18.35 85.05 -18.54 70.45 -16 56 C-15.87 55.24 -15.74 54.47 -15.61 53.69 C-12.41 35.15 -6.88 17.48 0 0 Z " fill="#000100" transform="translate(446,557)"/>
<path d="M0 0 C0.85 1.74 0.85 1.74 1.35 3.87 C1.64 5.09 1.64 5.09 1.95 6.33 C2.15 7.23 2.35 8.12 2.56 9.04 C2.78 9.99 3.01 10.93 3.24 11.9 C3.99 15.07 4.72 18.23 5.45 21.4 C5.97 23.64 6.5 25.88 7.03 28.12 C8.45 34.14 9.86 40.17 11.25 46.19 C12.7 52.41 14.17 58.63 15.63 64.85 C17.4 72.35 19.16 79.86 20.92 87.36 C24.47 102.53 28.06 117.68 31.72 132.82 C32.04 134.16 32.04 134.16 32.37 135.53 C34.17 143 35.98 150.47 37.79 157.94 C38.69 161.66 39.59 165.38 40.49 169.1 C40.96 171.07 41.44 173.04 41.92 175.01 C42.2 176.16 42.47 177.32 42.76 178.5 C43 179.5 43.24 180.5 43.49 181.53 C44 184 44 184 44 187 C7.2 199.73 -33.99 205.91 -72.88 206.12 C-73.92 206.13 -73.92 206.13 -74.99 206.14 C-79.88 206.12 -79.88 206.12 -81 205 C-81.1 202.54 -81.14 200.1 -81.13 197.64 C-81.14 196.86 -81.14 196.08 -81.14 195.28 C-81.15 192.65 -81.15 190.02 -81.15 187.39 C-81.15 185.51 -81.15 183.63 -81.16 181.75 C-81.16 176.63 -81.17 171.51 -81.17 166.4 C-81.17 162.13 -81.17 157.87 -81.18 153.6 C-81.18 143.54 -81.19 133.49 -81.19 123.43 C-81.18 113.04 -81.2 102.65 -81.21 92.25 C-81.22 83.35 -81.23 74.44 -81.23 65.53 C-81.23 60.21 -81.23 54.88 -81.24 49.55 C-81.25 44.55 -81.25 39.54 -81.24 34.53 C-81.24 32.69 -81.25 30.85 -81.25 29 C-81.26 26.5 -81.25 23.99 -81.25 21.48 C-81.25 20.75 -81.26 20.01 -81.26 19.25 C-81.23 14.23 -81.23 14.23 -79 12 C-76.62 11.58 -76.62 11.58 -73.59 11.32 C-72.47 11.22 -71.35 11.12 -70.19 11.01 C-68.97 10.91 -67.75 10.8 -66.5 10.69 C-47.43 8.81 -28.75 5.66 -10.49 -0.3 C-9.29 -0.67 -9.29 -0.67 -8.07 -1.06 C-7.38 -1.29 -6.68 -1.52 -5.97 -1.76 C-3.34 -2.08 -2.22 -1.42 0 0 Z " fill="#C2D93F" transform="translate(738,902)"/>
<path d="M0 0 C4.75 4.43 8.54 9.45 12.44 14.62 C13.14 15.56 13.85 16.49 14.57 17.44 C19.68 24.2 24.71 31 29.71 37.83 C34.07 43.77 38.52 49.65 43 55.5 C48.65 62.89 54.21 70.33 59.71 77.84 C64.07 83.78 68.52 89.65 73 95.5 C78.65 102.88 84.2 110.31 89.69 117.81 C94.9 124.9 100.23 131.9 105.58 138.88 C106.83 140.51 108.07 142.14 109.31 143.78 C110.39 145.2 111.49 146.62 112.61 148.02 C116.05 152.48 116.05 152.48 115.79 155.04 C114.46 158.34 111.52 160.07 108.75 162.12 C108.12 162.61 107.49 163.09 106.84 163.58 C105.54 164.58 104.23 165.57 102.92 166.56 C100.61 168.3 98.32 170.06 96.03 171.83 C93.89 173.48 91.75 175.12 89.61 176.77 C86.9 178.84 84.2 180.92 81.5 183 C80.42 183.83 79.33 184.67 78.25 185.5 C77.45 186.12 77.45 186.12 76.62 186.75 C75 188 73.38 189.25 71.75 190.5 C71.21 190.91 70.68 191.32 70.13 191.75 C69.04 192.59 67.95 193.42 66.86 194.26 C64.24 196.28 61.61 198.3 59 200.32 C55.67 202.89 52.34 205.45 49 208 C47.8 208.92 47.8 208.92 46.58 209.85 C43.91 211.89 41.24 213.91 38.56 215.94 C37.71 216.59 36.86 217.24 35.98 217.91 C31.79 221.07 27.81 223.88 23 226 C18.79 221.34 16.29 215.97 13.53 210.38 C13 209.33 12.48 208.29 11.94 207.21 C10.83 204.98 9.73 202.75 8.62 200.52 C6.97 197.2 5.32 193.87 3.66 190.55 C-2.01 179.17 -7.58 167.74 -13.04 156.26 C-17.16 147.61 -21.44 139.04 -25.75 130.49 C-31.94 118.19 -38.11 105.9 -43.95 93.43 C-46.62 87.79 -49.4 82.23 -52.25 76.68 C-53 75.21 -53.75 73.74 -54.5 72.27 C-55.62 70.09 -56.73 67.91 -57.87 65.73 C-58.92 63.72 -59.95 61.7 -60.98 59.68 C-61.59 58.51 -62.2 57.34 -62.82 56.14 C-64.09 52.77 -64.26 51.34 -63 48 C-61.11 46.23 -59.35 44.8 -57.25 43.31 C-56.06 42.43 -54.86 41.56 -53.67 40.68 C-53.06 40.23 -52.45 39.79 -51.82 39.33 C-49.01 37.27 -46.25 35.14 -43.5 33 C-42.42 32.17 -41.33 31.33 -40.25 30.5 C-39.71 30.09 -39.18 29.67 -38.62 29.25 C-37 28 -35.38 26.75 -33.75 25.5 C-33.21 25.09 -32.68 24.67 -32.12 24.25 C-31.04 23.42 -29.96 22.59 -28.88 21.75 C-26.14 19.65 -23.41 17.54 -20.68 15.43 C-13.87 10.16 -6.99 5.02 0 0 Z " fill="#C2D93F" transform="translate(888,800)"/>
<path d="M0 0 C3.09 2.06 3.57 2.69 5.03 5.89 C5.42 6.73 5.81 7.56 6.21 8.42 C6.64 9.36 7.06 10.29 7.5 11.25 C12.64 22.27 18.04 33.14 23.5 44 C29.08 55.12 34.61 66.25 39.93 77.5 C44.17 86.44 48.61 95.26 53.05 104.09 C57.73 113.4 62.32 122.74 66.75 132.16 C69.49 137.95 72.35 143.68 75.27 149.39 C76.01 150.86 76.76 152.33 77.51 153.8 C78.98 156.69 80.47 159.57 81.96 162.44 C82.63 163.77 83.31 165.09 83.98 166.42 C84.3 167.02 84.62 167.63 84.95 168.26 C86.19 170.72 87.03 172.51 86.84 175.29 C79.11 190.98 37.69 203.29 22 210 C21.14 210.37 20.28 210.74 19.39 211.12 C16.91 212.16 14.43 213.18 11.94 214.19 C11.21 214.49 10.47 214.8 9.72 215.11 C5.77 216.65 3.08 217.38 -1 216 C-4.07 207.49 -6.07 198.76 -8.15 189.96 C-8.56 188.24 -8.97 186.52 -9.38 184.8 C-10.48 180.15 -11.59 175.5 -12.69 170.84 C-14.56 162.95 -16.43 155.06 -18.3 147.16 C-18.79 145.11 -19.28 143.06 -19.76 141.01 C-23.25 126.29 -26.78 111.58 -30.34 96.88 C-31.81 90.8 -33.28 84.71 -34.75 78.62 C-35.93 73.74 -37.11 68.85 -38.3 63.97 C-39.42 59.38 -40.52 54.79 -41.63 50.2 C-42.03 48.52 -42.44 46.83 -42.86 45.15 C-43.42 42.85 -43.97 40.55 -44.52 38.25 C-44.69 37.58 -44.85 36.92 -45.03 36.23 C-45.89 32.51 -46.19 29.66 -45 26 C-43.38 24.72 -43.38 24.72 -41.27 23.78 C-40.47 23.41 -39.68 23.04 -38.87 22.66 C-38 22.28 -37.14 21.9 -36.25 21.5 C-28.36 17.79 -20.89 13.69 -13.5 9.06 C-12.17 8.23 -12.17 8.23 -10.81 7.38 C-7.1 5.04 -3.49 2.67 0 0 Z " fill="#C2D93F" transform="translate(804,864)"/>
<path d="M0 0 C7.09 6.64 10.3 15.44 10.68 24.97 C10.52 33.14 7.95 40.58 2.24 46.55 C-5.74 53.19 -13.8 55.22 -23.92 54.61 C-32.77 53.55 -41.3 49.6 -47 42.54 C-51.35 35.63 -52.81 26.77 -51.23 18.82 C-49 10.28 -45.39 3.53 -37.82 -1.28 C-25.86 -7.73 -11.52 -7.88 0 0 Z " fill="#000100" transform="translate(666.69140625,1144.83984375)"/>
<path d="M0 0 C6.88 5.56 13 14.38 14.07 23.32 C14.22 34.75 10.84 41.1 3.05 49.36 C-3.14 55.17 -9.69 57.08 -18.06 57 C-27.29 55.64 -37.27 49.6 -43.27 42.53 C-47.7 35.61 -49.21 28.69 -48.27 20.53 C-45.86 11.19 -40.94 4.32 -33.27 -1.47 C-22.1 -7.53 -10.67 -6.93 0 0 Z " fill="#000100" transform="translate(1004.265625,207.47265625)"/>
<path d="M0 0 C0.92 1.89 1.83 3.78 2.75 5.68 C3.03 6.27 3.32 6.86 3.62 7.47 C5.2 10.75 6.78 14.02 8.36 17.3 C9 18.63 9.64 19.96 10.28 21.3 C10.6 21.96 10.92 22.62 11.25 23.3 C13.13 27.22 15.04 31.12 16.97 35.02 C17.39 35.88 17.82 36.75 18.25 37.64 C19.02 39.22 19.81 40.79 20.6 42.36 C23.06 47.44 23.06 47.44 22.76 50.11 C22 52 22 52 19.19 53.81 C15.89 55.04 15.13 55.25 12 54 C7.18 47.41 4.04 39.92 0.69 32.5 C0.13 31.28 -0.42 30.07 -0.98 28.85 C-2.32 25.9 -3.66 22.95 -5 20 C-4.33 29.46 -3.43 38.88 -2.44 48.31 C-2.3 49.65 -2.16 50.99 -2.02 52.33 C-1.68 55.55 -1.34 58.78 -1 62 C-3.67 63.66 -6 65 -9 66 C-17.21 61.7 -23.35 53.85 -29.3 46.92 C-32.06 43.8 -35.03 40.91 -38 38 C-38.99 37.01 -39.98 36.02 -41 35 C-35.06 47.21 -29.12 59.42 -23 72 C-25.88 74.88 -27.2 75.92 -31 77 C-33.43 76.98 -33.43 76.98 -36 76 C-37.53 73.69 -38.65 71.64 -39.78 69.14 C-40.11 68.44 -40.45 67.74 -40.79 67.02 C-41.86 64.77 -42.9 62.51 -43.94 60.25 C-44.63 58.77 -45.33 57.3 -46.03 55.82 C-47.72 52.24 -49.39 48.64 -51.05 45.04 C-51.97 43.07 -52.9 41.12 -53.84 39.16 C-54.39 38.01 -54.94 36.86 -55.5 35.67 C-56.23 34.17 -56.23 34.17 -56.97 32.63 C-58 30 -58 30 -58 26 C-55.59 24.8 -53.17 23.61 -50.75 22.44 C-49.73 21.92 -49.73 21.92 -48.68 21.4 C-43.64 18.97 -43.64 18.97 -41.12 19.08 C-37.91 20.47 -35.76 22.88 -33.36 25.35 C-32.83 25.88 -32.31 26.41 -31.76 26.96 C-30.08 28.65 -28.42 30.36 -26.75 32.06 C-25.61 33.21 -24.47 34.37 -23.34 35.52 C-20.55 38.34 -17.77 41.17 -15 44 C-15.31 40.23 -15.62 36.46 -15.94 32.69 C-16.07 31.11 -16.07 31.11 -16.2 29.5 C-16.33 27.93 -16.33 27.93 -16.46 26.32 C-16.55 25.28 -16.64 24.23 -16.72 23.15 C-16.91 21.04 -17.11 18.94 -17.34 16.84 C-17.44 15.85 -17.54 14.87 -17.65 13.86 C-17.75 12.98 -17.85 12.1 -17.95 11.19 C-18 9 -18 9 -16.69 6.62 C-5.73 0 -5.73 0 0 0 Z " fill="#000100" transform="translate(441,124)"/>
<path d="M0 0 C6.58 5.17 10.81 11.86 15 19 C15.64 19.97 16.28 20.94 16.94 21.94 C18.9 27.58 19.42 33.82 16.93 39.38 C13.24 44.68 8.25 49.06 1.84 50.48 C-7.63 51.11 -15.7 45.1 -22.67 39.32 C-29 33.03 -34.27 24.65 -34.31 15.56 C-34.17 9.87 -33.25 6.39 -29.27 2.16 C-20.13 -6.48 -10.55 -6.27 0 0 Z " fill="#000100" transform="translate(1009,1014)"/>
<path d="M0 0 C2.44 1.22 3.8 2.64 5.57 4.72 C6.16 5.39 6.75 6.07 7.36 6.77 C9.15 9.25 10.14 10.99 10.95 13.97 C10.42 16.77 9.8 19.25 8.95 21.94 C8.73 22.7 8.5 23.45 8.27 24.23 C7.55 26.65 6.81 29.06 6.07 31.47 C5.34 33.88 4.61 36.29 3.89 38.7 C3.44 40.2 2.99 41.7 2.52 43.19 C1.41 46.88 0.67 50.11 0.95 53.97 C2 52.9 2 52.9 3.07 51.81 C8.52 46.3 14.02 40.97 19.95 35.97 C21.28 34.82 22.61 33.68 23.95 32.53 C24.94 31.69 25.93 30.84 26.95 29.97 C31.08 31.76 32.61 34.13 34.95 37.97 C33.48 41.46 31.61 43.39 28.76 45.84 C24.29 49.77 19.91 53.77 15.57 57.84 C9.07 63.93 2.52 69.97 -4.05 75.97 C-9.39 75.06 -12.9 72.48 -16.02 68.18 C-18.48 60.53 -14.3 51.88 -11.93 44.53 C-11.08 41.76 -10.24 38.99 -9.4 36.21 C-8.88 34.49 -8.35 32.78 -7.8 31.06 C-6.2 26.99 -6.2 26.99 -7.05 22.97 C-10.94 26.23 -14.72 29.57 -18.44 33.02 C-23.43 37.66 -28.49 42.01 -34.05 45.97 C-38.01 42.5 -38.01 42.5 -42.05 38.97 C-40.34 35.53 -39.45 34.14 -36.78 31.68 C-36.13 31.08 -35.47 30.47 -34.8 29.84 C-34.1 29.2 -33.4 28.56 -32.68 27.91 C-31.96 27.24 -31.24 26.58 -30.5 25.89 C-28.36 23.91 -26.21 21.94 -24.05 19.97 C-22.93 18.93 -21.8 17.89 -20.68 16.86 C-18.73 15.06 -16.78 13.27 -14.81 11.49 C-12.93 9.77 -11.07 8.02 -9.23 6.26 C-8.35 5.42 -7.47 4.58 -6.55 3.72 C-5.78 2.97 -5.01 2.22 -4.21 1.45 C-2.05 -0.03 -2.05 -0.03 0 0 Z " fill="#000100" transform="translate(1040.0546875,242.03125)"/>
<path d="M0 0 C8.28 5.95 15.21 17.1 18.42 26.74 C19.05 32.19 19.18 37.09 16.86 42.11 C8.23 51.4 8.23 51.4 3.13 52.01 C-7.37 52.4 -13.87 48.11 -21.44 41.11 C-27.2 34.73 -32.52 26.09 -32.61 17.3 C-32.25 10.98 -30.78 6.89 -26.16 2.34 C-18.05 -4.88 -9.34 -5.14 0 0 Z " fill="#000100" transform="translate(970.58203125,1042.26171875)"/>
<path d="M0 0 C4.4 5.26 5.76 10.72 5.42 17.48 C4.81 21.15 3.51 23.29 1 26 C-1.75 27.88 -1.75 27.88 -4 29 C-3.54 34.08 -0.99 37.14 2 41.06 C7.18 47.89 7.18 47.89 8 52 C5.23 52.92 3.43 53.16 0.56 53.19 C-0.58 53.21 -0.58 53.21 -1.75 53.23 C-4.34 52.97 -5.78 52.35 -8 51 C-9.36 49.26 -9.36 49.26 -10.54 47.19 C-10.98 46.44 -11.41 45.7 -11.86 44.93 C-12.3 44.15 -12.74 43.37 -13.19 42.56 C-13.64 41.79 -14.09 41.01 -14.55 40.21 C-16.31 37.15 -17.88 34.36 -19 31 C-20.65 31.66 -22.3 32.32 -24 33 C-24 39.93 -24 46.86 -24 54 C-29.45 54.5 -29.45 54.5 -35 55 C-36.82 50.45 -37.35 47.74 -37.63 42.96 C-37.7 41.95 -37.7 41.95 -37.76 40.92 C-37.89 38.74 -38.01 36.56 -38.12 34.38 C-38.21 32.88 -38.3 31.39 -38.38 29.89 C-38.97 19.26 -39.25 8.65 -39 -2 C-35.23 -2.4 -31.46 -2.77 -27.69 -3.12 C-26.63 -3.24 -25.58 -3.35 -24.5 -3.46 C-16.14 -4.24 -7.47 -4.35 0 0 Z " fill="#000100" transform="translate(636,87)"/>
<path d="M0 0 C0.66 3.3 1.32 6.6 2 10 C-3.37 12.05 -8.72 12.83 -14.38 13.62 C-15.3 13.76 -16.23 13.89 -17.18 14.03 C-19.46 14.36 -21.73 14.68 -24 15 C-23.01 17.97 -22.02 20.94 -21 24 C-10.11 22.52 -10.11 22.52 1 21 C3.57 24.85 3.55 27.43 4 32 C1.07 33.63 -1.45 34.38 -4.77 34.85 C-6.1 35.04 -6.1 35.04 -7.46 35.24 C-8.38 35.37 -9.3 35.49 -10.25 35.62 C-11.65 35.83 -11.65 35.83 -13.09 36.03 C-15.39 36.36 -17.69 36.68 -20 37 C-19.72 38.48 -19.42 39.96 -19.12 41.44 C-18.96 42.26 -18.8 43.08 -18.63 43.93 C-18.42 44.62 -18.22 45.3 -18 46 C-15.52 47.24 -14.53 46.91 -11.82 46.44 C-11 46.3 -10.17 46.16 -9.31 46.02 C-8.01 45.79 -8.01 45.79 -6.69 45.56 C3.66 43.78 3.66 43.78 8 44 C9.42 47.82 10.24 50.91 10 55 C3.21 56.82 -3.62 58.05 -10.56 59.19 C-11.66 59.38 -12.76 59.57 -13.89 59.76 C-14.96 59.94 -16.03 60.11 -17.13 60.29 C-18.09 60.45 -19.05 60.61 -20.04 60.78 C-23.49 61.04 -26.59 60.59 -30 60 C-31.15 53.13 -32.28 46.26 -33.42 39.39 C-33.8 37.06 -34.19 34.72 -34.58 32.39 C-35.14 29.03 -35.7 25.67 -36.25 22.3 C-36.42 21.26 -36.6 20.22 -36.78 19.15 C-37.56 14.39 -38.23 9.85 -38 5 C-33.07 4.12 -28.14 3.25 -23.21 2.38 C-21.53 2.09 -19.86 1.79 -18.18 1.49 C-15.77 1.06 -13.36 0.63 -10.95 0.21 C-10.2 0.08 -9.45 -0.06 -8.68 -0.2 C-5.33 -0.77 -3.27 -1.09 0 0 Z " fill="#000100" transform="translate(580,88)"/>
<path d="M0 0 C1.7 1.3 1.7 1.3 3 3 C3.26 6.07 3.32 8.93 3.25 12 C3.23 13.4 3.23 13.4 3.21 14.83 C3.16 18.22 3.08 21.61 3 25 C2.97 26.47 2.95 27.93 2.92 29.4 C2.85 33.35 2.77 37.3 2.68 41.25 C2.64 42.83 2.61 44.41 2.58 45.99 C2.53 48.24 2.48 50.48 2.41 52.73 C2.38 54.03 2.35 55.34 2.32 56.68 C2 60 2 60 0 64 C-3.63 62.02 -7.26 60.04 -11 58 C-11 54.04 -11 50.08 -11 46 C-11.66 46 -12.32 46 -13 46 C-13.43 45.56 -13.85 45.12 -14.29 44.67 C-16.45 42.56 -18.64 41.56 -21.38 40.31 C-22.31 39.88 -23.25 39.44 -24.21 38.99 C-27.11 37.96 -28.96 37.57 -32 38 C-33.9 39.31 -33.9 39.31 -35.5 41.06 C-38.71 43.99 -38.71 43.99 -41.44 44.12 C-45.03 42.55 -48.54 40.85 -52 39 C-43.73 30.64 -35.09 22.79 -25.91 15.44 C-21.66 11.87 -17.62 8.07 -13.59 4.25 C-8.53 -0.53 -6.94 -1.46 0 0 Z " fill="#000100" transform="translate(889,136)"/>
<path d="M0 0 C1.8 3.83 2.2 6.78 2 11 C-2.33 12.52 -6.63 13.66 -11.12 14.62 C-12.92 15.02 -12.92 15.02 -14.76 15.41 C-18 16 -18 16 -22 16 C-21.34 18.97 -20.68 21.94 -20 25 C-12.25 24.42 -4.65 23.38 3 22 C3.53 23.43 4.05 24.87 4.56 26.31 C4.85 27.11 5.14 27.91 5.44 28.74 C6 31 6 31 5 34 C3.21 34.71 3.21 34.71 0.89 35.17 C0.05 35.34 -0.79 35.51 -1.65 35.69 C-2.53 35.85 -3.41 36.02 -4.31 36.19 C-5.61 36.45 -5.61 36.45 -6.94 36.72 C-10.75 37.48 -14.09 38 -18 38 C-17.01 41.63 -16.02 45.26 -15 49 C-13.22 48.62 -11.44 48.23 -9.6 47.84 C-7.28 47.35 -4.95 46.86 -2.62 46.38 C-1.45 46.12 -0.27 45.86 0.94 45.6 C2.62 45.25 2.62 45.25 4.34 44.9 C5.89 44.57 5.89 44.57 7.48 44.23 C8.73 44.12 8.73 44.12 10 44 C12.4 46.4 12.34 47.33 12.62 50.62 C12.7 51.44 12.77 52.26 12.85 53.1 C12.9 53.73 12.95 54.35 13 55 C9.15 56.67 5.41 57.66 1.31 58.51 C-0.6 58.9 -0.6 58.9 -2.55 59.31 C-3.21 59.44 -3.87 59.58 -4.55 59.71 C-6.56 60.12 -8.57 60.54 -10.58 60.96 C-20.48 63 -20.48 63 -25 63 C-26.9 60.16 -27.45 58.67 -28.15 55.42 C-28.35 54.5 -28.55 53.58 -28.75 52.62 C-28.96 51.63 -29.17 50.63 -29.38 49.6 C-29.71 48.06 -29.71 48.06 -30.05 46.49 C-30.51 44.32 -30.97 42.14 -31.42 39.97 C-32.12 36.64 -32.83 33.32 -33.54 30 C-33.99 27.89 -34.44 25.78 -34.88 23.66 C-35.1 22.67 -35.31 21.68 -35.53 20.66 C-35.72 19.72 -35.91 18.79 -36.11 17.83 C-36.37 16.61 -36.37 16.61 -36.63 15.37 C-37.02 12.87 -37.06 10.52 -37 8 C-33.14 6.32 -29.39 5.34 -25.27 4.49 C-23.99 4.23 -22.72 3.96 -21.4 3.69 C-20.74 3.56 -20.08 3.42 -19.4 3.29 C-17.37 2.87 -15.35 2.46 -13.33 2.04 C-3.4 0 -3.4 0 0 0 Z " fill="#000100" transform="translate(774,1126)"/>
<path d="M0 0 C6 7.4 6 7.4 6 11 C4.36 12.27 4.36 12.27 2.1 13.52 C1.29 13.99 0.48 14.45 -0.35 14.93 C-2.07 15.89 -3.79 16.85 -5.51 17.8 C-6.32 18.26 -7.13 18.73 -7.96 19.21 C-8.71 19.63 -9.46 20.04 -10.23 20.47 C-12.54 22.47 -12.68 24.03 -13 27 C-11.35 28.32 -9.7 29.64 -8 31 C-7.47 30.67 -6.93 30.33 -6.38 29.99 C-3.96 28.49 -1.54 26.99 0.88 25.5 C1.72 24.98 2.56 24.45 3.43 23.91 C4.23 23.41 5.04 22.92 5.87 22.41 C6.61 21.95 7.35 21.48 8.12 21.01 C10 20 10 20 12 20 C13.29 21.68 13.29 21.68 14.62 23.88 C15.29 24.95 15.29 24.95 15.98 26.05 C17 28 17 28 17 30 C15.47 31.24 15.47 31.24 13.35 32.6 C12.59 33.09 11.84 33.58 11.05 34.09 C10.25 34.59 9.45 35.1 8.62 35.62 C7.83 36.14 7.04 36.66 6.22 37.19 C0.27 41 0.27 41 -2 41 C-1.34 43.64 -0.68 46.28 0 49 C2.99 50.02 5.1 50.42 8.02 49.07 C10.28 47.65 12.46 46.17 14.62 44.62 C16.11 43.59 17.61 42.56 19.1 41.54 C19.75 41.08 20.41 40.62 21.08 40.14 C23.06 38.97 24.75 38.44 27 38 C27.84 39.29 28.67 40.58 29.5 41.88 C29.96 42.59 30.43 43.31 30.91 44.05 C32 46 32 46 32 48 C30.46 49.2 30.46 49.2 28.3 50.54 C27.51 51.03 26.72 51.53 25.9 52.04 C25.05 52.56 24.19 53.09 23.31 53.62 C22.45 54.16 21.59 54.69 20.71 55.24 C18.14 56.84 15.57 58.42 13 60 C11.61 60.86 10.23 61.71 8.84 62.57 C5.9 64.39 2.95 66.2 0 68 C-5.23 65.58 -7.13 62.06 -9.88 57.25 C-13.14 51.68 -16.48 46.22 -20.09 40.87 C-20.78 39.84 -21.47 38.82 -22.18 37.76 C-23.54 35.73 -24.92 33.72 -26.31 31.71 C-26.94 30.78 -27.56 29.85 -28.2 28.89 C-28.77 28.06 -29.33 27.24 -29.91 26.39 C-31 24 -31 24 -30.96 21.41 C-29.7 18.24 -28.26 17.39 -25.37 15.62 C-24.42 15.03 -23.46 14.44 -22.48 13.83 C-21.48 13.22 -20.47 12.62 -19.44 12 C-18.46 11.4 -17.48 10.79 -16.47 10.17 C-14.56 8.99 -12.63 7.81 -10.71 6.64 C-7.12 4.46 -3.56 2.23 0 0 Z " fill="#000100" transform="translate(367,160)"/>
<path d="M0 0 C0 3.63 0 7.26 0 11 C-1.42 11.47 -2.85 11.95 -4.31 12.44 C-7.28 13.72 -8.68 14.42 -10.27 17.27 C-10.98 19.51 -11.57 21.69 -12 24 C-3.82 25.74 0.71 23.75 8 20 C12.37 18.54 16.19 18.34 20.56 19.94 C25.15 23.82 28.4 27.98 29.59 33.98 C29.92 40.27 29.04 44.43 24.85 49.18 C14.18 59.65 14.18 59.65 8.89 60.23 C3.11 60.11 3.11 60.11 2 59 C1.88 57.36 1.82 55.71 1.81 54.06 C1.8 53.17 1.78 52.27 1.77 51.35 C2 49 2 49 4 47 C5.28 46.71 6.56 46.42 7.88 46.12 C11.63 45.24 13.78 44.32 16 41 C16.35 37.53 16.11 35.32 15 32 C6.42 34.41 6.42 34.41 -1.81 37.75 C-5.7 39.27 -8.93 39.91 -13 39 C-17.88 36.76 -21.22 34.22 -24.12 29.69 C-25.5 23.91 -24.91 19.31 -22.75 13.81 C-17.59 5.52 -10.39 -2.08 0 0 Z " fill="#000100" transform="translate(286,226)"/>
<path d="M0 0 C2.12 2.75 2.12 2.75 3 5 C1.17 7.24 -0.66 9.28 -3 11 C-6.22 10.94 -8.15 10.43 -11 9 C-12.5 8.91 -14 8.87 -15.5 8.88 C-16.29 8.87 -17.09 8.87 -17.91 8.87 C-20.06 8.87 -20.06 8.87 -22 10 C-22 11.98 -22 13.96 -22 16 C-20.83 16.56 -19.66 17.11 -18.46 17.69 C-16.91 18.46 -15.36 19.23 -13.81 20 C-13.04 20.36 -12.27 20.72 -11.48 21.1 C-5.9 23.93 -2.41 27.13 0 33 C0.9 38.68 0.32 43.18 -3 48 C-8.98 54.02 -13.41 55.36 -21.94 55.46 C-28.75 55.31 -34.51 53.08 -40 49 C-41.32 46.8 -41.32 46.8 -42 45 C-40.76 43.8 -39.51 42.61 -38.25 41.44 C-37.55 40.78 -36.86 40.11 -36.14 39.43 C-34 38 -34 38 -31.95 38.16 C-30 39 -30 39 -26.62 41.06 C-23.29 43.03 -20.92 43.53 -17 43 C-13.81 41.36 -13.81 41.36 -13.44 38.69 C-14.1 35.52 -15.27 34.32 -17.81 32.39 C-21.75 29.89 -25.91 27.83 -30.07 25.75 C-34.42 23.15 -35.7 21.19 -36.94 16.31 C-37.39 11.23 -35.7 7.25 -33 3 C-24.67 -6.62 -10.3 -6.18 0 0 Z " fill="#000100" transform="translate(608,1140)"/>
<path d="M0 0 C2.04 1.69 2.92 2.64 3.51 5.26 C3.57 6.06 3.63 6.86 3.69 7.69 C3.79 8.9 3.79 8.9 3.89 10.14 C3.92 10.75 3.96 11.37 4 12 C3.07 12.56 2.14 13.11 1.19 13.69 C-2.01 16 -3.43 17.43 -5 21 C-5.33 23.67 -5.33 23.67 -5 26 C-3.89 27.3 -3.89 27.3 -1.12 27.56 C4.04 27.55 7.5 24.02 11.35 20.95 C16.24 17.35 19.88 16.54 25.79 17.41 C30.15 18.58 32.72 21.16 35.25 24.79 C38.1 29.76 38.96 34.35 38 40 C35.54 47.71 29.87 54.71 22.81 58.62 C20.37 59.87 19.5 60.14 16.84 59.38 C14.42 57.57 14.25 56.31 13.75 53.38 C13.53 52.15 13.53 52.15 13.3 50.9 C13.2 50.27 13.1 49.65 13 49 C14.05 48.41 14.05 48.41 15.12 47.81 C21.65 43.89 21.65 43.89 25 37.38 C25.31 33.87 25.31 33.87 23 31 C17.52 31.47 14.16 33.48 9.75 36.5 C8.52 37.32 7.28 38.15 6.05 38.97 C5.04 39.64 4.04 40.31 3 41 C-0.01 42.5 -1.61 42.42 -5 42 C-9.81 39.84 -13.88 37.45 -17.12 33.25 C-19.26 25.32 -18.41 19.37 -14.43 12.19 C-12.58 9.36 -10.57 7.19 -8 5 C-7.13 4.26 -6.27 3.51 -5.38 2.75 C-3 1 -3 1 0 0 Z " fill="#000100" transform="translate(211,303)"/>
<path d="M0 0 C0.93 0.87 0.93 0.87 1.88 1.75 C1.88 6.67 1.31 8.23 -2.12 11.75 C-4.89 12.03 -7.52 11.87 -10.3 11.71 C-14.59 11.77 -17.73 13.17 -21.12 15.75 C-25.01 20.77 -25.54 25.51 -25.12 31.75 C-24.18 36.62 -22.38 39.98 -18.62 43.25 C-13.7 46.58 -8.88 46.79 -3.12 45.75 C0.91 43.77 3.34 42.04 4.88 37.75 C9.65 38.22 12.92 38.99 16.88 41.75 C16.73 46.59 14.26 48.95 10.92 52.11 C3.87 57.78 -3.44 59.21 -12.34 59.17 C-20.34 58.29 -27.18 54.02 -33.12 48.75 C-38.4 41.02 -40.1 31.95 -39.12 22.75 C-37.3 14.53 -32.68 8.88 -26.12 3.75 C-18.29 -0.78 -8.72 -3.49 0 0 Z " fill="#000100" transform="translate(826.125,1113.25)"/>
<path d="M0 0 C4.59 4.49 8.27 10.11 8.38 16.63 C8.26 22.35 6.42 26.77 4 31.88 C3.24 33.52 2.49 35.16 1.75 36.8 C1.25 37.87 1.25 37.87 0.73 38.96 C-0.23 41.27 -0.23 41.27 0 45 C1.11 44.43 2.22 43.87 3.36 43.29 C4.82 42.54 6.29 41.8 7.75 41.06 C8.48 40.69 9.21 40.32 9.96 39.93 C10.67 39.57 11.38 39.22 12.11 38.85 C12.76 38.52 13.41 38.19 14.08 37.85 C16 37 16 37 20 36 C21.32 38.97 22.64 41.94 24 45 C6.15 54.54 6.15 54.54 -2.38 58.69 C-3.84 59.4 -3.84 59.4 -5.34 60.14 C-8.42 61.14 -9.97 61.11 -13 60 C-17.16 54.42 -17.16 54.42 -16.69 50.25 C-15.97 46.88 -14.9 44.08 -13.5 40.94 C-13 39.81 -12.51 38.68 -12 37.52 C-10.96 35.17 -9.91 32.82 -8.86 30.48 C-8.37 29.35 -7.88 28.22 -7.37 27.06 C-6.92 26.04 -6.46 25.02 -5.99 23.97 C-4.92 20.76 -4.7 18.37 -5 15 C-6.42 12.42 -6.42 12.42 -9 11 C-12.69 11.15 -12.69 11.15 -16 12 C-16.33 14.97 -16.66 17.94 -17 21 C-20.3 22.32 -23.6 23.64 -27 25 C-30 22 -30 22 -30.38 18.75 C-29.74 12.37 -28 8.63 -23.44 4.25 C-16.78 -1.15 -8.06 -4.21 0 0 Z " fill="#000100" transform="translate(888,1088)"/>
<path d="M0 0 C0.9 1.89 0.9 1.89 1 4 C0 5.92 0 5.92 -1.44 7.75 C-1.91 8.36 -2.38 8.98 -2.87 9.61 C-3.24 10.07 -3.62 10.53 -4 11 C-4.61 10.88 -5.21 10.76 -5.84 10.64 C-12.59 9.6 -18.31 9.89 -24 14 C-27.95 19.46 -28.57 25.28 -27.54 31.81 C-26.02 37.96 -22.21 40.79 -17.19 44.25 C-13.78 45.42 -10.53 45.56 -7 45 C-3.06 42.92 -0.41 40.75 2 37 C5.55 37.61 8.83 38.24 12 40 C13.19 42.19 13.19 42.19 13 45 C10.14 50.21 5.43 53.7 0.1 56.11 C-8.79 58.67 -18.27 58.34 -26.69 54.44 C-35 49.54 -38.57 44.28 -41.3 35.05 C-43.24 26.57 -42.21 19.63 -38 12 C-32.84 4.19 -25.76 0.3 -16.94 -2.38 C-11.17 -3.29 -5.02 -3.36 0 0 Z " fill="#000100" transform="translate(528,101)"/>
<path d="M0 0 C4.3 3.31 6.5 7.27 9 12 C7.73 12.67 6.46 13.34 5.19 14 C4.48 14.37 3.77 14.74 3.04 15.12 C1 16 1 16 -2 16 C-2 15.34 -2 14.68 -2 14 C-2.99 14 -3.98 14 -5 14 C-6.02 12.68 -7.02 11.35 -8 10 C-13.5 8.17 -18.94 8.22 -24.31 10.5 C-28.72 13.01 -30.56 16.22 -32 21 C-33.11 25.94 -33.28 29.87 -32.06 34.81 C-29.38 38.96 -26.59 41.18 -22 43 C-17.85 43.65 -14.03 43.09 -10 42 C-8.97 43.43 -7.95 44.87 -6.94 46.31 C-6.37 47.11 -5.8 47.91 -5.21 48.74 C-4.81 49.48 -4.41 50.23 -4 51 C-5 54 -5 54 -7.21 55.16 C-14.77 57.43 -22.5 56.58 -29.61 53.33 C-37.32 49.03 -43.08 44.1 -46.25 35.69 C-48.26 25.82 -46.53 17.21 -41.53 8.41 C-31.61 -5.68 -14.76 -6.78 0 0 Z " fill="#000100" transform="translate(842,115)"/>
<path d="M0 0 C7.92 0.55 15.69 1.43 23.5 2.81 C24.46 2.97 25.42 3.12 26.41 3.28 C34.96 4.78 34.96 4.78 38 9 C37.01 11.97 36.02 14.94 35 18 C26.75 16.68 18.5 15.36 10 14 C10 17.63 10 21.26 10 25 C12.17 25.19 12.17 25.19 14.38 25.38 C28.82 26.82 28.82 26.82 31 29 C31.25 33.36 31.12 36.2 29 40 C21.25 38.96 13.61 37.84 6 36 C5.95 36.68 5.9 37.36 5.85 38.05 C5.33 44.49 4.41 50.7 3 57 C-1.86 57.19 -5.44 56.64 -10 55 C-7.07 36.58 -3.62 18.29 0 0 Z " fill="#000100" transform="translate(731,89)"/>
<path d="M0 0 C3.34 3.85 5.91 7.9 7.12 12.88 C8.1 16.34 8.93 17.26 12 19 C11.34 20.98 10.68 22.96 10 25 C8.02 25 6.04 25 4 25 C3.72 25.84 3.72 25.84 3.44 26.69 C0.83 30.88 -3.37 33.46 -8 35 C-15.23 36.02 -20.09 34.12 -26 30 C-29.65 27.1 -31.05 24.58 -32 20 C-32 13.69 -30.93 8.09 -26.46 3.37 C-18.79 -3.65 -9.13 -5.58 0 0 Z " fill="#000100" transform="translate(555,447)"/>
<path d="M0 0 C4.52 3.29 7.27 8.04 9.75 13 C10.34 18.68 10.08 23.21 6.75 28 C2.15 32.63 -1.57 36.06 -8.31 36.38 C-14.65 36.29 -20.29 33.71 -24.96 29.44 C-28.83 24.98 -29.61 21.11 -29.53 15.41 C-28.91 10.02 -26.38 5.73 -22.38 2.12 C-14.98 -2.9 -8.33 -2.56 0 0 Z " fill="#000100" transform="translate(736.25,432)"/>
<path d="M0 0 C3.47 2.68 3.88 5.71 4.8 9.87 C5.13 11.26 5.47 12.65 5.8 14.04 C5.98 14.76 6.15 15.48 6.33 16.22 C9.22 28 11.75 38.03 22.18 45.3 C23.11 45.86 24.04 46.42 25 47 C28 49 28 49 29.06 51.19 C28.96 55.63 26.02 57.96 23 61 C17.54 58.62 13.85 55.22 9.85 50.94 C5.39 46.53 1.09 45.81 -5 45 C-6.7 44.74 -6.7 44.74 -8.43 44.48 C-12.16 43.92 -15.89 43.39 -19.62 42.88 C-20.92 42.69 -22.21 42.51 -23.54 42.32 C-26.69 41.88 -29.84 41.44 -33 41 C-31.83 35.8 -29.31 32.2 -25 29 C-21.47 28.36 -18.45 29.17 -15 30 C-13.76 30.25 -12.52 30.51 -11.25 30.77 C-7.82 31.47 -4.41 32.22 -1 33 C-1.22 32.42 -1.43 31.84 -1.66 31.24 C-2.64 28.6 -3.6 25.96 -4.56 23.31 C-4.9 22.4 -5.25 21.49 -5.6 20.55 C-5.92 19.66 -6.24 18.78 -6.57 17.86 C-6.86 17.05 -7.16 16.24 -7.47 15.4 C-8.09 12.57 -7.82 10.76 -7 8 C-5.37 5.76 -5.37 5.76 -3.44 3.69 C-2.48 2.64 -2.48 2.64 -1.5 1.57 C-0.76 0.79 -0.76 0.79 0 0 Z " fill="#000100" transform="translate(248,254)"/>
<path d="M0 0 C4.98 -0.02 9.96 -0.04 14.94 -0.05 C16.63 -0.06 18.32 -0.07 20.02 -0.08 C22.46 -0.09 24.9 -0.09 27.34 -0.1 C28.09 -0.1 28.84 -0.11 29.6 -0.11 C34.49 -0.11 39.17 0.24 44 1 C45 2 45 2 45.13 4.03 C45.13 4.85 45.13 5.66 45.12 6.5 C45.13 7.72 45.13 7.72 45.13 8.97 C45 11 45 11 44 12 C39.05 12 34.1 12 29 12 C28.34 26.85 27.68 41.7 27 57 C23.37 57 19.74 57 16 57 C14 55 14 55 13.76 53.13 C13.76 52.37 13.77 51.61 13.77 50.83 C13.77 49.96 13.77 49.1 13.77 48.22 C13.78 47.29 13.79 46.36 13.8 45.4 C13.81 44.45 13.81 43.5 13.81 42.51 C13.82 39.47 13.85 36.42 13.88 33.38 C13.89 31.31 13.89 29.25 13.9 27.19 C13.92 22.12 13.96 17.06 14 12 C13.08 11.95 12.17 11.9 11.23 11.85 C10.04 11.78 8.85 11.7 7.62 11.62 C6.44 11.56 5.26 11.49 4.04 11.41 C1 11 1 11 -1 9 C-0.98 6.84 -0.98 6.84 -0.62 4.38 C-0.51 3.56 -0.4 2.74 -0.29 1.9 C-0.19 1.27 -0.1 0.65 0 0 Z " fill="#000100" transform="translate(647,83)"/>
<path d="M0 0 C2.67 1.08 3.76 2.8 5.06 5.3 C7.02 10.96 7.16 17.08 7.6 23.02 C7.72 24.46 7.83 25.9 7.95 27.34 C8.18 30.18 8.4 33.02 8.61 35.86 C8.87 39.23 9.17 42.59 9.49 45.96 C9.64 47.65 9.78 49.33 9.91 51.02 C10.03 52.14 10.03 52.14 10.15 53.29 C10.29 55.35 10.29 55.35 9.91 58.77 C6.73 62.07 3.05 63.85 -1.09 65.77 C-3.48 62.19 -3.47 60.21 -3.72 55.94 C-3.76 55.26 -3.8 54.59 -3.85 53.89 C-3.93 52.46 -4.01 51.02 -4.09 49.59 C-4.21 47.44 -4.34 45.29 -4.47 43.14 C-4.98 34.68 -5.2 26.25 -5.09 17.77 C-8.78 18.27 -11.69 18.8 -14.85 20.8 C-15.49 21.2 -16.14 21.6 -16.8 22.01 C-17.45 22.43 -18.1 22.84 -18.78 23.27 C-25.78 27.67 -25.78 27.67 -29.09 28.77 C-34.31 23.95 -34.31 23.95 -35.09 19.77 C-29.77 16.41 -24.44 13.08 -19.09 9.77 C-18.31 9.29 -17.53 8.8 -16.73 8.3 C-14.44 6.88 -12.14 5.48 -9.84 4.08 C-9.12 3.64 -8.41 3.19 -7.67 2.73 C-2.64 -0.29 -2.64 -0.29 0 0 Z " fill="#000100" transform="translate(927.087646484375,1059.228271484375)"/>
<path d="M0 0 C4.45 0.58 7.85 2.39 11.66 4.64 C12.59 5.19 12.59 5.19 13.55 5.74 C14.87 6.51 16.18 7.29 17.49 8.06 C19.49 9.24 21.49 10.41 23.5 11.57 C24.78 12.32 26.06 13.07 27.34 13.83 C28.23 14.34 28.23 14.34 29.14 14.87 C33.03 17.19 35.94 19.71 39 23 C37.68 25.64 36.36 28.28 35 31 C30.43 30.57 27.52 28.54 23.87 25.96 C23.25 25.64 22.63 25.33 22 25 C18.02 26.33 17.11 28.73 15.16 32.2 C14.8 32.82 14.44 33.45 14.07 34.09 C12.91 36.1 11.77 38.11 10.62 40.12 C9.12 42.76 7.61 45.38 6.1 48.01 C5.74 48.63 5.38 49.26 5.01 49.9 C2.56 54.13 -0.04 58.12 -3 62 C-7.05 60.77 -10.44 59.3 -14 57 C-12.41 52.55 -10.1 48.64 -7.65 44.62 C-6.79 43.19 -5.93 41.76 -5.07 40.33 C-3.72 38.09 -2.36 35.86 -1.01 33.62 C0.31 31.46 1.61 29.29 2.91 27.12 C3.32 26.45 3.73 25.78 4.15 25.09 C6.45 21.32 6.45 21.32 7 17 C3.63 13.92 -0.18 11.49 -4 9 C-2.8 5.92 -1.52 2.94 0 0 Z " fill="#000100" transform="translate(912,149)"/>
<path d="M0 0 C3.74 1.69 5.35 3.15 7 7 C5.8 10.51 3.85 12.14 0.88 14.25 C0.15 14.77 -0.57 15.29 -1.32 15.83 C-1.87 16.21 -2.43 16.6 -3 17 C-2.11 21.56 0.53 24.45 3.44 27.94 C4.53 29.28 5.62 30.62 6.71 31.96 C7.26 32.63 7.81 33.31 8.38 34 C10.81 37 13.2 40.02 15.56 43.06 C16.35 44.06 17.13 45.07 17.94 46.1 C19.97 48.96 21.52 51.82 23 55 C20.03 56.98 17.06 58.96 14 61 C8.85 56.86 4.95 52.68 1.12 47.31 C0.09 45.9 -0.94 44.49 -1.98 43.07 C-2.74 42.04 -2.74 42.04 -3.51 40.99 C-6.34 37.21 -9.39 33.63 -12.45 30.04 C-14 28 -14 28 -14 26 C-19.94 30.45 -19.94 30.45 -26 35 C-32 31 -32 31 -32.88 28.25 C-32.92 27.51 -32.96 26.76 -33 26 C-22.29 16.93 -11.25 8.38 0 0 Z " fill="#000100" transform="translate(324,188)"/>
<path d="M0 0 C5.03 4.87 8.01 9.27 8.31 16.38 C8.17 21.42 7.17 25.77 3.54 29.51 C-1.89 34.15 -5.66 34.46 -12.66 34.41 C-18.82 33.65 -22.14 30.27 -25.94 25.62 C-28.59 19.08 -28.3 13.86 -26.08 7.27 C-23.91 2.71 -20.69 0.77 -16.12 -1.31 C-10.63 -2.52 -4.98 -3.01 0 0 Z " fill="#FBFDFD" transform="translate(656,1153)"/>
<path d="M0 0 C4.03 3.47 8.87 7.75 9.52 13.26 C9.78 20.21 8.93 24.68 4.25 29.94 C0.57 33.85 -2.75 35.29 -8.12 35.62 C-15.04 35.32 -19.44 31.9 -24.44 27.43 C-27.26 24.23 -27.09 20.38 -27.02 16.34 C-26.26 9.59 -22.54 5.24 -17.43 1.07 C-12.52 -2.23 -5.37 -2.08 0 0 Z " fill="#FBFDFD" transform="translate(995.75,216.0625)"/>
<path d="M0 0 C2.32 2.86 3.17 5.47 4 9 C5.24 9.21 6.48 9.41 7.75 9.62 C11.22 10.5 11.96 10.96 14.5 13.75 C16.21 17.45 16.88 19.01 16 23 C11.58 29.65 4.97 34.81 -1 40 C-5.31 38.6 -7.74 36.61 -10.88 33.38 C-11.74 32.48 -12.61 31.59 -13.5 30.67 C-16.25 27.74 -18.91 24.75 -21.53 21.7 C-23.26 19.7 -25.09 17.83 -27 16 C-24 8.75 -15.96 2.64 -8.88 -0.47 C-5.56 -1.4 -3.23 -1.08 0 0 Z " fill="#000100" transform="translate(511,471)"/>
<path d="M0 0 C6.78 2.52 14.72 6.18 18.69 12.5 C20.14 16.38 20.62 18.9 20 23 C17.94 25.89 16.68 26.82 13.25 27.75 C12.14 27.87 12.14 27.87 11 28 C11.35 28.54 11.7 29.07 12.06 29.62 C13.37 32.93 13.1 34.63 12 38 C9.38 40.94 9.38 40.94 6 43 C-0.24 42.88 -4.23 40.4 -9.25 37.06 C-9.96 36.61 -10.66 36.15 -11.39 35.68 C-14.28 33.81 -17.14 31.91 -20 30 C-18.44 25.26 -15.79 21.74 -12.81 17.81 C-11.82 16.49 -10.83 15.16 -9.84 13.83 C-9.36 13.18 -8.88 12.53 -8.38 11.87 C-5.5 7.97 -2.75 3.99 0 0 Z " fill="#000100" transform="translate(764,447)"/>
<path d="M0 0 C4.25 0.86 6.26 2.77 9.44 5.75 C9.96 6.23 10.47 6.72 11.01 7.22 C15.57 11.51 19.99 15.96 24.4 20.42 C27.94 23.99 31.57 27.39 35.41 30.63 C38.92 33.66 40.36 35.28 41 40 C38.69 41.98 36.38 43.96 34 46 C25.63 39.69 18.34 32.51 11.02 25.03 C9.89 23.89 9.89 23.89 8.75 22.72 C8.07 22.03 7.4 21.34 6.7 20.62 C5.08 18.92 5.08 18.92 3 18 C3.01 18.76 3.02 19.52 3.04 20.3 C3.04 21.29 3.05 22.29 3.06 23.31 C3.07 24.3 3.09 25.28 3.1 26.3 C3 29 3 29 2 32 C0.52 31.86 -0.96 31.71 -2.44 31.56 C-3.26 31.48 -4.08 31.4 -4.93 31.32 C-7 31 -7 31 -8 30 C-8.23 26.48 -8.09 22.96 -8 19.44 C-8.01 18.46 -8.01 17.48 -8.02 16.47 C-7.83 9.65 -6.34 6.18 -1.5 1.35 C-0.76 0.68 -0.76 0.68 0 0 Z " fill="#000100" transform="translate(1021,977)"/>
<path d="M0 0 C3.79 3.96 5.81 7.31 6.06 12.81 C5.84 17.9 4.16 21.4 0.47 24.95 C-4.43 28.24 -9.64 27.72 -15.31 26.81 C-19.53 24.87 -22.29 22.32 -24.88 18.5 C-25.77 12.98 -25.14 8.4 -22.56 3.44 C-16.41 -3.74 -7.96 -5.26 0 0 Z " fill="#369DA9" transform="translate(701.3125,720.1875)"/>
<path d="M0 0 C0.92 -0.01 1.84 -0.01 2.78 -0.02 C5.72 0.27 7.87 0.93 10.5 2.25 C11.81 4.38 11.81 4.38 12.5 6.25 C11.51 7.57 10.52 8.89 9.5 10.25 C8.53 9.9 7.56 9.55 6.56 9.19 C2.19 7.94 -2.13 7.99 -6.5 9.25 C-8.94 11.2 -9.49 12.21 -10.5 15.25 C-11.11 21.11 -11.11 21.11 -8.5 26.19 C-4.57 28.89 -2.25 29.1 2.5 29.25 C3.49 28.92 4.48 28.59 5.5 28.25 C5.5 26.6 5.5 24.95 5.5 23.25 C3.19 22.59 0.88 21.93 -1.5 21.25 C-0.62 16.38 -0.62 16.38 0.5 15.25 C2.67 15.31 4.84 15.45 7 15.62 C8.19 15.72 9.37 15.81 10.59 15.9 C13.5 16.25 13.5 16.25 14.5 17.25 C14.73 19.71 14.87 22.1 14.94 24.56 C14.98 25.24 15.03 25.92 15.08 26.62 C15.12 28.61 15.12 28.61 14.5 32.25 C9.15 36.81 4.31 37.67 -2.51 37.59 C-8.81 36.87 -13.72 34.11 -18.06 29.56 C-20.34 24.31 -21.3 19.41 -19.87 13.78 C-17.44 7.68 -14.16 3.98 -8.15 1.14 C-5.28 0.18 -3.02 -0.02 0 0 Z " fill="#000100" transform="translate(650.5,415.75)"/>
<path d="M0 0 C1.69 5.43 2.7 10.78 3.51 16.41 C3.64 17.29 3.77 18.17 3.9 19.08 C4.18 20.94 4.45 22.8 4.71 24.66 C5.12 27.49 5.54 30.32 5.96 33.15 C6.23 34.97 6.49 36.78 6.76 38.59 C6.95 39.85 6.95 39.85 7.14 41.14 C7.8 45.81 8.22 50.28 8 55 C6.44 56.56 4.77 56.5 2.62 56.81 C1.83 56.94 1.04 57.07 0.23 57.21 C-2 57 -2 57 -3.58 55.29 C-5.12 52.8 -5.57 51.09 -5.98 48.2 C-6.12 47.26 -6.26 46.31 -6.41 45.33 C-6.61 43.81 -6.61 43.81 -6.82 42.25 C-7.05 40.67 -7.05 40.67 -7.28 39.07 C-7.76 35.71 -8.22 32.36 -8.69 29 C-9.01 26.74 -9.33 24.48 -9.66 22.22 C-9.96 20.06 -10.27 17.91 -10.57 15.75 C-10.72 14.73 -10.86 13.72 -11.01 12.67 C-11.14 11.72 -11.27 10.77 -11.41 9.8 C-11.52 8.97 -11.64 8.13 -11.75 7.28 C-12 5 -12 5 -12 1 C-3.96 -1.28 -3.96 -1.28 0 0 Z " fill="#000100" transform="translate(726,1136)"/>
<path d="M0 0 C3.63 0 7.26 0 11 0 C12.97 3.94 13.24 4.63 12.78 8.67 C12.64 10.06 12.64 10.06 12.49 11.47 C12.37 12.45 12.26 13.44 12.14 14.46 C12.03 15.48 11.91 16.51 11.8 17.56 C11.44 20.83 11.06 24.1 10.69 27.38 C10.44 29.57 10.2 31.77 9.96 33.96 C8.07 51.11 8.07 51.11 7 57 C2.14 57.19 -1.44 56.64 -6 55 C-5.31 48.13 -4.61 41.26 -3.92 34.39 C-3.68 32.06 -3.45 29.72 -3.21 27.39 C-2.87 24.03 -2.53 20.67 -2.19 17.3 C-2.09 16.26 -1.98 15.22 -1.88 14.15 C-1.39 9.4 -0.87 4.7 0 0 Z " fill="#000100" transform="translate(702,86)"/>
<path d="M0 0 C5.13 -0.3 7.74 0.19 12 3 C10.56 14.9 8.53 26.65 6.38 38.44 C6.05 40.25 5.72 42.06 5.39 43.87 C4.6 48.25 3.8 52.62 3 57 C-1.82 57.19 -5.5 56.76 -10 55 C-9.2 50.18 -8.4 45.37 -7.6 40.55 C-7.33 38.92 -7.06 37.29 -6.79 35.66 C-5.87 30.11 -4.94 24.55 -4 19 C-3.86 18.19 -3.72 17.37 -3.58 16.54 C-3.18 14.17 -2.77 11.8 -2.36 9.43 C-2.18 8.35 -2.18 8.35 -1.99 7.25 C-1.12 2.23 -1.12 2.23 0 0 Z " fill="#000100" transform="translate(554,1132)"/>
<path d="M0 0 C1.68 0.23 3.34 0.53 5 0.88 C5.91 1.06 6.82 1.24 7.75 1.43 C10 2 10 2 11 3 C10.53 9.8 9.11 16.12 7.35 22.69 C7.09 23.67 6.83 24.65 6.56 25.67 C6.01 27.73 5.46 29.79 4.91 31.85 C4.06 35.02 3.22 38.19 2.39 41.36 C1.86 43.36 1.32 45.37 0.79 47.38 C0.54 48.33 0.29 49.28 0.03 50.26 C-0.32 51.56 -0.32 51.56 -0.69 52.9 C-0.89 53.67 -1.1 54.44 -1.31 55.23 C-2 57 -2 57 -4 58 C-6.16 57.44 -6.16 57.44 -8.62 56.56 C-9.85 56.13 -9.85 56.13 -11.1 55.69 C-11.73 55.46 -12.35 55.24 -13 55 C-13.98 51.22 -13.95 48.71 -12.94 44.95 C-12.68 43.97 -12.42 43 -12.16 41.99 C-11.87 40.95 -11.58 39.9 -11.29 38.83 C-11 37.75 -10.71 36.67 -10.42 35.56 C-9.81 33.29 -9.19 31.01 -8.58 28.74 C-7.63 25.25 -6.69 21.76 -5.76 18.26 C-5.16 16.05 -4.57 13.85 -3.98 11.64 C-3.69 10.59 -3.41 9.54 -3.12 8.46 C-2.86 7.49 -2.59 6.53 -2.32 5.53 C-2.09 4.68 -1.86 3.83 -1.62 2.95 C-1 1 -1 1 0 0 Z " fill="#000100" transform="translate(782,99)"/>
<path d="M0 0 C4.26 0.81 6.1 2.79 9 6 C9.5 6.99 9.5 6.99 10 8 C3.94 16.86 -2.16 25.7 -8.31 34.5 C-8.89 35.32 -9.46 36.15 -10.05 37 C-13.6 42.07 -17.25 47.07 -21 52 C-26.04 50.71 -28.45 48.74 -32 45 C-31.3 44 -30.59 43.01 -29.87 41.98 C-28.87 40.57 -27.87 39.16 -26.88 37.75 C-26.34 37 -25.81 36.24 -25.26 35.47 C-22.26 31.22 -19.27 26.96 -16.3 22.7 C-15.68 21.82 -15.07 20.95 -14.44 20.04 C-13.26 18.35 -12.08 16.65 -10.9 14.95 C-7.37 9.89 -3.74 4.91 0 0 Z " fill="#000100" transform="translate(960,178)"/>
<path d="M0 0 C2.03 2.08 3.86 4.13 5.69 6.38 C6.21 7 6.74 7.63 7.27 8.28 C8.34 9.56 9.41 10.85 10.47 12.14 C11.87 13.85 13.29 15.54 14.71 17.23 C21.24 25.06 21.24 25.06 23 29 C20.31 30.19 20.31 30.19 17 31 C14.06 29.69 12.45 28.91 11 26 C10 26.2 10 26.2 8.99 26.4 C4.66 27.27 0.33 28.13 -4 29 C-4.06 30.26 -4.12 31.52 -4.19 32.81 C-4.6 36.2 -4.67 36.73 -7.44 39 C-10 40 -10 40 -12 40 C-13.1 35.77 -12.91 32.17 -12.48 27.84 C-12.41 27.16 -12.35 26.49 -12.28 25.79 C-12.14 24.38 -12 22.96 -11.85 21.54 C-11.63 19.38 -11.41 17.21 -11.2 15.04 C-10.15 4.45 -10.15 4.45 -9 1 C-5.6 -0.84 -3.63 -1.3 0 0 Z " fill="#000100" transform="translate(585,427)"/>
<path d="M0 0 C1.89 2.43 2.03 3.68 1.71 6.75 C0.95 10.22 -0.2 13.14 -1.65 16.39 C-2.18 17.57 -2.71 18.76 -3.26 19.98 C-3.67 20.89 -3.67 20.89 -4.09 21.82 C-4.94 23.69 -5.77 25.56 -6.61 27.43 C-10.7 36.56 -10.7 36.56 -13 40 C-13.33 39.34 -13.66 38.68 -14 38 C-16.02 36.87 -16.02 36.87 -18 36 C-17.84 35.38 -17.67 34.77 -17.5 34.13 C-16.69 29.95 -16.4 27.15 -18.4 23.3 C-20.45 20.72 -22.24 18.81 -25 17 C-27.54 16.79 -29.47 17.14 -31.95 17.72 C-34 18 -34 18 -37.06 16.19 C-39 14 -39 14 -39 12 C-34.09 10.12 -29.18 8.25 -24.27 6.39 C-22.59 5.76 -20.92 5.12 -19.26 4.48 C-16.86 3.56 -14.45 2.65 -12.05 1.75 C-11.3 1.46 -10.56 1.17 -9.79 0.87 C-6.1 -0.5 -3.74 -1.36 0 0 Z " fill="#000100" transform="translate(812,483)"/>
<path d="M0 0 C3.38 0.25 3.38 0.25 7 1 C8.31 2.69 8.31 2.69 9 5 C8.61 7.66 8.61 7.66 7.7 10.73 C7.36 11.88 7.03 13.03 6.69 14.22 C6.31 15.46 5.93 16.7 5.55 17.97 C5.17 19.26 4.79 20.55 4.41 21.84 C3.61 24.53 2.81 27.23 2 29.92 C0.96 33.37 -0.07 36.82 -1.08 40.27 C-1.87 42.93 -2.65 45.59 -3.45 48.24 C-4.01 50.14 -4.57 52.03 -5.13 53.92 C-5.65 55.64 -5.65 55.64 -6.18 57.4 C-6.64 58.92 -6.64 58.92 -7.1 60.46 C-8 63 -8 63 -10 66 C-12.31 65.67 -14.62 65.34 -17 65 C-18.14 60.87 -17.78 58.23 -16.57 54.14 C-16.23 52.99 -15.89 51.83 -15.55 50.64 C-15.17 49.41 -14.8 48.17 -14.41 46.89 C-14.03 45.61 -13.65 44.32 -13.27 43.03 C-12.27 39.65 -11.26 36.27 -10.25 32.89 C-9.42 30.12 -8.6 27.36 -7.78 24.59 C-6.1 18.88 -4.4 13.17 -2.69 7.47 C-2.39 6.46 -2.08 5.45 -1.77 4.41 C-1 2 -1 2 0 0 Z " fill="#000100" transform="translate(701,1134)"/>
<path d="M0 0 C1.26 2.08 1.99 3.55 2.06 6 C1 8 1 8 -2.44 9.75 C-4.69 10.93 -5.78 11.61 -7.01 13.86 C-8.06 17.4 -8.27 19.33 -6.88 22.81 C-3.21 27.09 -0.47 28.5 5.1 29 C7.59 29 9.03 28.52 11 27 C12.9 24.15 13.46 22.58 14.12 19.31 C14.29 18.5 14.46 17.7 14.63 16.86 C14.75 16.25 14.88 15.63 15 15 C17 14.96 19 14.96 21 15 C22 16 22 16 22.44 19.5 C22.35 25.11 19.65 28.91 16 33 C12.32 36.32 8.67 38.28 3.69 38.69 C-2.19 38.35 -7.29 35.37 -12 32 C-15.46 28.1 -16.79 24.18 -17 19 C-15.71 11.65 -12.68 6.87 -6.9 2.24 C-4.62 0.75 -2.74 0 0 0 Z " fill="#000100" transform="translate(478,499)"/>
<path d="M0 0 C6.5 4.96 14.87 12.79 16.39 21.16 C16.54 24.08 16.31 26.41 14.94 29 C11.62 30.71 9.7 30.6 6 30 C-1.42 25.72 -10.06 18.19 -12.69 9.81 C-13.04 5.46 -12.51 3.55 -10 0 C-6.14 -1.29 -3.95 -0.95 0 0 Z " fill="#FBFDFD" transform="translate(999,1022)"/>
<path d="M0 0 C6.64 6.07 14.17 14.59 14.62 23.94 C14.4 26.82 14.17 27.78 12.38 30.12 C8.95 31.39 7.49 31.21 4 30 C-3.48 24.68 -10.12 17.8 -13 9 C-13.44 5.81 -13.44 5.81 -13 3 C-9.05 -2.05 -5.73 -2.81 0 0 Z " fill="#FBFDFD" transform="translate(963,1052)"/>
<path d="M0 0 C1.98 0 3.96 0 6 0 C8.03 3.29 8.12 5.13 7.32 8.88 C7.04 10.26 7.04 10.26 6.75 11.67 C6.44 13.1 6.44 13.1 6.12 14.56 C5.73 16.46 5.34 18.36 4.95 20.25 C4.77 21.09 4.58 21.93 4.4 22.8 C3.91 25.12 3.91 25.12 4 28 C5.07 28.28 6.14 28.55 7.25 28.84 C8.64 29.21 10.04 29.57 11.44 29.94 C12.14 30.12 12.85 30.3 13.58 30.49 C18.89 31.89 18.89 31.89 20 33 C20.12 35.5 20.12 35.5 20 38 C19.67 38.33 19.34 38.66 19 39 C11.39 38.94 -1.46 38.54 -7 33 C-6.69 30.07 -6.69 30.07 -5.92 26.35 C-5.72 25.36 -5.72 25.36 -5.51 24.36 C-5.08 22.26 -4.63 20.16 -4.19 18.06 C-3.9 16.65 -3.61 15.24 -3.32 13.83 C-1.22 3.65 -1.22 3.65 0 0 Z " fill="#000100" transform="translate(680,419)"/>
<path d="M0 0 C2.06 1.75 2.06 1.75 4 4 C3.9 5.94 3.9 5.94 3 8 C1.08 9.65 1.08 9.65 -1.4 11.23 C-2.29 11.81 -3.18 12.38 -4.1 12.97 C-5.04 13.56 -5.97 14.15 -6.94 14.75 C-7.87 15.35 -8.8 15.95 -9.76 16.57 C-16.7 21 -16.7 21 -19 21 C-18.35 22.06 -17.7 23.12 -17.03 24.21 C-16.19 25.6 -15.34 26.99 -14.5 28.38 C-14.07 29.07 -13.64 29.77 -13.2 30.49 C-10 35.77 -10 35.77 -10 38 C-11.65 38.66 -13.3 39.32 -15 40 C-18.77 36.41 -21.89 32.7 -24.88 28.44 C-25.29 27.87 -25.71 27.31 -26.13 26.73 C-29.06 22.56 -29.06 22.56 -28.79 19.95 C-27.43 16.59 -24.21 15.11 -21.25 13.25 C-20.58 12.82 -19.92 12.39 -19.23 11.94 C-17.16 10.61 -15.08 9.3 -13 8 C-12.35 7.59 -11.69 7.18 -11.02 6.76 C-7.36 4.48 -3.69 2.23 0 0 Z " fill="#000100" transform="translate(832,509)"/>
<path d="M0 0 C3.5 2.37 5.59 5.15 6.51 9.29 C6.71 13.36 6.31 15.5 4.12 19 C0.92 22.02 -1.4 22.41 -5.83 22.34 C-9.68 21.73 -12.39 19.85 -15 17 C-16.78 12.54 -15.83 9.04 -14 4.77 C-11.13 -0.29 -5.38 -1.44 0 0 Z " fill="#FBFDFD" transform="translate(731,438)"/>
<path d="M0 0 C3.45 2.79 5.6 5.81 7 10 C4.36 9.67 1.72 9.34 -1 9 C-1.42 11.87 -1.42 11.87 -1 15 C1.43 16.79 1.43 16.79 4 18 C4 18.66 4 19.32 4 20 C0.3 22.37 -2.68 22.58 -7 22 C-11.25 19.81 -14.37 17.55 -16.19 13.06 C-15.88 8.1 -14.58 4.4 -10.81 1.06 C-7.1 -0.34 -3.84 -1.07 0 0 Z " fill="#FBFDFD" transform="translate(547,452)"/>
<path d="M0 0 C2.53 2.14 2.9 3.32 3.38 6.56 C2.91 9.56 2.42 10.21 0 12 C-3.07 12.58 -3.07 12.58 -6.56 12.81 C-8.3 12.95 -8.3 12.95 -10.07 13.08 C-13 13 -13 13 -15 11 C-15.2 8.4 -15.2 8.4 -15.12 5.38 C-15.11 4.37 -15.09 3.37 -15.07 2.34 C-15.05 1.57 -15.02 0.79 -15 0 C-9.9 -1.18 -5.08 -1.28 0 0 Z " fill="#FBFDFD" transform="translate(625,95)"/>
<path d="M0 0 C0.66 0.33 1.32 0.66 2 1 C1.67 6.28 1.34 11.56 1 17 C-4.15 15.97 -6.63 14.66 -11 12 C-7.49 7.82 -3.92 3.8 0 0 Z " fill="#F7FBFB" transform="translate(878,152)"/>
<path d="M0 0 C1.1 0.35 1.1 0.35 2.23 0.71 C2.56 2.36 2.89 4.01 3.23 5.71 C0.59 8.02 -2.05 10.33 -4.77 12.71 C-9.27 10.46 -9.27 10.46 -10.77 6.71 C-9.56 5.51 -8.32 4.33 -7.08 3.15 C-6.4 2.49 -5.71 1.83 -5.01 1.15 C-2.77 -0.29 -2.77 -0.29 0 0 Z " fill="#FBFDFD" transform="translate(515.76953125,488.28515625)"/>
<path d="M0 0 C4.69 0.68 7.96 3.5 11 7 C11.44 9.88 11.44 9.88 11 12 C9.33 12.71 9.33 12.71 7 13 C4.42 11.57 4.42 11.57 1.75 9.56 C0.86 8.9 -0.03 8.25 -0.95 7.57 C-1.63 7.05 -2.3 6.53 -3 6 C-1.12 1.12 -1.12 1.12 0 0 Z " fill="#FBFDFD" transform="translate(758,469)"/>
<path d="M0 0 C2.19 1.44 2.19 1.44 4 3 C2.7 6.89 1.29 9.48 -2 12 C-4.71 11.92 -5.73 11.24 -7.75 9.44 C-8.16 8.96 -8.57 8.49 -9 8 C-7.76 4.27 -6.16 3.25 -3 1 C-2.01 0.67 -1.02 0.34 0 0 Z " fill="#FBFDFD" transform="translate(504,478)"/>
<path d="M0 0 C4.43 1.39 7.03 3.44 10 7 C10 8.32 10 9.64 10 11 C8.3 11.68 8.3 11.68 6 12 C3.64 10.79 3.64 10.79 1.25 9.06 C0.45 8.5 -0.35 7.93 -1.17 7.35 C-1.78 6.9 -2.38 6.46 -3 6 C-2.01 4.02 -1.02 2.04 0 0 Z " fill="#FBFDFD" transform="translate(766,457)"/>
<path d="M0 0 C0 4.25 -1.82 6.39 -4 10 C-7.37 8.61 -8.99 7.02 -11 4 C-9.73 3.52 -8.46 3.04 -7.19 2.56 C-6.48 2.3 -5.77 2.03 -5.04 1.75 C-3.37 1.14 -1.69 0.56 0 0 Z " fill="#F3F9F9" transform="translate(805,491)"/>
<path d="M0 0 C3.63 2.65 5.9 5.02 8 9 C5.09 10.26 3.2 11 0 11 C-1.35 6.95 -0.62 4.21 0 0 Z " fill="#FBFDFD" transform="translate(582,437)"/>
<path d="M0 0 C0.33 0 0.66 0 1 0 C1 7.26 1 14.52 1 22 C0.67 22 0.34 22 0 22 C0 14.74 0 7.48 0 0 Z " fill="#FBFDFD" transform="translate(63,632)"/>
</svg>
