<svg width="151" height="47" viewBox="0 0 151 47" fill="none" xmlns="http://www.w3.org/2000/svg">
<mask id="mask0_302_4454" style="mask-type:luminance" maskUnits="userSpaceOnUse" x="0" y="0" width="151" height="47">
<path d="M150.341 0H0.400391V47H150.341V0Z" fill="white"/>
</mask>
<g mask="url(#mask0_302_4454)">
<path d="M24.7072 39.2698C24.7072 39.2698 25.5143 40.0148 25.3591 40.4495C25.0176 41.4429 23.4654 41.8775 22.441 41.6291C20.8267 41.1945 19.3677 39.3319 19.3677 37.6866C19.3987 35.2341 21.8822 33.2473 23.9621 31.9746C26.1041 30.6397 28.8049 30.2672 31.3195 30.3292C34.0513 30.3603 37.0004 30.888 39.2666 32.3781C40.5394 33.2163 41.5949 34.5201 42.0916 35.9792C42.371 36.7863 42.0916 38.5868 42.0916 38.5868C42.0916 38.5868 44.3578 35.4825 45.1649 33.744C46.1273 31.6952 47.5553 29.5221 47.2759 27.2559C47.1517 26.2315 46.4687 25.2071 45.6306 24.6172C42.9298 22.6615 39.2356 22.32 35.9139 22.1958C32.4681 22.0717 28.9602 22.8167 25.7006 24.0274C23.4965 24.8345 21.3234 26.0142 19.616 27.6285C17.6913 29.46 15.8598 31.6641 15.2078 34.2407C14.7732 35.9171 14.8664 37.8418 15.6735 39.3629C16.3875 40.7289 17.8465 41.7222 19.2746 42.3121C20.6715 42.8709 22.3789 43.1192 23.8069 42.6536C24.7693 42.3431 26.0731 41.7222 26.1041 40.6978C26.2283 39.2077 24.7072 39.2698 24.7072 39.2698Z" fill="#0285C6"/>
<path d="M24.1486 40.6668C24.1486 40.6668 23 40.4495 22.7206 40.0149C22.2859 39.394 22.317 38.5248 22.7516 37.9039C23.4346 36.8795 24.9247 36.4759 26.1664 36.4448C28.2463 36.3517 30.8229 36.8174 32.1268 38.4627C33.2133 39.8286 33.4306 42.1258 32.6545 43.678C31.8474 45.2302 29.7985 45.8511 28.1221 46.3477C25.4834 47.1238 22.6274 47.1859 19.8956 46.7513C17.1017 46.3167 14.3698 45.2302 11.9484 43.7401C9.27868 42.1258 6.82624 39.9838 4.99466 37.4693C3.00787 34.7685 1.54883 31.602 0.865867 28.3114C0.244996 25.3623 0.338127 22.1958 0.927955 19.2157C1.61091 15.8629 2.94579 12.6655 4.87049 9.80944C6.32954 7.63639 8.28529 5.77377 10.4273 4.25264C12.352 2.88672 14.5561 1.92437 16.7602 1.17932C18.5607 0.558452 20.4544 0.154887 22.3791 0.0307124C24.7384 -0.093462 27.1598 0.185929 29.457 0.71367C31.3817 1.14828 33.3064 1.8002 35.0759 2.7315C37.1558 3.81803 40.7569 6.8603 40.7569 6.8603C40.7569 6.8603 33.4306 6.1463 29.8606 6.79822C25.6387 7.54326 21.4788 9.0644 17.8467 11.2685C15.1149 12.9138 12.7245 15.18 10.7688 17.6945C9.18555 19.7123 7.94381 22.0096 7.16772 24.431C6.36058 26.8834 5.95702 29.5221 6.11223 32.0987C6.20536 33.8372 6.67102 35.6067 7.44711 37.1899C8.2232 38.7421 9.34077 40.1701 10.6446 41.3187C12.352 42.8088 14.3077 43.9574 16.4498 44.7335C18.1571 45.3544 20.0508 45.5717 21.8513 45.5406C23.4035 45.5096 25.0799 45.4475 26.4458 44.7335C27.5944 44.1437 28.8672 43.2434 29.2397 42.0016C29.5501 40.9772 29.3639 39.6734 28.6809 38.8662C27.998 38.0591 26.7562 37.8729 25.7007 37.8729C24.9247 37.8729 24.0554 38.0902 23.4966 38.6179C23.1862 38.9283 23.031 39.3009 23.1241 39.7044C23.2483 40.108 24.1796 40.6668 24.1486 40.6668Z" fill="#2A2559"/>
<path d="M23.9002 40.1387C23.9002 40.1387 23.6829 39.4868 23.8691 39.2385C24.1795 38.8659 24.8315 38.7418 25.2971 38.928C25.949 39.1764 26.5389 39.9214 26.5389 40.6354C26.5389 41.5357 25.7628 42.4049 24.9556 42.8085C23.2172 43.7087 20.92 43.4604 19.0574 42.8085C17.4741 42.2807 15.922 41.1942 15.1148 39.7352C13.9041 37.6242 13.6247 34.8924 14.1835 32.533C14.7423 30.1116 16.5428 28.0938 18.2502 26.3554C20.1128 24.4617 22.348 22.8474 24.8004 21.823C27.5943 20.6433 30.7297 20.3329 33.772 20.1156C36.3797 19.9293 39.0494 19.9914 41.626 20.4571C43.2403 20.7675 44.8856 21.2021 46.2826 22.0403C46.8414 22.3818 47.7106 23.3441 47.7106 23.3441C47.7106 23.3441 47.3381 18.3772 46.562 16.0179C45.9101 13.969 45.2271 11.7649 43.6749 10.3058C42.5884 9.25035 41.0362 8.75365 39.5461 8.41217C36.7522 7.82235 33.772 7.94652 30.9471 8.47426C27.6564 9.06409 24.4589 10.3679 21.5098 11.9511C18.7469 13.4412 16.1393 15.3039 13.9041 17.5079C12.0725 19.3085 10.3652 21.3573 9.30967 23.6856C8.25419 26.0449 7.6954 28.7147 7.72645 31.2913C7.72645 33.3712 8.16106 35.5132 9.09236 37.3758C9.96158 39.1143 11.3275 40.6044 12.8176 41.8461C14.1214 42.9326 15.6426 43.7708 17.2258 44.3296C18.7159 44.8573 20.3612 45.1367 21.9444 45.0436C23.807 44.9505 25.918 44.7953 27.346 43.5846C28.1842 42.8706 28.774 41.6909 28.6809 40.6044C28.6188 39.8593 28.091 39.0832 27.4391 38.6797C26.7251 38.2451 25.7628 37.9657 24.9556 38.183C24.2106 38.3692 23.5897 38.7728 23.4966 39.3937C23.3724 39.7352 23.9312 40.1387 23.9002 40.1387Z" fill="#025198"/>
<path fill-rule="evenodd" clip-rule="evenodd" d="M76.0851 16.6389C74.2846 17.1046 73.4154 17.5702 72.453 18.6878C71.2423 20.0847 70.7456 21.6369 70.8388 23.9341C70.9009 25.5484 70.994 25.952 71.5838 27.1316C72.2668 28.5286 73.136 29.4289 74.4088 29.9876C74.6261 30.0808 74.9055 30.2049 75.0296 30.267C75.1538 30.3291 75.4332 30.3912 75.6505 30.3912C75.8678 30.3912 76.0851 30.4533 76.1162 30.5154C76.1472 30.5775 76.7991 30.6396 77.5442 30.6396C78.3203 30.6396 78.9411 30.5775 78.9722 30.5154C79.0032 30.4533 79.2826 30.3912 79.562 30.3912C79.8414 30.3912 80.0898 30.3291 80.1518 30.267C80.1829 30.2049 80.3071 30.1429 80.4312 30.1429C80.8348 30.1429 82.0455 29.4289 82.6664 28.808C83.4114 28.094 83.846 27.38 84.2496 26.2003C84.7463 24.8034 84.6532 21.1092 84.0944 20.4573C84.0323 20.3952 84.0012 20.24 83.9702 20.1468C83.9702 19.7743 82.6664 18.2221 81.9834 17.7875C80.4002 16.701 77.7615 16.2043 76.0851 16.6389ZM141.711 16.6389C139.973 17.0735 139.073 17.5392 138.11 18.6257C136.931 19.9295 136.465 21.3575 136.434 23.5616C136.434 25.7347 136.993 27.3179 138.296 28.6838C138.855 29.3047 140.066 30.1118 140.407 30.1118C140.501 30.1118 140.625 30.1739 140.687 30.236C140.718 30.2981 140.966 30.3602 141.215 30.3602C141.463 30.3602 141.68 30.4222 141.742 30.4843C141.773 30.5464 142.425 30.6085 143.17 30.6085C143.946 30.6085 144.567 30.5464 144.598 30.4843C144.629 30.4222 144.909 30.3602 145.188 30.3602C145.468 30.3602 145.716 30.2981 145.778 30.236C145.809 30.1739 145.964 30.1118 146.119 30.1118C146.833 30.1118 148.696 28.6217 149.317 27.5352C149.783 26.697 150.155 25.5484 150.155 24.9586C150.155 24.6792 150.217 24.3688 150.31 24.3067C150.59 24.0273 150.093 20.6125 149.752 20.4262C149.689 20.3952 149.627 20.271 149.627 20.1468C149.627 19.7433 148.479 18.3463 147.734 17.8186C146.865 17.1977 146.057 16.9183 144.691 16.6389C143.45 16.3905 142.736 16.3905 141.711 16.6389ZM58.2351 16.8562C58.204 16.9493 58.173 20.0226 58.204 23.6547L58.2351 30.2981L60.3771 30.3602V26.6349L61.4636 25.3621C62.0534 24.6792 62.5812 24.0894 62.6122 24.0894C62.6433 24.0894 63.0158 24.4929 63.3883 25.0207C63.7608 25.5484 64.1644 26.0451 64.2575 26.1693C64.3507 26.2624 65.0647 27.2558 65.8718 28.3423L67.3308 30.3291H68.4795C69.4728 30.3291 69.6281 30.2981 69.566 30.1118C69.5349 29.9876 69.0072 29.2426 68.4174 28.4355C67.8275 27.6283 67.0204 26.5728 66.6789 26.0761C66.3064 25.5795 65.5924 24.6171 65.0957 23.9341C64.599 23.2512 64.1644 22.6614 64.1644 22.5993C64.1644 22.5372 64.6921 21.8853 65.3751 21.0781C66.027 20.302 67.0825 19.0603 67.6723 18.3153C68.2621 17.5702 68.8209 16.9804 68.883 16.9804C68.9451 16.9804 69.0072 16.8872 69.0072 16.7941C69.0072 16.6389 68.7899 16.6079 67.8586 16.6079H66.71L66.0581 17.446C65.6855 17.9117 65.282 18.4084 65.0957 18.5946C64.9405 18.7809 64.3196 19.4949 63.7608 20.1779C63.202 20.8919 62.426 21.8232 62.0224 22.2578C61.6499 22.6924 61.2153 23.2512 61.06 23.4685C60.4702 24.3067 60.4392 24.1514 60.4392 20.3331C60.4392 17.1977 60.4081 16.7631 60.2219 16.6699C59.7872 16.6079 58.2972 16.6699 58.2351 16.8562ZM88.844 16.8562C88.813 16.9493 88.7509 17.1977 88.7199 17.415C88.6888 17.6323 88.5647 18.0359 88.5026 18.3153C88.4405 18.5946 88.3163 19.0913 88.2542 19.4018C88.1921 19.7122 88.068 20.2089 88.0059 20.5193C87.9438 20.8298 87.8196 21.2954 87.7575 21.6059C87.6954 21.8853 87.5092 22.6924 87.3539 23.3754C87.1987 24.0583 86.9814 25.0207 86.8883 25.5174C86.7641 26.0141 86.6399 26.666 86.5779 26.9454C86.4226 27.7215 85.9259 29.7703 85.8328 30.1118C85.7397 30.3912 85.7707 30.3912 86.7952 30.3912C87.7886 30.3912 87.8507 30.3602 87.9127 30.1118C88.099 29.2426 88.13 28.9942 88.2542 28.5286C88.3163 28.2492 88.4405 27.7215 88.5026 27.3489C88.5647 26.9764 88.6888 26.4487 88.7509 26.1693C88.813 25.8899 89.0303 24.8965 89.2166 23.9652C89.558 22.2267 89.7443 21.699 89.9306 21.8853C89.9927 21.9474 90.1789 22.382 90.3652 22.8476C90.8308 24.0273 91.4827 25.6105 91.6069 25.9209C91.669 26.0761 91.8553 26.4487 92.0105 26.7902C92.1657 27.1316 92.2899 27.4421 92.2899 27.4731C92.2899 27.5042 92.4141 27.8146 92.5382 28.125C92.7866 28.7149 93.1281 29.4289 93.4695 30.236C93.811 31.0121 93.9973 30.8258 94.6182 29.2116C94.8665 28.5907 95.0838 28.0629 95.1459 27.9698C95.208 27.9077 95.2701 27.7835 95.2701 27.6904C95.2701 27.5973 95.4253 27.1627 95.6426 26.697C95.8599 26.2624 96.0772 25.6726 96.1703 25.4242C96.2635 25.1759 96.3876 24.9275 96.4497 24.8344C96.5118 24.7413 96.5739 24.6481 96.5739 24.555C96.5739 24.4619 96.6981 24.1204 96.8222 23.841C96.9464 23.5306 97.1948 22.9407 97.381 22.5372C97.5363 22.1336 97.7225 21.7921 97.7846 21.7921C97.9088 21.7921 98.033 22.1336 98.1882 22.9097C98.2503 23.2822 98.3744 23.7789 98.4365 24.0273C98.4986 24.2756 98.778 25.5795 99.0884 26.8833C99.3989 28.2182 99.6783 29.553 99.7714 29.8324L99.9266 30.3912H100.858C101.386 30.3912 101.82 30.3602 101.851 30.3291C101.882 30.2981 101.665 29.2426 101.355 28.0319C101.044 26.7902 100.734 25.5484 100.672 25.3001C100.61 25.0207 100.485 24.5861 100.423 24.3377C100.361 24.0583 100.237 23.5927 100.144 23.2512C100.051 22.9407 99.9577 22.444 99.8645 22.1336C99.8024 21.8542 99.6783 21.3886 99.6162 21.0781C99.5541 20.7987 99.4299 20.3641 99.3678 20.1158C99.2436 19.6812 99.1505 19.2466 98.8711 18.0669C98.5917 16.8562 98.5296 16.7941 98.095 16.7631C97.6294 16.732 97.6604 16.6699 96.8843 18.7499C96.7291 19.1845 96.5429 19.6501 96.4808 19.8053C96.4187 19.9606 96.2945 20.271 96.2324 20.5193C96.1393 20.7677 96.0151 21.1092 95.953 21.2954C95.8289 21.6059 95.6736 21.9474 95.4563 22.5372C95.3942 22.6924 95.239 23.1581 95.0838 23.5927C94.8355 24.3688 94.494 25.269 94.2767 25.7968C94.2146 25.952 94.1215 26.1693 94.0904 26.2935C93.9352 26.8212 93.6248 26.3555 92.9728 24.6171C92.8176 24.2446 92.6314 23.7789 92.3209 23.096C92.1657 22.7545 92.0415 22.413 92.0415 22.3199C92.0415 22.2267 91.9794 22.1026 91.9174 22.0405C91.8553 21.9784 91.3896 20.8298 90.8619 19.4949C90.3341 18.16 89.8685 17.0114 89.7754 16.9183C89.7133 16.8252 89.4649 16.7631 89.2787 16.7631C89.0613 16.6699 88.8751 16.7631 88.844 16.8562ZM104.18 16.7631C104.055 16.8252 104.024 18.3153 104.024 23.5927V30.3602L106.166 30.2981V16.732L105.266 16.701C104.738 16.701 104.273 16.732 104.18 16.7631ZM110.357 16.7631C110.295 16.8252 110.264 19.8985 110.264 23.5927V30.3602H112.22V25.5484C112.22 22.9097 112.282 20.7367 112.344 20.7367C112.406 20.7367 112.654 20.954 112.903 21.2334C114.331 22.8166 113.958 22.413 117.652 26.7281C120.974 30.6085 121.005 30.6396 121.285 30.6085C121.533 30.5775 121.533 30.4843 121.533 23.6547V16.7631H119.577L119.453 26.1382L119.112 25.8278C118.925 25.6415 118.304 24.9896 117.746 24.3377C117.187 23.6858 116.597 23.0339 116.442 22.9097C116.287 22.7545 115.883 22.2888 115.542 21.8853C115.169 21.4507 114.765 21.016 114.61 20.8608C114.455 20.7056 113.617 19.7743 112.717 18.7499C111.847 17.7565 111.04 16.8872 110.978 16.8252C110.823 16.6699 110.481 16.6699 110.357 16.7631ZM125.196 16.7631C125.134 16.8252 125.103 19.8985 125.103 23.6237V30.3912L127.245 30.3291L127.307 23.8721L133.112 23.81L133.205 22.3199H127.338V20.4573C127.338 18.874 127.369 18.5636 127.555 18.5015C127.68 18.4705 129.449 18.4084 131.529 18.4084H135.316L135.254 16.7941L130.287 16.7631C127.524 16.701 125.258 16.732 125.196 16.7631ZM79.3758 18.4084C80.3071 18.7809 80.5244 18.9361 80.99 19.3707C82.0145 20.4573 82.3249 21.5127 82.2318 23.7789C82.1697 25.6105 81.9213 26.4176 81.1452 27.3489C80.1829 28.4975 79.2516 28.9322 77.6063 28.9322C76.1472 28.9322 75.309 28.6217 74.5019 27.7525C73.5706 26.697 73.136 25.5484 73.0739 23.8721C72.9497 20.6435 74.1604 18.6567 76.4577 18.2532C77.1096 18.0979 78.9411 18.2221 79.3758 18.4084ZM145.033 18.4084C146.368 18.9051 147.206 19.7433 147.61 21.0781C148.013 22.3509 148.013 24.5861 147.61 25.7968C146.927 27.8767 145.468 28.9322 143.232 28.9322C141.773 28.9322 140.935 28.6217 140.128 27.7525C139.818 27.38 139.445 26.9143 139.352 26.697C138.203 24.1825 138.483 21.016 139.973 19.3397C140.407 18.843 141.339 18.3773 142.146 18.2221C142.705 18.0979 144.536 18.2532 145.033 18.4084Z" fill="#1D2C4E"/>
</g>
</svg>
