<svg width="43" height="47" viewBox="0 0 43 47" fill="none" xmlns="http://www.w3.org/2000/svg">
<g clip-path="url(#clip0_302_3939)">
<path d="M4.16478 10.9015L1.98047 8.03101L2.33151 7.50513L5.8198 8.42211L5.48673 8.92104L4.53311 8.64464L3.86695 9.64454L4.48474 10.4206L4.16478 10.9015ZM2.63486 8.11323L3.5788 9.29627L4.10192 8.51265L2.65076 8.0925L2.63486 8.11323Z" fill="#1A5632"/>
<path d="M5.74925 7.63245C5.80044 7.68469 5.86215 7.72545 5.93029 7.752C6.0007 7.77954 6.07584 7.79292 6.15143 7.79138C6.23583 7.78927 6.31936 7.77364 6.39881 7.74509C6.49038 7.71223 6.57708 7.66713 6.65656 7.61103C6.76574 7.53966 6.85968 7.44736 6.93296 7.33946C6.99116 7.25409 7.02377 7.15388 7.02695 7.05061C7.02694 6.95141 6.99576 6.85472 6.93781 6.7742C6.90717 6.72524 6.86581 6.68388 6.81685 6.65323C6.76789 6.62259 6.71261 6.60346 6.65519 6.5973C6.50407 6.59115 6.35351 6.61951 6.21499 6.68022L5.67462 6.88269C5.52405 6.94337 5.36417 6.97773 5.20196 6.98427C5.05951 6.98969 4.91802 6.95878 4.7908 6.89444C4.64421 6.81282 4.52158 6.69419 4.43513 6.55039C4.34868 6.40659 4.30142 6.24264 4.2981 6.07489C4.3007 5.88403 4.35516 5.69747 4.45565 5.53519C4.69455 5.16688 5.06849 4.90707 5.49701 4.81169C5.67521 4.77774 5.85914 4.79011 6.03118 4.84763C6.19309 4.90322 6.33574 5.00391 6.44234 5.13785L5.98972 5.44951C5.92507 5.38548 5.84478 5.3395 5.75684 5.31614C5.66399 5.29349 5.56706 5.29349 5.47422 5.31614C5.36392 5.34178 5.25969 5.38874 5.1674 5.45435C5.02131 5.5439 4.91051 5.68105 4.85367 5.8427C4.83133 5.91047 4.8254 5.98257 4.83633 6.05308C4.84727 6.12359 4.87475 6.1905 4.91655 6.24833C4.94536 6.29226 4.98343 6.32937 5.02807 6.35706C5.07271 6.38475 5.12286 6.40236 5.17501 6.40865C5.30575 6.42028 5.43731 6.39914 5.55783 6.34715L6.09476 6.14468C6.2583 6.07919 6.4306 6.03821 6.60611 6.02306C6.75267 6.01052 6.89995 6.03674 7.03317 6.09907C7.1738 6.171 7.29298 6.27873 7.37869 6.41141C7.49306 6.56962 7.55688 6.75872 7.5618 6.95387C7.56191 7.15183 7.50455 7.34555 7.39665 7.51152C7.15744 7.85994 6.81241 8.1221 6.41263 8.25921C6.27142 8.30528 6.12274 8.32404 5.97452 8.31449C5.84085 8.30523 5.71075 8.26729 5.59307 8.20324C5.47663 8.1392 5.37419 8.0525 5.29178 7.94825L5.74925 7.63245Z" fill="#1A5632"/>
<path d="M10.3675 5.56816C10.3524 5.81331 10.2635 6.04817 10.1125 6.24191C9.9412 6.44103 9.72493 6.59647 9.48159 6.69537C9.23825 6.79427 8.97484 6.83378 8.71319 6.81062C8.46955 6.77727 8.24169 6.67104 8.0595 6.50588C7.85002 6.31163 7.68866 6.07125 7.58821 5.8038L7.41339 5.37329C7.29846 5.11113 7.24616 4.8258 7.26067 4.53992C7.2767 4.29451 7.36601 4.05956 7.51704 3.86547C7.68787 3.6658 7.9041 3.51002 8.14758 3.41118C8.39106 3.31235 8.65469 3.27335 8.91636 3.29745C9.15954 3.33169 9.38694 3.4378 9.56938 3.60219C9.77902 3.79686 9.94037 4.03773 10.0406 4.30566L10.2155 4.73685C10.3302 4.99835 10.3822 5.283 10.3675 5.56816ZM9.18448 4.01543C9.07196 3.90575 8.92927 3.83213 8.77469 3.80398C8.624 3.78314 8.47049 3.80231 8.32955 3.85956C8.18861 3.9168 8.0652 4.01012 7.97173 4.13014C7.88076 4.25797 7.82999 4.41002 7.82592 4.56686C7.82218 4.76786 7.86276 4.96723 7.94478 5.15078L8.12236 5.5882C8.1915 5.77707 8.30145 5.94837 8.44438 6.08988C8.5573 6.19964 8.70009 6.27367 8.85487 6.30272C9.00566 6.32419 9.15945 6.30525 9.30053 6.24782C9.4416 6.1904 9.5649 6.09654 9.65783 5.97586C9.74853 5.84738 9.79926 5.69497 9.80363 5.53776C9.80758 5.33658 9.76724 5.137 9.68547 4.95315L9.50787 4.51573C9.43774 4.32726 9.32711 4.15648 9.18378 4.01543H9.18448Z" fill="#1A5632"/>
<path d="M11.319 5.02729C11.3541 5.09148 11.4024 5.14751 11.4606 5.19175C11.521 5.23709 11.5899 5.26998 11.6631 5.2885C11.7449 5.30999 11.8296 5.3177 11.9139 5.3113C12.0111 5.30493 12.1069 5.28517 12.1987 5.25257C12.3236 5.21389 12.4395 5.15043 12.5393 5.06599C12.6183 4.99941 12.6765 4.91166 12.7073 4.81308C12.7344 4.7176 12.7305 4.61599 12.6962 4.52285C12.6801 4.46743 12.6515 4.4164 12.6127 4.37366C12.5739 4.33092 12.5259 4.29757 12.4723 4.27615C12.3285 4.22886 12.1758 4.21539 12.0259 4.23676L11.451 4.28513C11.2892 4.30312 11.1255 4.29284 10.9673 4.25473C10.8286 4.22136 10.7007 4.15335 10.5955 4.05709C10.488 3.95442 10.4082 3.82632 10.3633 3.68463C10.2986 3.50705 10.2916 3.31361 10.3433 3.13182C10.3975 2.94883 10.5004 2.78402 10.6411 2.65501C10.8026 2.50683 10.9943 2.39533 11.2029 2.32815C11.4064 2.25297 11.6238 2.22302 11.84 2.24039C12.0208 2.25542 12.1946 2.31709 12.3445 2.41937C12.485 2.51675 12.5947 2.65219 12.6609 2.8098L12.1406 2.98739C12.0955 2.9088 12.0307 2.8433 11.9526 2.79736C11.8698 2.74954 11.7766 2.72228 11.6811 2.71788C11.5675 2.71303 11.4541 2.73065 11.3473 2.76972C11.1825 2.81644 11.0388 2.91843 10.9403 3.05857C10.9004 3.11776 10.8751 3.18557 10.8664 3.25644C10.8578 3.32731 10.8661 3.39921 10.8906 3.46627C10.9065 3.51662 10.9334 3.56283 10.9692 3.60165C11.005 3.64046 11.0489 3.67091 11.0979 3.69085C11.2203 3.73717 11.3524 3.75214 11.4821 3.73439L12.0542 3.68463C12.2294 3.66574 12.4064 3.67297 12.5794 3.70605C12.7238 3.73328 12.8585 3.79812 12.9698 3.89402C13.0852 4.0014 13.1703 4.13723 13.2165 4.28789C13.2838 4.47131 13.2939 4.67078 13.2456 4.86006C13.1923 5.05082 13.0847 5.22199 12.936 5.35276C12.6111 5.62269 12.2084 5.78155 11.7868 5.80608C11.638 5.8107 11.4896 5.78725 11.3494 5.73697C11.2235 5.69265 11.1085 5.62197 11.0122 5.52966C10.9175 5.43649 10.8423 5.32538 10.791 5.20281L11.319 5.02729Z" fill="#1A5632"/>
<path d="M14.0423 5.04992L12.9995 1.8021L13.5392 1.62866L14.582 4.87647L14.0423 5.04992Z" fill="#1A5632"/>
<path d="M14.8992 4.69756L15.1224 1.09732L15.7319 0.928711L17.7725 3.90012L17.1948 4.06043L16.6516 3.2312L15.4983 3.54976L15.4589 4.5407L14.8992 4.69756ZM15.5639 1.58795L15.5052 3.09991L16.4132 2.84907L15.5881 1.58173L15.5639 1.58795Z" fill="#1A5632"/>
<path d="M18.2064 2.83882C18.2296 2.90823 18.267 2.97202 18.3163 3.02609C18.3676 3.08178 18.4293 3.12686 18.498 3.15876C18.5747 3.19463 18.6566 3.21796 18.7406 3.22787C18.8374 3.23876 18.9353 3.23644 19.0315 3.22096C19.1611 3.20514 19.2863 3.16379 19.3998 3.09934C19.4894 3.04772 19.5625 2.97176 19.6106 2.88028C19.6544 2.79123 19.6689 2.69061 19.652 2.59281C19.646 2.53535 19.627 2.48002 19.5964 2.43095C19.5659 2.38188 19.5247 2.34037 19.4758 2.3095C19.3428 2.23762 19.1951 2.19697 19.0439 2.19064L18.4697 2.13467C18.3075 2.12306 18.1486 2.08355 17.9998 2.01788C17.8696 1.96008 17.7562 1.87022 17.6702 1.75668C17.5829 1.63625 17.5273 1.49582 17.5085 1.34828C17.4774 1.16293 17.5052 0.972487 17.588 0.80376C17.6745 0.63391 17.8053 0.490634 17.9666 0.389142C18.3431 0.163205 18.7932 0.093986 19.2202 0.196352C19.3953 0.243852 19.5552 0.335713 19.6845 0.463078C19.8056 0.584204 19.8895 0.737415 19.9264 0.904647L19.3825 0.9855C19.3523 0.899992 19.3004 0.823792 19.2319 0.764367C19.159 0.702526 19.0722 0.659152 18.979 0.637911C18.8683 0.61271 18.7537 0.609657 18.6418 0.628927C18.4713 0.645421 18.3117 0.720088 18.1898 0.84038C18.1398 0.891409 18.1026 0.953618 18.0813 1.02187C18.06 1.09012 18.0553 1.16245 18.0675 1.23289C18.0741 1.28512 18.092 1.33528 18.1201 1.37982C18.1481 1.42436 18.1856 1.4622 18.2299 1.49064C18.342 1.55849 18.4694 1.59721 18.6003 1.60327L19.1718 1.65648C19.3474 1.66961 19.5202 1.70849 19.6845 1.77189C19.8216 1.82541 19.9424 1.91377 20.0349 2.02826C20.1291 2.15463 20.1885 2.30358 20.2069 2.46015C20.24 2.65268 20.214 2.8507 20.1323 3.02816C20.0456 3.20608 19.909 3.35493 19.7391 3.45659C19.5311 3.58083 19.2996 3.66038 19.0591 3.69017C18.8831 3.71903 18.7037 3.72111 18.5271 3.69638C18.38 3.6753 18.2382 3.62678 18.109 3.55334C17.9932 3.48639 17.8931 3.39545 17.8153 3.28661C17.7389 3.17761 17.6849 3.05453 17.6564 2.92451L18.2064 2.83882Z" fill="#1A5632"/>
<path d="M20.7507 3.41849L20.7024 0.00828773L21.2697 0L21.3181 3.4102L20.7507 3.41849Z" fill="#1A5632"/>
<path d="M22.8376 3.46697L23.4278 0.10791L25.4974 0.472075L25.4138 0.946817L23.9025 0.680765L23.7222 1.7097L25.1042 1.95225L25.022 2.42007L23.6399 2.17684L23.396 3.5651L22.8376 3.46697Z" fill="#1A5632"/>
<path d="M25.2756 3.96436L26.1643 0.671631L26.7116 0.819513L25.823 4.11224L25.2756 3.96436Z" fill="#1A5632"/>
<path d="M26.4822 4.32931L27.5346 1.08496L28.01 1.23905L28.7702 4.05981L28.7943 4.06742L29.5503 1.73797L30.0686 1.90659L29.0155 5.15094L28.5428 4.99753L27.7827 2.16848L27.7613 2.16158L27.0012 4.49793L26.4822 4.32931Z" fill="#1A5632"/>
<path d="M30.3035 5.59248L31.2536 2.82838L30.3104 2.50498L30.468 2.04614L32.8927 2.87883L32.7352 3.33697L31.7899 3.01219L30.8397 5.77629L30.3035 5.59248Z" fill="#1A5632"/>
<path d="M34.0834 6.98841L32.1133 6.18199L33.4055 3.02539L35.3756 3.83251L35.1953 4.27408L33.7475 3.68118L33.3792 4.57951L34.7412 5.13716L34.5678 5.56007L33.2065 5.00172L32.8174 5.95188L34.2651 6.54478L34.0834 6.98841Z" fill="#1A5632"/>
<path d="M35.6639 6.15968C35.5525 6.31908 35.4731 6.49862 35.4303 6.68831C35.3961 6.8395 35.4094 6.99755 35.4683 7.14093C35.533 7.2838 35.6389 7.40411 35.7723 7.48644C35.8771 7.5586 35.9969 7.60587 36.1227 7.62464C36.2341 7.6401 36.3477 7.62654 36.4523 7.58526C36.557 7.54288 36.6493 7.47464 36.7204 7.38694L37.1813 7.69099L37.1703 7.70826C37.1661 7.7131 37.1627 7.71932 37.1592 7.72485C37.041 7.88119 36.8809 8.00096 36.6976 8.07036C36.5109 8.14026 36.3093 8.16097 36.1123 8.13048C35.8737 8.08874 35.6475 7.99439 35.4499 7.85431C35.2523 7.71422 35.0884 7.53191 34.97 7.32059C34.863 7.10363 34.8256 6.85892 34.8629 6.6199C34.9105 6.33914 35.0197 6.07244 35.1829 5.83904L35.4344 5.45759C35.5856 5.2151 35.7888 5.00927 36.0294 4.85502C36.2358 4.72517 36.4768 4.66107 36.7204 4.67121C36.9829 4.68894 37.2356 4.77834 37.4508 4.92966C37.5933 5.02134 37.7195 5.13627 37.824 5.26964C37.9183 5.39192 37.9887 5.53095 38.0313 5.67941C38.0742 5.82519 38.0868 5.97821 38.0682 6.12904C38.0497 6.27986 38.0004 6.42529 37.9235 6.55633L37.9131 6.57222L37.9028 6.58811L37.4419 6.28475C37.4983 6.17832 37.528 6.05972 37.5282 5.93924C37.5283 5.82284 37.4978 5.70845 37.4398 5.60755C37.3765 5.49806 37.2875 5.40558 37.1806 5.33805C37.0525 5.24804 36.8998 5.19976 36.7432 5.19984C36.5864 5.20543 36.4348 5.25712 36.3072 5.34842C36.1471 5.46315 36.0112 5.60826 35.9071 5.77547L35.6639 6.15968Z" fill="#1A5632"/>
<path d="M38.1438 10.2487L39.3876 9.38972L38.5004 8.10441L37.2565 8.96405L36.9338 8.49761L39.7401 6.55859L40.0621 7.02504L38.8963 7.83008L39.7836 9.11538L40.9494 8.30965L41.2721 8.77679L38.4665 10.7116L38.1438 10.2487Z" fill="#1A5632"/>
<path d="M3.97126 15.1784C3.88004 15.342 3.74383 15.4761 3.57876 15.5647C3.40484 15.6579 3.21012 15.7054 3.01282 15.7029C2.81544 15.706 2.62057 15.6584 2.44687 15.5647C2.28244 15.4754 2.14679 15.3411 2.05574 15.1777C1.95666 14.9924 1.9076 14.7845 1.91339 14.5744V13.8371H0.704102V13.2698H4.115V14.5827C4.11988 14.7904 4.07032 14.9958 3.97126 15.1784ZM3.47994 14.9552C3.5372 14.8932 3.58134 14.8203 3.60972 14.7409C3.6381 14.6614 3.65012 14.5771 3.64509 14.4929V13.833H2.37846V14.4929C2.3752 14.6098 2.40107 14.7257 2.45376 14.8301C2.50236 14.922 2.57782 14.997 2.67007 15.045C2.77738 15.0978 2.89603 15.1235 3.01558 15.1196C3.10005 15.1247 3.18468 15.1127 3.26444 15.0845C3.34421 15.0562 3.41748 15.0123 3.47994 14.9552Z" fill="#1A5632"/>
<path d="M0.704102 18.59V16.4609H4.115V18.59H3.6375V17.0262H2.66591V18.4981H2.20846V17.0262H1.18161V18.59H0.704102Z" fill="#1A5632"/>
<path d="M0.704102 19.4656H4.115V19.9659L1.66601 21.5552V21.5808H4.115V22.1253H0.704102V21.6285L3.15999 20.0315V20.0094H0.704102V19.4656Z" fill="#1A5632"/>
<path d="M4.11506 24.2965C4.12567 24.5901 4.05742 24.8812 3.91742 25.1395C3.78461 25.3646 3.58273 25.5407 3.34179 25.6419C2.74238 25.8644 2.08305 25.8644 1.48363 25.6419C1.24115 25.5409 1.03762 25.3645 0.903177 25.1388C0.762443 24.8817 0.693692 24.5914 0.704165 24.2985V23.1238H4.11506V24.2965ZM1.18167 23.6863V24.2336C1.17834 24.3838 1.20415 24.5333 1.25767 24.6738C1.30591 24.7951 1.38528 24.9017 1.48779 24.9826C1.60148 25.0686 1.7315 25.1304 1.86991 25.1644C2.0452 25.2082 2.22548 25.2289 2.40615 25.2259C2.6391 25.2324 2.87126 25.1959 3.09095 25.1181C3.26043 25.0577 3.40505 24.9427 3.50211 24.7912C3.59968 24.6223 3.64759 24.4292 3.64032 24.2343V23.687L1.18167 23.6863Z" fill="#1A5632"/>
<path d="M0.668945 26.2561L4.10888 27.3403L4.12546 27.9726L0.747036 29.2358L0.731156 28.6367L1.66748 28.3098L1.6357 27.1137L0.683475 26.8373L0.668945 26.2561ZM3.52773 27.6506L2.07657 27.2291L2.10146 28.1702L3.53049 27.6748L3.52773 27.6506Z" fill="#1A5632"/>
<path d="M0.89917 30.4632L4.19119 29.571L4.32181 30.0548L2.37449 32.2308L2.38141 32.255L4.74472 31.6144L4.88707 32.141L1.59502 33.0324L1.46512 32.5507L3.41864 30.3671L3.41242 30.3457L1.04152 30.9876L0.89917 30.4632Z" fill="#1A5632"/>
<path d="M2.16162 34.3384L5.65405 33.4353L6.00302 33.9626L3.80694 36.8234L3.47593 36.3231L4.09787 35.5505L3.43724 34.552L2.48294 34.8215L2.16162 34.3384ZM5.32443 34.0068L3.86845 34.4214L4.38809 35.2077L5.33825 34.033L5.32443 34.0068Z" fill="#1A5632"/>
<path d="M4.47241 37.5399L7.64628 35.8262L8.11134 36.2539L6.66503 39.5591L6.22416 39.1527L6.63878 38.2544L5.7584 37.4439L4.89601 37.9338L4.47241 37.5399ZM7.46386 36.4598L6.15092 37.2089L6.84194 37.8467L7.4825 36.4764L7.46386 36.4598Z" fill="#1A5632"/>
<path d="M7.4397 40.1381L9.39254 37.3416L9.80231 37.6276L9.70558 40.5465L9.72631 40.561L11.1277 38.5536L11.5741 38.8653L9.62127 41.6618L9.21357 41.3772L9.3103 38.4493L9.29166 38.4362L7.88542 40.4505L7.4397 40.1381Z" fill="#1A5632"/>
<path d="M13.3968 39.9517L14.5778 40.6247C14.8076 40.7405 14.9881 40.9349 15.0864 41.1727C15.1259 41.2821 15.1398 41.3991 15.127 41.5147C15.1141 41.6303 15.075 41.7414 15.0124 41.8395C14.955 41.9458 14.8745 42.0379 14.7768 42.109C14.6886 42.1718 14.5868 42.2128 14.4797 42.2286C14.3691 42.2441 14.2566 42.2375 14.1487 42.2092L14.1362 42.2306C14.248 42.3102 14.3408 42.4135 14.4078 42.5333C14.4712 42.6487 14.5027 42.779 14.499 42.9106C14.4928 43.0584 14.4493 43.2022 14.3726 43.3287C14.2861 43.4905 14.1517 43.6216 13.9876 43.7039C13.8242 43.7805 13.642 43.8081 13.4632 43.7834C13.2522 43.7551 13.0492 43.6846 12.8661 43.5761L11.7073 42.9147L13.3968 39.9517ZM12.4204 42.8035L12.891 43.0723C13.0752 43.1975 13.2904 43.2692 13.5129 43.2796C13.5908 43.2738 13.6659 43.2476 13.7305 43.2037C13.7951 43.1598 13.8471 43.0997 13.8812 43.0295C13.9366 42.9388 13.9658 42.8345 13.9655 42.7282C13.9618 42.6281 13.9273 42.5316 13.8667 42.4518C13.792 42.355 13.6979 42.275 13.5903 42.2168L12.9636 41.8596L12.4204 42.8035ZM13.1729 41.4836L13.5875 41.7214C13.7075 41.7947 13.8387 41.8477 13.9759 41.8782C14.0738 41.8999 14.176 41.8895 14.2675 41.8485C14.3566 41.8029 14.4292 41.7304 14.4748 41.6412C14.5108 41.5857 14.5342 41.523 14.5435 41.4575C14.5528 41.392 14.5477 41.3252 14.5287 41.2618C14.4779 41.1271 14.3775 41.0169 14.2482 40.9537L13.6622 40.6192L13.1729 41.4836Z" fill="#1A5632"/>
<path d="M16.4781 45.5517L14.6006 44.5477L16.2086 41.5403L18.0861 42.5437L17.8608 42.9645L16.4788 42.2272L16.0207 43.084L17.3184 43.7751L17.1028 44.1779L15.805 43.4869L15.3213 44.3929L16.7034 45.1302L16.4781 45.5517Z" fill="#1A5632"/>
<path d="M20.4363 43.7136C20.5635 43.8458 20.6488 44.0126 20.6816 44.1931C20.7125 44.3843 20.6915 44.5802 20.6208 44.7605C20.5721 44.9011 20.4944 45.0298 20.3928 45.1385C20.3011 45.2351 20.1905 45.3121 20.068 45.3644C19.9531 45.4142 19.8296 45.4407 19.7045 45.4425L19.8697 47.0001L19.2712 46.781L19.1462 45.3395L18.4821 45.097L18.0322 46.3298L17.5063 46.1377L18.6756 42.9341L19.9007 43.3812C20.1028 43.4486 20.2862 43.5624 20.4363 43.7136ZM19.2463 44.8966C19.4066 44.967 19.5869 44.9775 19.7543 44.9263C19.8287 44.8958 19.8953 44.8489 19.9492 44.7891C20.003 44.7292 20.0427 44.658 20.0652 44.5808C20.099 44.5043 20.1157 44.4215 20.114 44.3379C20.1123 44.2543 20.0924 44.1721 20.0555 44.0971C19.9694 43.9492 19.8308 43.8392 19.6672 43.7889L19.0453 43.5615L18.6389 44.6741L19.2463 44.8966Z" fill="#1A5632"/>
<path d="M22.1253 46.1688C22.1542 46.2359 22.1968 46.2962 22.2504 46.3458C22.3062 46.3969 22.3714 46.4366 22.4425 46.4625C22.5219 46.4913 22.6054 46.5069 22.6899 46.5088C22.7871 46.5117 22.8843 46.5012 22.9787 46.4777C23.1068 46.4515 23.2282 46.3998 23.336 46.3257C23.4211 46.267 23.4877 46.1853 23.5281 46.0901C23.5643 45.9976 23.5704 45.896 23.5454 45.7998C23.5343 45.7432 23.5106 45.6898 23.476 45.6436C23.4414 45.5974 23.3969 45.5596 23.3457 45.5331C23.2072 45.4723 23.0566 45.4441 22.9055 45.4508L22.3284 45.444C22.166 45.4458 22.0045 45.4196 21.851 45.3666C21.7163 45.32 21.5957 45.2398 21.5006 45.1337C21.4034 45.0214 21.3362 44.8864 21.3051 44.7412C21.2576 44.558 21.2692 44.3646 21.3382 44.1884C21.4108 44.0112 21.5302 43.8571 21.6837 43.7426C22.0396 43.4854 22.4825 43.3786 22.9165 43.4455C23.0946 43.4781 23.2613 43.5561 23.4002 43.6722C23.5304 43.7829 23.6263 43.9284 23.6767 44.0916L23.1418 44.2188C23.1046 44.1362 23.0465 44.0647 22.9732 44.0115C22.8955 43.9562 22.8057 43.9201 22.7113 43.9064C22.5987 43.8909 22.4842 43.8975 22.3741 43.9258C22.2054 43.9566 22.0524 44.0444 21.9408 44.1745C21.8953 44.2297 21.8636 44.2948 21.8482 44.3646C21.8328 44.4344 21.8342 44.5069 21.8524 44.576C21.8634 44.6274 21.8856 44.6758 21.9173 44.7177C21.9491 44.7596 21.9897 44.794 22.0362 44.8186C22.1537 44.8766 22.2838 44.9044 22.4148 44.8994L22.9884 44.905C23.1643 44.9022 23.3396 44.9255 23.5087 44.974C23.6497 45.0158 23.7774 45.0938 23.8791 45.2C23.9833 45.3177 24.0548 45.4607 24.0864 45.6146C24.1356 45.8036 24.1265 46.0031 24.0602 46.1868C23.9884 46.3713 23.8648 46.5312 23.7043 46.647C23.3549 46.8845 22.9386 47.0037 22.5164 46.987C22.3681 46.9785 22.2227 46.9419 22.088 46.8792C21.9668 46.8225 21.8593 46.7402 21.7729 46.638C21.6876 46.5366 21.6235 46.4191 21.5842 46.2925L22.1253 46.1688Z" fill="#1A5632"/>
<path d="M25.2218 46.106L24.6973 42.5368L25.2584 42.2466L27.8691 44.7343L27.3363 45.0107L26.6335 44.3107L25.5707 44.8635L25.7359 45.8413L25.2218 46.106ZM25.23 42.9273L25.4843 44.4192L26.3212 43.9859L25.2521 42.9155L25.23 42.9273Z" fill="#1A5632"/>
<path d="M28.4309 44.439L26.7607 41.4676L27.2555 41.1912L29.3466 42.7882L29.3638 42.7778L29.0874 40.1609L29.5794 39.8845L31.2496 42.8559L30.8032 43.1067L29.6409 41.0337L29.6147 41.0482L29.8372 43.2304L29.482 43.4302L27.7344 42.1041L27.7081 42.1186L28.8704 44.1917L28.4309 44.439Z" fill="#1A5632"/>
<path d="M31.9779 42.435L31.0989 38.9371L31.6289 38.5916L34.4753 40.8077L33.9729 41.1345L33.2038 40.5085L32.2011 41.1622L32.4637 42.1185L31.9779 42.435ZM31.6683 39.2695L32.0705 40.7282L32.8596 40.2141L31.6883 39.2563L31.6683 39.2695Z" fill="#1A5632"/>
<path d="M36.2015 39.4603L33.9902 36.8613L34.4221 36.4944L36.6334 39.0933L36.2015 39.4603Z" fill="#1A5632"/>
<path d="M37.667 38.2129L35.0881 35.9809L35.415 35.6029L38.3076 36.0016L38.3242 35.9829L36.473 34.3804L36.8295 33.9658L39.4084 36.1978L39.0829 36.5737L36.1806 36.1736L36.1661 36.1902L38.0229 37.7983L37.667 38.2129Z" fill="#1A5632"/>
<path d="M37.6919 32.3067C37.7993 32.0329 37.978 31.7929 38.2095 31.6115C38.421 31.4581 38.6765 31.3771 38.9378 31.3807C39.5762 31.4156 40.1807 31.6788 40.6412 32.1222C40.823 32.3111 40.9394 32.5533 40.9736 32.8132C40.9998 33.1052 40.9468 33.3988 40.8202 33.6632L40.351 34.7419L37.2234 33.3819L37.6919 32.3067ZM40.1388 34.0342L40.3572 33.5319C40.4201 33.3956 40.456 33.2485 40.4629 33.0986C40.467 32.9683 40.4368 32.839 40.3752 32.7241C40.3056 32.6 40.2115 32.4915 40.0987 32.4048C39.9554 32.2949 39.7984 32.2041 39.6316 32.1346C39.4206 32.0358 39.1931 31.9768 38.9606 31.9605C38.7809 31.949 38.6025 31.9977 38.4534 32.0987C38.2978 32.2156 38.1781 32.3739 38.1079 32.5555L37.8895 33.0578L40.1388 34.0342Z" fill="#1A5632"/>
<path d="M41.4179 28.2112C41.6255 28.3425 41.7886 28.5335 41.8857 28.7592C41.9775 29.0053 42.0095 29.2697 41.9788 29.5306C41.9482 29.7914 41.8558 30.0413 41.7095 30.2594C41.5633 30.4573 41.3604 30.606 41.1277 30.6857C40.8565 30.7758 40.5681 30.8013 40.2853 30.7604L39.8237 30.7065C39.5386 30.6806 39.2635 30.5888 39.02 30.4384C38.8128 30.3064 38.6501 30.1153 38.5529 29.8897C38.4601 29.6437 38.4276 29.379 38.4582 29.1179C38.4887 28.8568 38.5814 28.6067 38.7284 28.3888C38.8759 28.1925 39.0784 28.0446 39.3103 27.9638C39.5819 27.8739 39.8708 27.8486 40.154 27.8899L40.6156 27.9438C40.9002 27.9693 41.1749 28.0608 41.4179 28.2112ZM39.4871 28.5001C39.337 28.5458 39.204 28.6353 39.105 28.7571C39.0141 28.8791 38.9569 29.0229 38.9391 29.1741C38.9214 29.3252 38.9439 29.4784 39.0041 29.6181C39.0721 29.7596 39.1809 29.8776 39.3165 29.9567C39.4907 30.057 39.6848 30.1176 39.8852 30.1343L40.3544 30.1896C40.5533 30.2196 40.7564 30.2057 40.9494 30.1488C41.0997 30.1032 41.2332 30.014 41.3329 29.8925C41.4246 29.7707 41.4823 29.6267 41.5 29.4753C41.5177 29.3238 41.4949 29.1704 41.4338 29.0308C41.3648 28.8895 41.2557 28.7717 41.1201 28.6922C40.9454 28.5922 40.7511 28.5316 40.5506 28.5146L40.0814 28.4593C39.8825 28.4294 39.6801 28.4433 39.4871 28.5001Z" fill="#1A5632"/>
<path d="M42.0338 26.9915H38.6194V26.4912L41.0677 24.9019V24.8763H38.6194V24.3318H42.0303V24.8286L39.5744 26.4256V26.4477H42.0303L42.0338 26.9915Z" fill="#1A5632"/>
<path d="M42.0338 21.1943V23.3234H38.6194V21.1943H39.0969V22.7581H40.0706V21.2862H40.528V22.7581H41.5549V21.1943H42.0338Z" fill="#1A5632"/>
<path d="M41.1359 19.9913C41.208 19.9786 41.2765 19.9508 41.337 19.9097C41.3997 19.8676 41.4532 19.8133 41.4946 19.7501C41.541 19.6794 41.5758 19.6017 41.5976 19.52C41.6224 19.426 41.6345 19.3291 41.6335 19.2319C41.6359 19.1012 41.6124 18.9713 41.5644 18.8497C41.5268 18.7534 41.4625 18.6698 41.3792 18.6086C41.298 18.5525 41.2014 18.5232 41.1028 18.5249C41.0451 18.5224 40.9875 18.5331 40.9345 18.556C40.8814 18.579 40.8343 18.6138 40.7967 18.6576C40.7058 18.7786 40.6438 18.9188 40.6156 19.0674L40.4774 19.6271C40.4418 19.7857 40.3791 19.9369 40.2922 20.0742C40.2157 20.1947 40.1099 20.2939 39.9847 20.3624C39.8529 20.4308 39.7061 20.4651 39.5577 20.4619C39.3697 20.4656 39.1853 20.4103 39.0304 20.3036C38.875 20.193 38.7525 20.0423 38.6759 19.8676C38.5078 19.462 38.5061 19.0065 38.6711 18.5996C38.7439 18.4335 38.8584 18.289 39.0034 18.1801C39.1411 18.0786 39.3048 18.0184 39.4754 18.0067V18.5595C39.3863 18.5767 39.3032 18.6167 39.2342 18.6756C39.1626 18.7388 39.1069 18.8182 39.0719 18.9071C39.0308 19.013 39.0108 19.1259 39.0132 19.2395C39.0043 19.4107 39.0545 19.5798 39.1555 19.7184C39.1986 19.7753 39.2545 19.8212 39.3188 19.8523C39.3831 19.8834 39.4538 19.8989 39.5252 19.8973C39.5773 19.8981 39.6291 19.8875 39.6768 19.8664C39.7245 19.8453 39.7671 19.8141 39.8016 19.775C39.8851 19.6741 39.9421 19.5539 39.9674 19.4253L40.1057 18.8684C40.1444 18.6966 40.2085 18.5315 40.2957 18.3785C40.3686 18.2509 40.4737 18.1446 40.6004 18.0703C40.7393 17.9955 40.8954 17.9588 41.053 17.9638C41.2489 17.9593 41.4416 18.0139 41.6058 18.1207C41.7692 18.2329 41.8965 18.3901 41.9721 18.5733C42.123 18.9679 42.1431 19.4006 42.0295 19.8075C41.9872 19.95 41.9182 20.0832 41.8263 20.2C41.7428 20.3045 41.6379 20.39 41.5188 20.4508C41.4 20.5102 41.2705 20.5454 41.138 20.5545L41.1359 19.9913Z" fill="#1A5632"/>
<path d="M42.0338 17.1396H38.6194V16.5723H42.0303L42.0338 17.1396Z" fill="#1A5632"/>
<path d="M42.0337 15.8929L38.6228 14.7182V14.0859L42.0337 12.9111V13.5109L41.0891 13.8136V15.0098L42.0337 15.3124V15.8929ZM39.2129 14.4231L40.6544 14.8826V13.9414L39.2129 14.3982V14.4231Z" fill="#1A5632"/>
<path d="M36.5289 10.4503C35.8333 9.55631 34.899 8.87737 33.8339 8.49195C33.4193 8.32426 32.7732 8.08517 31.8956 7.77467C31.018 7.46417 30.0681 7.13777 29.0458 6.79548C28.0245 6.4532 27.0842 6.14293 26.225 5.86468C25.3659 5.58642 24.7485 5.38926 24.3731 5.27317C23.8778 5.12424 23.3725 5.01085 22.8611 4.93387C22.3675 4.85397 21.8685 4.81194 21.3685 4.80811C20.868 4.81326 20.3688 4.85948 19.8759 4.94631C19.3665 5.02933 18.8618 5.13913 18.3639 5.27523C17.9889 5.39179 17.3719 5.58896 16.5127 5.86675C15.6535 6.14454 14.7133 6.45481 13.6919 6.79756C12.6706 7.14031 11.7174 7.46671 10.8325 7.77675C9.94749 8.08679 9.30438 8.32588 8.90313 8.49403C7.83525 8.8693 6.89912 9.54619 6.20814 10.4427C5.64337 11.442 5.38076 12.5836 5.45216 13.7292V26.8165C5.42355 28.3127 5.6835 29.8005 6.21782 31.1983C6.78279 32.5445 7.625 33.7566 8.68961 34.7557C10.0544 36.0325 11.5564 37.1542 13.1681 38.1003C15.0164 39.2248 17.2717 40.459 19.934 41.8028C20.1706 41.921 20.417 42.0183 20.6706 42.0937C20.8964 42.166 21.1315 42.2053 21.3685 42.2105C21.6034 42.206 21.8363 42.1666 22.0595 42.0937C22.315 42.015 22.5645 41.9177 22.8059 41.8028C25.481 40.4843 27.7462 39.2635 29.6014 38.1403C31.2152 37.1984 32.7148 36.0731 34.0702 34.7868C35.1255 33.7763 35.9604 32.5586 36.5227 31.21C37.0561 29.8086 37.316 28.3179 37.2883 26.8186V13.7265C37.3599 12.5837 37.0959 11.445 36.5289 10.4503Z" fill="#1A5632"/>
<path d="M25.0047 29.7188C24.8698 29.7145 24.7362 29.7457 24.6171 29.8093C24.4917 29.8879 24.3873 29.9958 24.313 30.1237L21.1903 35.03L19.6203 33.1525C19.5471 33.0608 19.4539 32.9872 19.3477 32.9373C19.2415 32.8875 19.1253 32.8627 19.0081 32.865C18.9039 32.8617 18.8001 32.8794 18.703 32.9172C18.6059 32.955 18.5174 33.012 18.4428 33.0848C18.3693 33.1564 18.3115 33.2426 18.2731 33.3377C18.2347 33.4329 18.2165 33.535 18.2196 33.6376C18.2191 33.7332 18.2362 33.828 18.27 33.9174C18.3134 34.021 18.375 34.116 18.4518 34.198L20.5027 36.6207C20.5876 36.7238 20.6948 36.8061 20.8162 36.8617C20.9376 36.9172 21.07 36.9445 21.2034 36.9414C21.3461 36.9488 21.4882 36.9192 21.616 36.8555C21.7439 36.7918 21.8531 36.6962 21.9331 36.5779L25.6301 30.9951C25.6849 30.9135 25.7282 30.8246 25.7587 30.7311C25.7843 30.6511 25.7979 30.5677 25.7987 30.4837C25.8014 30.3816 25.7827 30.28 25.7437 30.1855C25.7048 30.091 25.6466 30.0057 25.5728 29.9351C25.4974 29.8629 25.4082 29.8065 25.3107 29.7694C25.2131 29.7322 25.1091 29.715 25.0047 29.7188Z" fill="white"/>
<path d="M13.1792 14.4368H14.6303V15.2937H12.0659V10.7371H13.1757L13.1792 14.4368Z" fill="white"/>
<path d="M16.275 11.6257V12.5468H17.7614V13.4037H16.275V14.4036H17.9562V15.2929H15.1638V10.7363H17.9549V11.625L16.275 11.6257Z" fill="white"/>
<path d="M21.7023 12.1785C21.6223 12.0301 21.4988 11.9095 21.3485 11.833C21.1802 11.75 20.9943 11.709 20.8068 11.7135C20.6458 11.7065 20.4852 11.7345 20.336 11.7956C20.1869 11.8567 20.0528 11.9494 19.943 12.0673C19.717 12.3285 19.6006 12.6669 19.6182 13.0119C19.6076 13.1902 19.6322 13.3688 19.6907 13.5375C19.7491 13.7062 19.8403 13.8618 19.9589 13.9952C20.0822 14.1161 20.2293 14.21 20.3908 14.2709C20.5524 14.3318 20.7249 14.3584 20.8973 14.349C21.1441 14.3571 21.3867 14.2843 21.5883 14.1417C21.7859 13.9913 21.931 13.7824 22.0029 13.5447H20.5946V12.7231H23.0091V13.7555C22.9233 14.0387 22.7808 14.3016 22.5903 14.528C22.3853 14.7731 22.1295 14.9707 21.8405 15.1071C21.52 15.2579 21.1692 15.3333 20.815 15.3275C20.3948 15.3351 19.9798 15.2335 19.6106 15.0325C19.264 14.8419 18.9782 14.5574 18.7862 14.2115C18.5921 13.8403 18.4907 13.4277 18.4907 13.0088C18.4907 12.5899 18.5921 12.1773 18.7862 11.8061C18.9767 11.4594 19.2613 11.1736 19.6071 10.9817C19.9751 10.7801 20.3893 10.6782 20.8088 10.6859C21.2996 10.6692 21.7832 10.8075 22.1909 11.0812C22.564 11.3441 22.8282 11.7344 22.9337 12.1785H21.7023Z" fill="white"/>
<path d="M26.4613 14.4886H24.7607L24.4885 15.2937H23.3262L24.9749 10.7371H26.2602L27.9063 15.2937H26.7315L26.4613 14.4886ZM26.1753 13.6325L25.6107 11.9636L25.053 13.6325H26.1753Z" fill="white"/>
<path d="M29.5185 14.4368H30.9697V15.2937H28.4053V10.7371H29.5151L29.5185 14.4368Z" fill="white"/>
<path d="M17.5617 17.5147C17.9111 17.6962 18.2005 17.9748 18.3951 18.317C18.589 18.6835 18.6904 19.0919 18.6904 19.5066C18.6904 19.9212 18.589 20.3296 18.3951 20.6962C18.2004 21.0403 17.9093 21.3199 17.5576 21.5005C17.169 21.6977 16.7377 21.796 16.302 21.7866H14.5945V17.23H16.302C16.739 17.2197 17.1717 17.3175 17.5617 17.5147ZM17.2114 20.482C17.3331 20.3521 17.427 20.1988 17.4872 20.0313C17.5475 19.8639 17.5728 19.6859 17.5617 19.5083C17.5795 19.329 17.5573 19.1481 17.4966 18.9785C17.436 18.8089 17.3384 18.6549 17.211 18.5276C17.0837 18.4003 16.9296 18.3028 16.7599 18.2422C16.5903 18.1817 16.4094 18.1595 16.2301 18.1774H15.7043V20.8254H16.2301C16.4082 20.8362 16.5867 20.8114 16.755 20.7525C16.9234 20.6935 17.0783 20.6015 17.2107 20.482H17.2114Z" fill="white"/>
<path d="M22.1508 20.9808H20.4522L20.18 21.7859H19.0149L20.6637 17.2292H21.949L23.5978 21.7859H22.423L22.1508 20.9808ZM21.8647 20.1246L21.3001 18.4558L20.7425 20.1246H21.8647Z" fill="white"/>
<path d="M28.1752 21.7866H27.0647L25.2079 18.9755V21.7866H24.0981V17.23H25.2079L27.0647 20.0535V17.23H28.1752V21.7866Z" fill="white"/>
<path d="M14.4203 27.4723H12.7197L12.4474 28.2773H11.2852L12.9339 23.7207H14.2192L15.868 28.2773H14.6933L14.4203 27.4723ZM14.1342 26.6161L13.5697 24.9473L13.012 26.6161H14.1342Z" fill="white"/>
<path d="M21.5281 23.7222V28.2788H20.4183V25.5458L19.3991 28.2788H18.5007L17.4753 25.5396V28.2788H16.3655V23.7222H17.6784L18.9575 26.8767L20.2228 23.7222H21.5281Z" fill="white"/>
<path d="M25.163 27.4723H23.4624L23.1894 28.2773H22.0278L23.6766 23.7207H24.9619L26.6107 28.2773H25.4359L25.163 27.4723ZM24.8769 26.6161L24.3123 24.9473L23.7547 26.6161H24.8769Z" fill="white"/>
<path d="M31.1874 28.2774H30.0776L28.2209 25.4663V28.2774H27.1111V23.7222H28.2209L30.0776 26.5457V23.7222H31.1874V28.2774Z" fill="white"/>
</g>
<defs>
<clipPath id="clip0_302_3939">
<rect width="41.4317" height="47" fill="white" transform="translate(0.668945)"/>
</clipPath>
</defs>
</svg>
