<svg width="438" height="422" viewBox="0 0 438 422" fill="none" xmlns="http://www.w3.org/2000/svg">
<g opacity="0.75">
<path d="M197.719 299.719H24.2812C20.4498 299.719 17.3438 302.825 17.3438 306.656V313.594C17.3438 317.425 20.4498 320.531 24.2812 320.531H197.719C201.55 320.531 204.656 317.425 204.656 313.594V306.656C204.656 302.825 201.55 299.719 197.719 299.719Z" fill="#EE654A"/>
<path d="M190.781 299.719H31.2188L33.7163 292.781L97.125 115.251C98.1448 112.387 100.026 109.908 102.51 108.156C104.994 106.403 107.96 105.463 111 105.463C114.04 105.463 117.006 106.403 119.49 108.156C121.974 109.908 123.855 112.387 124.875 115.251L188.284 292.781L190.781 299.719Z" fill="#EE654A"/>
<path d="M151.141 188.719H70.8599L83.2502 154.031H138.75L151.141 188.719Z" fill="#E0E0E2"/>
<path d="M178.391 265.031H43.6089L55.9923 230.344L166.59 231.988L178.391 265.031Z" fill="#E0E0E2"/>
<path d="M190.781 299.719H31.2188L33.7163 292.781H188.284L190.781 299.719Z" fill="#EC5633"/>
</g>
<g opacity="0.5">
<path d="M377.031 215.922H262.969C260.449 215.922 258.406 217.979 258.406 220.516V225.109C258.406 227.646 260.449 229.703 262.969 229.703H377.031C379.551 229.703 381.594 227.646 381.594 225.109V220.516C381.594 217.979 379.551 215.922 377.031 215.922Z" fill="#EE654A"/>
<path d="M372.469 215.922H267.531L269.174 211.328L310.875 93.7742C311.546 91.8777 312.783 90.2367 314.417 89.0763C316.05 87.9159 318.001 87.293 320 87.293C321.999 87.293 323.95 87.9159 325.583 89.0763C327.217 90.2367 328.454 91.8777 329.125 93.7742L370.826 211.328L372.469 215.922Z" fill="#EE654A"/>
<path d="M346.399 142.422H293.602L301.75 119.453H338.25L346.399 142.422Z" fill="#E0E0E2"/>
<path d="M364.32 192.953H275.68L283.824 169.984L356.559 171.073L364.32 192.953Z" fill="#E0E0E2"/>
<path d="M372.469 215.922H267.531L269.174 211.328H370.826L372.469 215.922Z" fill="#EC5633"/>
</g>
<g filter="url(#filter0_d_576_189)">
<path d="M358.562 348.562H105.438C99.8456 348.562 95.3125 353.096 95.3125 358.688V368.812C95.3125 374.404 99.8456 378.938 105.438 378.938H358.562C364.154 378.938 368.688 374.404 368.688 368.812V358.688C368.688 353.096 364.154 348.562 358.562 348.562Z" fill="#EE654A"/>
<path d="M348.438 348.563H115.562L119.208 338.438L211.75 79.3388C213.238 75.1589 215.984 71.542 219.609 68.9844C223.235 66.4267 227.563 65.0537 232 65.0537C236.437 65.0537 240.765 66.4267 244.391 68.9844C248.016 71.542 250.762 75.1589 252.25 79.3388L344.792 338.438L348.438 348.563Z" fill="#EE654A"/>
<path d="M290.583 186.562H173.417L191.5 135.938H272.5L290.583 186.562Z" fill="#E0E0E2"/>
<path d="M330.354 297.938H133.646L151.719 247.312L313.131 249.712L330.354 297.938Z" fill="#E0E0E2"/>
<path d="M348.438 348.562H115.562L119.208 338.438H344.792L348.438 348.562Z" fill="#EC5633"/>
</g>
<path d="M320.363 22.8666C319.731 26.3641 318.535 29.2206 316.774 31.4361C315.024 33.6534 312.902 35.2051 310.407 36.0912C307.925 36.9687 305.279 37.1535 302.468 36.6456C299.637 36.134 297.214 35.0275 295.197 33.3263C293.181 31.625 291.741 29.4295 290.878 26.7399C290.014 24.0503 289.898 20.962 290.528 17.4749C291.16 13.9774 292.351 11.1199 294.101 8.90258C295.851 6.68523 297.967 5.13781 300.45 4.26032C302.934 3.37239 305.592 3.18424 308.423 3.69587C311.233 4.20374 313.647 5.30832 315.663 7.0096C317.692 8.70231 319.138 10.8935 320.001 13.5831C320.874 16.2746 320.995 19.3691 320.363 22.8666ZM313.534 21.6325C313.944 19.367 313.952 17.3955 313.559 15.718C313.177 14.0425 312.451 12.6931 311.383 11.67C310.315 10.6468 308.967 9.98808 307.339 9.69385C305.711 9.39962 304.217 9.54482 302.859 10.1295C301.5 10.7141 300.343 11.7233 299.388 13.1571C298.443 14.5928 297.766 16.4434 297.357 18.709C296.947 20.9745 296.934 22.9451 297.317 24.6206C297.709 26.298 298.44 27.6483 299.508 28.6715C300.576 29.6947 301.924 30.3534 303.552 30.6476C305.18 30.9419 306.674 30.7967 308.032 30.212C309.391 29.6274 310.543 28.6172 311.487 27.1816C312.443 25.7478 313.125 23.8981 313.534 21.6325Z" fill="black"/>
<path d="M333.041 42.2029C330.624 41.7662 328.628 40.8718 327.052 39.5196C325.488 38.1589 324.397 36.4631 323.779 34.4323C323.162 32.3911 323.077 30.1385 323.522 27.6746C323.971 25.1897 324.841 23.1044 326.131 21.4184C327.422 19.722 329.038 18.5153 330.977 17.7985C332.929 17.073 335.113 16.9286 337.529 17.3653C339.945 17.802 341.935 18.7007 343.499 20.0614C345.075 21.4136 346.172 23.1103 346.788 25.1516C347.406 27.1824 347.491 29.4402 347.042 31.925C346.597 34.3889 345.728 36.4691 344.436 38.1655C343.146 39.8514 341.526 41.0571 339.574 41.7826C337.635 42.4994 335.457 42.6396 333.041 42.2029ZM334.006 37.0405C335.105 37.2392 336.079 37.0918 336.929 36.5985C337.78 36.0947 338.491 35.3284 339.063 34.2996C339.645 33.2727 340.062 32.0598 340.315 30.6608C340.568 29.2618 340.601 27.9795 340.416 26.8139C340.24 25.6502 339.842 24.6834 339.221 23.9135C338.6 23.1435 337.74 22.6592 336.64 22.4606C335.531 22.2601 334.54 22.4098 333.668 22.9099C332.806 23.4118 332.084 24.1762 331.502 25.2031C330.931 26.2319 330.519 27.4458 330.266 28.8448C330.013 30.2438 329.974 31.5251 330.15 32.6889C330.335 33.8544 330.744 34.8231 331.375 35.5949C332.019 36.3581 332.896 36.84 334.006 37.0405Z" fill="black"/>
<path d="M347.564 53.6574L353.541 20.5824L360.074 21.7631L359.344 25.8035L359.64 25.8569C360.047 25.2621 360.586 24.6802 361.256 24.1114C361.939 23.5339 362.767 23.1014 363.74 22.8136C364.725 22.5173 365.886 22.49 367.224 22.7317C368.966 23.0466 370.491 23.7964 371.797 24.9813C373.106 26.1557 374.035 27.7413 374.584 29.7381C375.135 31.7245 375.162 34.0958 374.664 36.8521C374.179 39.5352 373.339 41.723 372.144 43.4154C370.962 45.0992 369.549 46.2831 367.904 46.9671C366.272 47.6425 364.549 47.8162 362.734 47.4882C361.448 47.2558 360.393 46.8441 359.568 46.253C358.754 45.6638 358.12 44.994 357.666 44.2436C357.215 43.4828 356.899 42.7411 356.719 42.0186L356.517 41.982L354.19 54.855L347.564 53.6574ZM357.854 33.7819C357.596 35.2122 357.567 36.4955 357.769 37.6316C357.97 38.7677 358.391 39.7008 359.03 40.4309C359.671 41.1504 360.526 41.6068 361.594 41.7998C362.672 41.9947 363.638 41.8621 364.493 41.4019C365.349 40.9313 366.065 40.1982 366.641 39.2026C367.229 38.1985 367.65 36.9969 367.903 35.5979C368.154 34.2093 368.183 32.9531 367.99 31.8293C367.796 30.7055 367.38 29.7786 366.741 29.0486C366.102 28.3185 365.238 27.8551 364.149 27.6583C363.071 27.4634 362.106 27.5856 361.256 28.0249C360.416 28.4661 359.703 29.1783 359.119 30.1615C358.534 31.1448 358.113 32.3516 357.854 33.7819Z" fill="black"/>
<path d="M399.901 36.0437L393.766 35.3233C393.757 34.7825 393.619 34.2724 393.352 33.7929C393.087 33.303 392.697 32.8822 392.183 32.5304C391.68 32.1701 391.045 31.9206 390.278 31.7819C389.251 31.5964 388.346 31.6591 387.561 31.9702C386.779 32.2708 386.323 32.7813 386.192 33.5017C386.089 34.0759 386.229 34.6026 386.614 35.0818C386.998 35.561 387.724 36.0209 388.79 36.4616L392.956 38.1201C395.192 39.0201 396.784 40.1057 397.732 41.3767C398.681 42.6478 398.998 44.1499 398.685 45.883C398.4 47.4595 397.689 48.7594 396.55 49.7828C395.423 50.8081 394 51.5105 392.282 51.8901C390.577 52.2611 388.687 52.2592 386.613 51.8844C383.45 51.3128 381.05 50.1944 379.413 48.5293C377.787 46.8556 377.022 44.8413 377.115 42.4863L383.695 43.3196C383.717 44.3262 384.06 45.1537 384.724 45.802C385.391 46.44 386.315 46.8658 387.497 47.0794C388.659 47.2893 389.633 47.2335 390.419 46.912C391.218 46.582 391.687 46.0577 391.828 45.3392C391.927 44.7317 391.762 44.1899 391.334 43.7137C390.908 43.227 390.196 42.7855 389.196 42.3893L385.209 40.8115C382.96 39.9201 381.37 38.7918 380.439 37.4268C379.518 36.0636 379.22 34.4842 379.545 32.6884C379.824 31.1433 380.479 29.8871 381.511 28.9199C382.552 27.9546 383.885 27.306 385.509 26.974C387.142 26.644 388.981 26.6636 391.024 27.0327C394.042 27.5781 396.3 28.6493 397.8 30.2465C399.31 31.8455 400.01 33.7779 399.901 36.0437Z" fill="black"/>
<path d="M415.224 23.4496L410.559 45.7971L404.866 44.7683L408.302 22.1986L415.224 23.4496ZM405.901 55.3054C404.875 55.1199 404.059 54.5952 403.455 53.7313C402.853 52.857 402.65 51.904 402.847 50.8722C403.022 49.8472 403.543 49.0358 404.412 48.4381C405.28 47.8403 406.227 47.6342 407.254 47.8197C408.239 47.9977 409.039 48.5196 409.654 49.3854C410.268 50.2512 410.488 51.1965 410.314 52.2216C410.179 52.9088 409.883 53.5076 409.427 54.0181C408.983 54.52 408.45 54.8927 407.827 55.136C407.207 55.3689 406.565 55.4254 405.901 55.3054Z" fill="black"/>
<path d="M278.5 24C278.5 42 295 45 295 45" stroke="#C2C2C2" stroke-width="4" stroke-linecap="round"/>
<path d="M274 37C274 49 285 51 285 51" stroke="#C2C2C2" stroke-width="2" stroke-linecap="round"/>
<path d="M432.5 28C432.5 10 416 7 416 7" stroke="#C2C2C2" stroke-width="4" stroke-linecap="round"/>
<path d="M437 15C437 3 426 1 426 1" stroke="#C2C2C2" stroke-width="2" stroke-linecap="round"/>
<defs>
<filter id="filter0_d_576_189" x="35" y="33" width="394" height="394" filterUnits="userSpaceOnUse" color-interpolation-filters="sRGB">
<feFlood flood-opacity="0" result="BackgroundImageFix"/>
<feColorMatrix in="SourceAlpha" type="matrix" values="0 0 0 0 0 0 0 0 0 0 0 0 0 0 0 0 0 0 127 0" result="hardAlpha"/>
<feOffset dy="8"/>
<feGaussianBlur stdDeviation="17.5"/>
<feColorMatrix type="matrix" values="0 0 0 0 0 0 0 0 0 0 0 0 0 0 0 0 0 0 0.16 0"/>
<feBlend mode="normal" in2="BackgroundImageFix" result="effect1_dropShadow_576_189"/>
<feBlend mode="normal" in="SourceGraphic" in2="effect1_dropShadow_576_189" result="shape"/>
</filter>
</defs>
</svg>
