<svg width="77" height="31" viewBox="0 0 77 31" fill="none" xmlns="http://www.w3.org/2000/svg">
<g clip-path="url(#clip0_182_188)">
<path d="M26.5279 21.798L31.3886 29.9266H36.8809L29.4937 18.5304L35.6172 11.392L30.5368 10.9509L29.1364 12.3514L24.0561 18.6398L23.9462 24.2966L26.5279 21.798ZM8.8706 14.9612C5.16553 16.3343 5.08084 24.051 8.07401 26.0279C11.5616 28.3347 14.3903 25.1493 14.6902 21.6612C14.8274 19.8488 14.4697 17.2125 13.0428 15.8121C12.493 15.2998 11.8126 14.9492 11.0763 14.7989C10.3401 14.6486 9.57667 14.7045 8.87015 14.9603L8.8706 14.9612ZM19.251 11.5288H22.956L23.0107 22.8702C23.0658 29.0488 19.9351 31.3831 14.0034 29.2412C14.0034 29.2412 10.4885 30.6967 7.38724 29.5433C2.22662 27.5937 0.988953 19.3826 4.09195 14.7967C6.31631 11.5287 10.0236 10.8711 13.1266 12.0506C14.9116 12.7647 17.4103 14.4672 18.0697 18.7787C18.562 21.473 18.1162 24.2546 16.8065 26.66C16.8065 26.66 19.2505 27.3463 19.2505 24.2155L19.251 11.5288Z" fill="url(#paint0_radial_182_188)"/>
<path d="M9.69335 5.04364C6.26087 6.05813 3.73438 9.57488 3.73438 9.57488C4.75144 11.2849 5.33586 13.2173 5.43694 15.2043C12.522 8.66844 17.4925 8.80562 26.6087 11.1403C34.3528 13.1176 38.5545 11.6894 41.1904 8.83385C41.1904 8.83385 35.3959 11.8817 31.5241 10.2894C31.5241 10.2894 31.469 10.2621 31.3318 10.2069C29.1899 10.4275 25.6472 8.31028 25.6472 8.31028C21.0622 5.7851 14.2519 3.72526 9.69335 5.04364Z" fill="#A1A1A1"/>
<path d="M3.73443 9.25543C3.73443 9.25543 6.26093 5.74049 9.69341 4.75203C14.252 3.4063 21.0622 5.46614 25.6481 8.01998C25.6481 8.01998 29.1904 10.1345 31.3328 9.88752C29.0792 8.93188 26.986 7.63524 25.1268 6.04307C21.9686 3.29691 15.8447 -0.437708 8.95195 0.715714C2.05921 1.86914 -0.00195312 4.66997 -0.00195312 4.66997C1.49835 5.97181 2.76241 7.52312 3.73443 9.25543Z" fill="url(#paint1_linear_182_188)"/>
<path d="M9.69335 4.71747C6.26087 5.70637 3.73438 9.22087 3.73438 9.22087C4.75146 10.9409 5.33572 12.8821 5.43694 14.8777C12.522 8.31448 17.4925 8.45166 26.6087 10.7863C34.3528 12.7632 38.5545 11.3627 41.1904 8.50675C41.1904 8.50675 35.3959 11.5277 31.5241 9.93498C31.5241 9.93498 31.469 9.90763 31.3318 9.8525C29.1899 10.0999 25.6472 7.98545 25.6472 7.98545C21.0622 5.43028 14.2519 3.37085 9.69335 4.71747Z" fill="url(#paint2_linear_182_188)"/>
<path d="M39.6069 11.1675H40.2937V30.5H39.6069V11.1675Z" fill="#810000"/>
<path d="M43.5391 28.8455V24.1498H44.3357V26.2917H44.363L46.0109 24.1498H47.0254L45.1856 26.484L47.1625 28.8455H46.1194L44.3617 26.731H44.3343V28.8455H43.5391ZM48.2626 28.131H50.4318V28.8455H47.4647V24.1498H50.3202V24.8639H48.2608V26.0989H50.0185V26.813H48.2608L48.2626 28.131ZM52.766 28.9276C52.563 28.9379 52.3595 28.9195 52.1617 28.8729C51.9879 28.8214 51.8217 28.7472 51.6673 28.6523C51.5294 28.565 51.4085 28.4533 51.3104 28.3228C51.2205 28.1846 51.1465 28.0366 51.0899 27.8817C51.0244 27.7435 50.987 27.5935 50.9801 27.4407C50.9565 27.2678 50.9474 27.0933 50.9527 26.9189V24.1454H51.7489V26.8359C51.732 27.0971 51.7696 27.3589 51.8592 27.6048C51.922 27.7963 52.0477 27.9609 52.216 28.0719C52.3947 28.1623 52.5922 28.2095 52.7925 28.2095C52.9845 28.2132 53.174 28.1657 53.3416 28.0719C53.5179 27.963 53.6532 27.7987 53.7262 27.6048C53.8019 27.3556 53.839 27.0963 53.836 26.8359V24.1454H54.6322V26.9189C54.6376 27.0933 54.6284 27.2678 54.6049 27.4407C54.5846 27.5913 54.5478 27.7392 54.495 27.8817C54.4401 28.0426 54.3562 28.1921 54.2476 28.3228C54.1565 28.4595 54.0342 28.5725 53.8907 28.6523C53.7363 28.7472 53.5701 28.8214 53.3963 28.8729C53.1898 28.9207 52.9776 28.9388 52.766 28.9276ZM57.8464 27.6643H56.198L55.7569 28.8451H54.9057L56.6629 24.1494H57.3771L59.1348 28.8451H58.2834L57.8464 27.6643ZM57.0224 25.2754L56.6104 26.5104L56.4459 26.9224H57.5993L57.4622 26.5104C57.3246 26.1809 57.1874 25.769 57.0211 25.2754H57.0224ZM61.7181 26.3464C62 26.7513 62.2568 27.1732 62.4869 27.6096H62.5143C62.4869 27.0053 62.4592 26.566 62.4592 26.2917V24.1498H63.2831V28.8455H62.4318L61.0036 26.6758C60.7561 26.3185 60.4818 25.8797 60.2075 25.3853C60.2348 25.9618 60.2348 26.3997 60.2348 26.731V28.8455H59.4382V24.1498H60.2895L61.7181 26.3464ZM66.716 27.0605H65.7549V26.3168H67.5399V28.7057L67.2925 28.7882C67.1827 28.8155 67.0719 28.8433 66.9356 28.8707C66.8061 28.8774 66.6774 28.8957 66.551 28.9254H66.1664C65.8117 28.9332 65.4583 28.8773 65.1233 28.7604C64.8448 28.6612 64.5917 28.5019 64.3818 28.2937C64.1932 28.0738 64.044 27.823 63.9408 27.5523C63.8509 27.2398 63.8046 26.9164 63.8031 26.5912C63.8034 26.36 63.8311 26.1296 63.8856 25.9048C63.9255 25.6927 64 25.4885 64.1062 25.3006C64.2092 25.1163 64.3286 24.9416 64.463 24.7788C64.6085 24.6275 64.775 24.4979 64.9574 24.3941C65.1462 24.284 65.3494 24.2009 65.5613 24.1472C65.7948 24.0895 66.0348 24.0618 66.2754 24.0647C66.4772 24.0594 66.6791 24.0686 66.8796 24.092C67.0482 24.1232 67.2136 24.1691 67.3741 24.2292V24.9433C67.2039 24.8908 67.0292 24.8541 66.8523 24.8335C66.6802 24.8003 66.5057 24.782 66.3305 24.7788C66.1058 24.7729 65.8821 24.8102 65.6715 24.8886C65.4638 24.9647 65.2761 25.0868 65.1224 25.2459C64.9664 25.402 64.8447 25.5891 64.7651 25.795C64.675 26.0319 64.6286 26.2831 64.6279 26.5365C64.5937 26.9954 64.7417 27.4492 65.0399 27.7997C65.1944 27.9427 65.3763 28.0529 65.5745 28.1237C65.7727 28.1945 65.9832 28.2244 66.1933 28.2117C66.2856 28.2162 66.3781 28.207 66.4677 28.1843C66.5775 28.1843 66.66 28.157 66.7151 28.157L66.716 27.0605ZM70.7254 27.6647H69.0493L68.6373 28.8455H67.7587L69.5164 24.1498H70.2579L71.9878 28.8455H71.1365L70.7254 27.6647ZM69.8742 25.2759L69.4626 26.5109L69.2977 26.9229H70.4511L70.3135 26.5109C70.1514 26.1079 70.0138 25.6955 69.9015 25.2759H69.8742ZM74.5703 26.3468C74.8521 26.7518 75.1088 27.1737 75.3391 27.61H75.3664C75.3391 27.0058 75.3391 26.5664 75.3391 26.2921V24.1502H76.1353V28.8459H75.2839L73.8558 26.6763C73.5696 26.2646 73.3127 25.8334 73.087 25.3857H73.0596C73.0869 25.9622 73.087 26.4002 73.087 26.7314V28.8459H72.2908V24.1502H73.1421L74.5703 26.3468Z" fill="#616161"/>
<path d="M45.09 18.0109H45.8861V21.4981C45.8917 21.6269 45.8826 21.7559 45.8588 21.8827C45.8104 22.098 45.7062 22.2969 45.5567 22.4592C45.472 22.5324 45.38 22.5969 45.2823 22.6515C45.169 22.7043 45.0489 22.7413 44.9255 22.7613C44.808 22.7841 44.6883 22.7933 44.5687 22.7887C44.4309 22.7933 44.2931 22.7841 44.1571 22.7613C44.0469 22.734 43.9366 22.7062 43.855 22.6789V21.9374C43.949 21.9904 44.0511 22.0275 44.1571 22.0472C44.2665 22.0472 44.3777 22.0746 44.4866 22.0746C44.568 22.0851 44.6507 22.0755 44.7276 22.0467C44.8045 22.018 44.8731 21.9709 44.9277 21.9096C44.9867 21.8533 45.0322 21.7844 45.0607 21.708C45.0893 21.6316 45.1002 21.5497 45.0927 21.4685L45.09 18.0109ZM49.0994 21.5259H47.452L47.0109 22.7066H46.1596L47.9169 18.0109H48.631L50.3887 22.7066H49.5374L49.0994 21.5259ZM48.2755 19.137L47.8635 20.372L47.6985 20.784H48.852L48.7143 20.372C48.5772 20.0425 48.44 19.6306 48.2733 19.137H48.2755ZM52.8341 21.3613C52.8362 21.2548 52.8076 21.1499 52.7516 21.0592C52.6887 20.9912 52.614 20.9353 52.531 20.8942C52.4371 20.8412 52.3349 20.8041 52.2289 20.7844C52.119 20.7571 51.9819 20.7293 51.8447 20.7019C51.6802 20.6468 51.5152 20.5921 51.3776 20.5369C51.2247 20.4973 51.0834 20.4217 50.9656 20.3164C50.8432 20.2177 50.7407 20.0966 50.6635 19.9596C50.6054 19.7729 50.5776 19.5781 50.581 19.3827C50.5727 19.1578 50.61 18.9337 50.6908 18.7237C50.7684 18.5551 50.8807 18.4048 51.0203 18.2826C51.1581 18.1494 51.3285 18.0547 51.5143 18.0078C51.7199 17.9498 51.9328 17.922 52.1464 17.9254C52.5989 17.9049 53.05 17.9894 53.4643 18.1723V18.9142C53.249 18.8284 53.029 18.7548 52.8054 18.6937C52.6143 18.6643 52.4216 18.6459 52.2284 18.6386C52.0059 18.6268 51.7853 18.6843 51.5968 18.8031C51.5223 18.8548 51.4627 18.9251 51.424 19.0071C51.3853 19.0891 51.3688 19.1798 51.3763 19.2702C51.3699 19.3686 51.3992 19.466 51.4588 19.5445C51.5004 19.6277 51.5679 19.6952 51.6511 19.7368C51.7337 19.7987 51.8267 19.8452 51.9258 19.874L52.2554 19.9565C52.4414 19.9891 52.6249 20.035 52.8045 20.0937C52.9654 20.1485 53.1148 20.2321 53.2456 20.3407C53.3887 20.429 53.4958 20.5653 53.5477 20.7253C53.6339 20.9145 53.6716 21.1222 53.6575 21.3296C53.6658 21.5544 53.6285 21.7786 53.5477 21.9885C53.4587 22.1656 53.3264 22.3173 53.1631 22.4296C52.9946 22.5642 52.7973 22.6581 52.5866 22.704C52.3342 22.7601 52.0763 22.7878 51.8178 22.7865C51.5875 22.7955 51.3569 22.777 51.131 22.7314C50.9283 22.6891 50.7337 22.6146 50.5545 22.5108V21.7694C50.7504 21.8791 50.9641 21.9538 51.1857 21.9899C51.3917 22.0461 51.6043 22.0738 51.8178 22.0724C51.9464 22.077 52.0752 22.0678 52.2019 22.045C52.3156 22.0209 52.4261 21.9841 52.5315 21.9352C52.6181 21.8761 52.6929 21.8013 52.752 21.7146C52.8078 21.6053 52.8362 21.4841 52.8349 21.3613H52.8341ZM56.7596 21.5259H55.0835L54.6715 22.7066H53.8203L55.5502 18.0109H56.2917L58.022 22.7066H57.1981L56.7596 21.5259ZM55.9084 19.137C55.796 19.5566 55.6584 19.969 55.4964 20.372L55.3588 20.784H56.5122L56.3477 20.372L55.9357 19.137H55.9084Z" fill="#616161"/>
<path d="M46.8065 14.2616C46.8009 14.0109 46.7638 13.7617 46.6962 13.5202C46.6386 13.3221 46.5457 13.136 46.4219 12.971C46.3167 12.8325 46.1735 12.7276 46.0099 12.6689C45.8454 12.5965 45.6677 12.559 45.4881 12.559C45.3084 12.559 45.1307 12.5965 44.9663 12.6689C44.8026 12.7276 44.6595 12.8325 44.5543 12.971C44.4305 13.1361 44.3373 13.3221 44.2795 13.5202C44.1989 13.7588 44.1617 14.0099 44.1697 14.2616C44.1597 14.5224 44.1969 14.7829 44.2795 15.0305C44.3313 15.2226 44.4252 15.4009 44.5543 15.5523C44.6658 15.691 44.8065 15.8034 44.9663 15.8817C45.1307 15.9543 45.3084 15.9917 45.4881 15.9917C45.6678 15.9917 45.8455 15.9543 46.0099 15.8817C46.1697 15.8034 46.3104 15.691 46.4219 15.5523C46.551 15.4009 46.6447 15.2226 46.6962 15.0305C46.7657 14.78 46.8028 14.5216 46.8065 14.2616ZM47.6304 14.2616C47.629 14.5958 47.5829 14.9282 47.4932 15.2501C47.4028 15.5349 47.2524 15.7971 47.0521 16.0189C46.8768 16.2425 46.651 16.4213 46.3932 16.5407C45.809 16.7603 45.1649 16.7603 44.5808 16.5407C44.3193 16.4145 44.0859 16.2371 43.8944 16.0189C43.7137 15.7884 43.5744 15.5282 43.4825 15.2501C43.2995 14.6037 43.2995 13.9191 43.4825 13.2727C43.5863 12.9999 43.7248 12.7415 43.8944 12.5039C44.0796 12.2859 44.3152 12.1163 44.5808 12.0099C44.866 11.8831 45.1748 11.8175 45.487 11.8175C45.7992 11.8175 46.1079 11.8831 46.3932 12.0099C46.6547 12.1098 46.883 12.2809 47.0521 12.5039C47.2411 12.7337 47.3902 12.9936 47.4932 13.2727C47.5829 13.5947 47.6291 13.9274 47.6304 14.2616ZM49.7996 16.6232H48.9757V12.6416H47.5753V11.9275H51.2001V12.6416H49.7996V16.6232ZM54.5778 14.2616C54.5808 14.012 54.553 13.763 54.4954 13.5202C54.4263 13.3268 54.3342 13.1424 54.221 12.971C54.1158 12.8326 53.9727 12.7276 53.809 12.6689C53.6465 12.5907 53.4675 12.553 53.2872 12.5591C53.1067 12.55 52.927 12.5879 52.7654 12.6689C52.6018 12.7277 52.4587 12.8326 52.3535 12.971C52.2192 13.1294 52.1249 13.3177 52.0787 13.5202C51.9979 13.7587 51.9607 14.0099 51.9688 14.2616C51.9587 14.5224 51.9959 14.7829 52.0787 15.0305C52.119 15.2269 52.2143 15.4079 52.3535 15.5523C52.465 15.6909 52.6056 15.8034 52.7654 15.8817C52.927 15.9628 53.1067 16.0006 53.2872 15.9916C53.4675 15.9976 53.6465 15.96 53.809 15.8817C53.9688 15.8034 54.1095 15.6909 54.221 15.5523C54.3398 15.3941 54.4325 15.218 54.4954 15.0305C54.5547 14.7786 54.5821 14.5204 54.5778 14.2616ZM55.4291 14.2616C55.4278 14.5958 55.3817 14.9282 55.292 15.2501C55.2014 15.5348 55.051 15.797 54.8509 16.0189C54.6756 16.2425 54.4497 16.4213 54.1919 16.5407C53.9032 16.653 53.5957 16.7089 53.2859 16.7052C52.9756 16.7141 52.6669 16.6581 52.3795 16.5407C52.1181 16.4145 51.8847 16.2371 51.6932 16.0189C51.5024 15.7951 51.362 15.5329 51.2812 15.2501C51.0981 14.6037 51.0981 13.9191 51.2812 13.2727C51.3741 12.995 51.5133 12.7351 51.6932 12.5039C51.8784 12.2859 52.114 12.1164 52.3795 12.0099C52.6646 11.8825 52.9736 11.8169 53.2859 11.8176C53.5975 11.8229 53.9051 11.8883 54.1919 12.0099C54.4534 12.1099 54.6816 12.281 54.8509 12.5039C55.0397 12.7338 55.1888 12.9936 55.292 13.2727C55.3818 13.5947 55.4281 13.9273 55.4296 14.2616H55.4291ZM59.1911 13.3278C59.1977 13.6303 59.1113 13.9274 58.9436 14.1792C58.7365 14.4231 58.458 14.5959 58.1475 14.6732V14.7005L59.4659 16.6228H58.5047L57.2962 14.8104H56.7471V16.6228H55.9505V11.927H57.2684C57.4793 11.9211 57.6904 11.9303 57.9 11.9544C58.0698 11.9801 58.2358 12.0261 58.3945 12.0915C58.6306 12.1834 58.8322 12.3467 58.971 12.5587C59.1332 12.7809 59.2109 13.0534 59.1911 13.3278ZM57.159 14.0967C57.324 14.0967 57.4885 14.0693 57.6257 14.0693C57.7355 14.042 57.8462 14.0142 57.9278 13.9868C58.0673 13.9254 58.1899 13.8311 58.2851 13.7121C58.3413 13.5918 58.3696 13.4602 58.3676 13.3274C58.3696 13.2035 58.3412 13.0811 58.2851 12.9706C58.2621 12.9183 58.2281 12.8716 58.1855 12.8335C58.1429 12.7955 58.0926 12.767 58.0381 12.7501C57.9556 12.7227 57.8732 12.6949 57.7633 12.6676C57.6177 12.6429 57.4698 12.6337 57.3223 12.6402H56.7453V14.0958L57.159 14.0967ZM59.8496 16.6232V11.9275H60.6462V16.6254L59.8496 16.6232ZM63.1723 16.6232H62.3761V12.6416H60.9479V11.9275H64.6005V12.6416H63.1727L63.1723 16.6232ZM67.044 15.4424H65.368L64.9595 16.6254H64.1082L65.8381 11.9297H66.5796L68.3095 16.6254H67.4587L67.044 15.4424ZM66.1928 13.0535C66.0805 13.4731 65.9431 13.8855 65.7813 14.2886L65.6436 14.7005H66.7693L66.6321 14.2886L66.2201 13.0535H66.1928ZM70.78 15.2779C70.7821 15.1715 70.7535 15.0667 70.6975 14.9762C70.6365 14.9063 70.5613 14.8501 70.477 14.8112C70.3716 14.7623 70.2611 14.7255 70.1475 14.7014C70.0376 14.674 69.927 14.6189 69.7907 14.5915C69.6225 14.5585 69.4572 14.5125 69.2962 14.454C69.1479 14.4032 69.0087 14.3287 68.8842 14.2334C68.7627 14.1295 68.6684 13.9974 68.6095 13.8488C68.5257 13.6784 68.4878 13.4891 68.4996 13.2996C68.5 13.0729 68.5468 12.8486 68.6372 12.6407C68.7054 12.4667 68.8192 12.3143 68.9667 12.1996C69.0985 12.0726 69.2584 11.9785 69.4334 11.9248C69.638 11.8594 69.8507 11.8224 70.0655 11.815C70.3058 11.8138 70.5454 11.8415 70.7791 11.8975C70.9876 11.9369 71.1905 12.0015 71.3834 12.0897V12.8312C71.1804 12.7375 70.9689 12.6637 70.7517 12.6107C70.5518 12.5799 70.3501 12.5615 70.1479 12.5555C69.9335 12.5393 69.7201 12.5976 69.5436 12.7205C69.4691 12.7721 69.4096 12.8424 69.3708 12.9243C69.3321 13.0062 69.3156 13.0969 69.3231 13.1872C69.3211 13.2851 69.3499 13.3813 69.4056 13.462C69.4329 13.5445 69.5154 13.5991 69.5705 13.6542C69.6629 13.7163 69.7648 13.7627 69.8722 13.7914C69.9803 13.8255 70.0904 13.853 70.2017 13.8739C70.3794 13.9034 70.5539 13.9493 70.7231 14.0111C70.8803 14.0621 71.029 14.1365 71.1642 14.2317C71.3029 14.3432 71.4153 14.4838 71.4936 14.6436C71.5799 14.8328 71.6176 15.0405 71.6035 15.2479C71.6032 15.4746 71.5565 15.6989 71.4663 15.9069C71.3788 16.0768 71.2574 16.2269 71.1095 16.3479C70.9337 16.4877 70.7261 16.5819 70.5052 16.6223C70.2623 16.6799 70.0133 16.7076 69.7637 16.7048C69.5249 16.7001 69.2864 16.6819 69.0496 16.6501C68.8498 16.598 68.6563 16.5241 68.4727 16.4296V15.6881C68.6706 15.7938 68.8837 15.8682 69.1043 15.9086C69.3105 15.9631 69.5227 15.9908 69.736 15.9911C69.8731 15.9911 70.0108 15.9633 70.1206 15.9633C70.2384 15.9396 70.3503 15.893 70.4501 15.8261C70.5507 15.7761 70.6361 15.7 70.6971 15.6056C70.757 15.5069 70.7864 15.3928 70.7817 15.2774L70.78 15.2779Z" fill="#616161"/>
</g>
<defs>
<radialGradient id="paint0_radial_182_188" cx="0" cy="0" r="1" gradientUnits="userSpaceOnUse" gradientTransform="translate(16.5423 23.1734) scale(70.1164 38.7839)">
<stop stop-color="#CA0000"/>
<stop offset="0.278" stop-color="#A50000"/>
<stop offset="1" stop-color="#810000"/>
</radialGradient>
<linearGradient id="paint1_linear_182_188" x1="5.66963" y1="13.1435" x2="7.70309" y2="-4.75647" gradientUnits="userSpaceOnUse">
<stop stop-color="#CD131E"/>
<stop offset="0.42" stop-color="#F79475"/>
<stop offset="0.761" stop-color="#B41318"/>
<stop offset="0.988" stop-color="#F99578"/>
<stop offset="1" stop-color="#FEFEFE"/>
</linearGradient>
<linearGradient id="paint2_linear_182_188" x1="13.885" y1="19.3978" x2="15.3315" y2="-1.34443" gradientUnits="userSpaceOnUse">
<stop stop-color="#CACBCD"/>
<stop offset="0.012" stop-color="#CACBCD"/>
<stop offset="0.349" stop-color="white"/>
<stop offset="0.639" stop-color="#BFC0C4"/>
<stop offset="0.949" stop-color="#FEFEFE"/>
<stop offset="1" stop-color="#FEFEFE"/>
</linearGradient>
<clipPath id="clip0_182_188">
<rect width="76.1351" height="30" fill="white" transform="translate(0 0.5)"/>
</clipPath>
</defs>
</svg>
