<svg width="220" height="68" viewBox="0 0 220 68" fill="none" xmlns="http://www.w3.org/2000/svg">
<g id="Group 39520">
<g id="Vector">
<path d="M211.852 67.0261H8.14816C3.66672 67.0261 0 63.2559 0 58.6479V8.3783C0 3.77021 3.66665 0 8.14816 0H211.852C216.333 0 220 3.77021 220 8.3783V58.6478C220 63.2559 216.333 67.0261 211.852 67.0261Z" fill="black"/>
<path d="M211.852 0H8.14816C3.66665 0 0 3.77021 0 8.3783V58.6479C0 63.2559 3.66672 67.0261 8.14816 67.0261H211.852C216.333 67.0261 220 63.2559 220 58.6478V8.3783C220 3.77021 216.333 0 211.852 0ZM211.852 1.34048C215.626 1.34048 218.696 4.49814 218.696 8.3783V58.6478C218.696 62.5287 215.626 65.6863 211.852 65.6863H8.14816C4.37463 65.6863 1.30372 62.5286 1.30372 58.6479V8.3783C1.30372 4.49814 4.37455 1.34055 8.14816 1.34055L211.852 1.34048Z" fill="#A6A6A6"/>
<path d="M77.2747 17.1644C77.2747 18.5683 76.8704 19.6862 76.0607 20.5202C75.1408 21.5118 73.9421 22.008 72.4684 22.008C71.0572 22.008 69.8572 21.5054 68.8705 20.4986C67.882 19.4925 67.3887 18.245 67.3887 16.7565C67.3887 15.2674 67.882 14.0206 68.8705 13.0137C69.8572 12.0078 71.0572 11.5043 72.4684 11.5043C73.1687 11.5043 73.8391 11.6452 74.4756 11.926C75.1122 12.2075 75.6227 12.5812 76.0047 13.0491L75.1452 13.9334C74.4979 13.1381 73.6067 12.7408 72.4684 12.7408C71.4392 12.7408 70.5492 13.1127 69.7981 13.8569C69.0469 14.6018 68.6713 15.5679 68.6713 16.7565C68.6713 17.9453 69.0469 18.9112 69.7981 19.6563C70.5492 20.4004 71.4391 20.7722 72.4684 20.7722C73.5603 20.7722 74.4706 20.3984 75.1994 19.6497C75.6725 19.1619 75.946 18.4839 76.0192 17.6133H72.4683V16.4057H77.2065C77.2523 16.6683 77.2747 16.9202 77.2747 17.1644Z" fill="white"/>
<path d="M77.2747 17.1644L77.1115 17.1645C77.1102 18.5364 76.7205 19.6019 75.9451 20.4019L75.9434 20.4032L75.9427 20.4046C75.0521 21.362 73.9074 21.8386 72.4681 21.8406C71.0946 21.8386 69.9448 21.3568 68.9848 20.3802C68.0269 19.4017 67.5532 18.2071 67.5514 16.7567C67.5532 15.3056 68.0269 14.1116 68.9848 13.1338C69.9448 12.1565 71.0946 11.6741 72.4681 11.672C73.1474 11.672 73.7942 11.8083 74.411 12.0799C75.0285 12.3536 75.5162 12.7122 75.8796 13.1574L76.0047 13.0491L75.8892 12.9308L75.0298 13.8157L75.1452 13.9334L75.2705 13.8263C74.593 12.9916 73.6421 12.5709 72.4682 12.5734C71.4008 12.572 70.4618 12.9642 69.6851 13.7367C68.9009 14.5116 68.5069 15.532 68.5082 16.7567C68.5069 17.9814 68.9009 19.0017 69.6851 19.7767C70.4618 20.5492 71.4007 20.9413 72.4681 20.9399C73.5961 20.942 74.5575 20.5485 75.3143 19.7683C75.8198 19.2472 76.1063 18.5253 76.1814 17.6278L76.1966 17.4459H72.6311V16.5734H77.2063L77.2065 16.4057L77.0458 16.4352C77.0904 16.6893 77.1115 16.9308 77.1115 17.1645H77.4374C77.4374 16.9098 77.4144 16.6481 77.3667 16.3758L77.3425 16.2382H72.3053V17.781H76.019L76.0192 17.6133L75.8567 17.5991C75.7848 18.4422 75.5238 19.0771 75.0839 19.5315C74.3837 20.2488 73.5243 20.6028 72.4682 20.6048C71.4771 20.6035 70.6362 20.2526 69.9111 19.5359C69.1931 18.8218 68.8359 17.91 68.8341 16.7567C68.8359 15.6033 69.1931 14.6916 69.9111 13.9774C70.6362 13.2607 71.477 12.9099 72.4682 12.9085C73.5702 12.9112 74.4023 13.2856 75.0204 14.0416L75.135 14.1817L76.2254 13.0592L76.1292 12.9419C75.7288 12.4511 75.1953 12.0615 74.5397 11.7723C73.8827 11.4823 73.1895 11.3369 72.4682 11.3369C71.0194 11.3356 69.7692 11.8592 68.7551 12.8955C67.7373 13.9297 67.2242 15.2296 67.2256 16.7567C67.2242 18.283 67.7373 19.5837 68.7558 20.6185C69.7692 21.6541 71.0194 22.1771 72.4682 22.1757C73.9769 22.1771 75.2285 21.6618 76.1783 20.6361L76.0607 20.5202L76.1756 20.6389C77.0198 19.7715 77.4385 18.5999 77.4374 17.1645L77.2747 17.1644ZM84.7859 12.9648H80.3331V16.1526H84.3487V17.3607H80.3331V20.5485H84.7859V21.7836H79.0778V11.7297H84.7859V12.9648Z" fill="white"/>
<path d="M84.7859 12.9648L84.7861 12.797H80.1703V16.3199H84.1859V17.1924L80.1703 17.1929V20.7158H84.6231V21.6158H79.241V11.897H84.6231V12.9646L84.7859 12.9648L84.949 12.9646V11.5619H78.915V21.9509H84.949V20.3807H80.4962V17.528H84.5118V15.9848H80.4962V13.1321H84.949V12.9646L84.7859 12.9648ZM90.0843 21.7834H88.8271V12.9645H86.0961V11.7294H92.8153V12.9645H90.0843V21.7834Z" fill="white"/>
<path d="M90.0843 21.7834L90.0842 21.6158H88.9899V12.797H86.259V11.8971H92.6522V12.797H89.9213V21.7834L90.0843 21.7834L90.2472 21.7834V13.1321H92.9781V11.5619H85.9331V13.1321H88.664V21.9508H90.2472V21.7834L90.0843 21.7834ZM97.6767 21.7834V11.7294H98.9326V21.7833L97.6767 21.7834Z" fill="white"/>
<path d="M97.6767 21.7834L97.8401 21.7834V11.897H98.7701V21.6158H97.6771L97.6767 21.7834L97.6771 21.9509H99.096V11.5619H97.5142V21.9509H97.6771L97.6767 21.7834ZM104.506 21.7834H103.249V12.9645H100.518V11.7294H107.237V12.9645H104.506V21.7834Z" fill="white"/>
<path d="M104.506 21.7834L104.506 21.6159H103.412V12.7971H100.681V11.8972H107.074V12.7971H104.343V21.7835L104.506 21.7834L104.669 21.7835V13.1323H107.4V11.562H100.355V13.1322H103.086V21.951H104.669V21.7835L104.506 21.7834ZM113.715 19.6425C114.438 20.3959 115.324 20.7722 116.371 20.7722C117.418 20.7722 118.304 20.3959 119.027 19.6425C119.751 18.8892 120.114 17.9261 120.114 16.7565C120.114 15.587 119.751 14.624 119.027 13.8706C118.304 13.1172 117.418 12.7408 116.371 12.7408C115.324 12.7408 114.438 13.1172 113.715 13.8706C112.992 14.624 112.629 15.5869 112.629 16.7565C112.629 17.9261 112.992 18.8892 113.715 19.6425ZM119.956 20.4842C118.995 21.5006 117.8 22.008 116.371 22.008C114.941 22.008 113.746 21.5006 112.787 20.4842C111.825 19.4689 111.347 18.2261 111.347 16.7565C111.347 15.287 111.825 14.0439 112.787 13.0289C113.746 12.0122 114.941 11.5043 116.371 11.5043C117.792 11.5043 118.984 12.0149 119.95 13.0354C120.914 14.0558 121.397 15.2962 121.397 16.7565C121.397 18.2261 120.916 19.4689 119.956 20.4842Z" fill="white"/>
<path d="M113.715 19.6425L113.599 19.7605C114.35 20.544 115.286 20.942 116.372 20.9399C117.456 20.942 118.394 20.544 119.143 19.7605C119.899 18.9762 120.279 17.9617 120.278 16.7567C120.279 15.5517 119.899 14.5371 119.143 13.7529C118.394 12.9694 117.456 12.5714 116.372 12.5734C115.286 12.5714 114.35 12.9694 113.599 13.7529C112.845 14.5371 112.465 15.5517 112.467 16.7567C112.465 17.9616 112.845 18.9762 113.599 19.7605L113.715 19.6425L113.831 19.5248C113.14 18.8015 112.794 17.8916 112.793 16.7567C112.794 15.6218 113.14 14.7119 113.831 13.9885C114.529 13.2653 115.362 12.9105 116.372 12.9086C117.38 12.9105 118.216 13.2653 118.911 13.9885C119.604 14.7119 119.95 15.6218 119.951 16.7567C119.95 17.8916 119.604 18.8015 118.911 19.5248C118.216 20.2481 117.38 20.6028 116.372 20.6047C115.362 20.6028 114.529 20.2481 113.831 19.5248L113.715 19.6425ZM119.956 20.4842L119.84 20.3679C118.906 21.3523 117.763 21.8387 116.372 21.8406C114.979 21.8386 113.837 21.3523 112.904 20.3679C111.972 19.3801 111.511 18.1889 111.51 16.7567C111.511 15.3245 111.972 14.1332 112.904 13.1455C113.837 12.161 114.979 11.6741 116.372 11.6721C117.754 11.6741 118.894 12.163 119.834 13.1527C120.77 14.145 121.232 15.3343 121.234 16.7567C121.232 18.1889 120.771 19.3801 119.84 20.3679L119.956 20.4842L120.074 20.6008C121.062 19.5575 121.561 18.2634 121.56 16.7567C121.561 15.2585 121.06 13.967 120.067 12.9191C119.074 11.8671 117.831 11.3351 116.372 11.3369C114.905 11.3351 113.657 11.8646 112.67 12.9126C111.681 13.9566 111.183 15.2499 111.184 16.7567C111.183 18.2634 111.681 19.5575 112.67 20.6014C113.657 21.6494 114.905 22.1771 116.372 22.1757C117.838 22.1771 119.085 21.6487 120.074 20.6008L119.956 20.4842ZM123.16 21.7837V11.7296H124.69L129.442 19.5509H129.496L129.442 17.6134V11.7296H130.699V21.7835H129.387L124.416 13.5833H124.362L124.416 15.5215V21.7835L123.16 21.7837Z" fill="white"/>
<path d="M123.16 21.7837L123.323 21.7834V11.897H124.599L129.351 19.7183H129.663L129.604 17.6107V11.8971H130.536V21.6158H129.478L124.506 13.4155H124.194L124.253 15.524V21.6158H123.16L123.16 21.7837L123.16 21.9509H124.579V15.5186L124.525 13.5786L124.362 13.5833L124.362 13.7506H124.416L124.416 13.5833L124.277 13.6722L129.297 21.9509H130.862V11.5619H129.278V17.6151L129.333 19.5552L129.496 19.5509L129.496 19.3831H129.441L129.442 19.5509L129.58 19.4618L124.78 11.5619H122.997V21.9509H123.16L123.16 21.7837ZM174.267 50.2694H177.307V29.3218H174.266L174.267 50.2694ZM201.656 36.8677L198.17 45.9495H198.066L194.448 36.8676H191.172L196.597 49.5612L193.504 56.6219H196.677L205.037 36.8676L201.656 36.8677ZM184.411 47.8902C183.414 47.8902 182.025 47.3783 182.025 46.1112C182.025 44.4943 183.756 43.8745 185.249 43.8745C186.587 43.8745 187.214 44.1709 188.027 44.5756C187.791 46.5156 186.166 47.8902 184.411 47.8902ZM184.778 36.4093C182.576 36.4093 180.296 37.4068 179.353 39.6167L182.051 40.7752C182.628 39.6167 183.702 39.239 184.83 39.239C186.402 39.239 188.001 40.2097 188.027 41.9344V42.1498C187.476 41.8264 186.298 41.3414 184.856 41.3414C181.947 41.3414 178.984 42.9849 178.984 46.0574C178.984 48.8603 181.37 50.6661 184.043 50.6661C186.088 50.6661 187.214 49.7229 187.923 48.6181H188.027V50.2348H190.962V42.2034C190.962 38.485 188.263 36.4093 184.778 36.4093ZM165.985 39.4176H161.66V32.2373H165.985C168.258 32.2373 169.549 34.1727 169.549 35.8274C169.549 37.4507 168.258 39.4176 165.985 39.4176ZM165.907 29.3218H158.62V50.2694H161.66V42.333H165.907C169.277 42.333 172.59 39.8241 172.59 35.8274C172.59 31.8308 169.277 29.3218 165.907 29.3218ZM126.174 47.8941C124.074 47.8941 122.315 46.0856 122.315 43.6015C122.315 41.0914 124.074 39.2554 126.174 39.2554C128.249 39.2554 129.876 41.0914 129.876 43.6015C129.876 46.0856 128.248 47.8941 126.174 47.8941ZM129.666 38.0406H129.561C128.879 37.2039 127.565 36.448 125.912 36.448C122.446 36.448 119.27 39.5793 119.27 43.6015C119.27 47.597 122.446 50.7015 125.912 50.7015C127.565 50.7015 128.879 49.9454 129.561 49.0821H129.666V50.1078C129.666 52.8347 128.249 54.2924 125.964 54.2924C124.1 54.2924 122.945 52.9152 122.472 51.7546L119.821 52.8883C120.582 54.778 122.604 57.0998 125.964 57.0998C129.535 57.0998 132.554 54.9397 132.554 49.6758V36.88H129.666V38.0406ZM134.654 50.2694H137.7V29.3211H134.654V50.2694ZM142.189 43.3587C142.11 40.605 144.263 39.2016 145.812 39.2016C147.021 39.2016 148.044 39.8221 148.385 40.7138L142.189 43.3587ZM151.641 40.9833C151.064 39.3901 149.304 36.448 145.707 36.448C142.137 36.448 139.17 39.3365 139.17 43.5747C139.17 47.5702 142.11 50.7015 146.048 50.7015C149.226 50.7015 151.064 48.7037 151.825 47.5431L149.462 45.9231C148.675 47.1112 147.598 47.8941 146.048 47.8941C144.5 47.8941 143.397 47.165 142.688 45.7346L151.955 41.793L151.641 40.9833ZM77.8051 38.6348V41.6581H84.841C84.631 43.3587 84.0796 44.6004 83.2394 45.4644C82.2158 46.5175 80.6143 47.6781 77.805 47.6781C73.473 47.6781 70.0865 44.0878 70.0865 39.6336C70.0865 35.1794 73.473 31.5887 77.8051 31.5887C80.1419 31.5887 81.8479 32.5337 83.1082 33.7485L85.1823 31.6161C83.4235 29.888 81.0866 28.5653 77.8051 28.5653C71.8715 28.5653 66.8833 33.5326 66.8833 39.6336C66.8833 45.7346 71.8715 50.7015 77.8051 50.7015C81.0083 50.7015 83.4235 49.6222 85.3135 47.597C87.2563 45.5992 87.8604 42.7919 87.8604 40.5245C87.8604 39.8221 87.8081 39.1748 87.7025 38.6348H77.8051ZM95.8596 47.8941C93.7589 47.8941 91.9472 46.1123 91.9472 43.5747C91.9472 41.0101 93.7589 39.2554 95.8596 39.2554C97.9596 39.2554 99.7712 41.0101 99.7712 43.5747C99.7712 46.1124 97.9596 47.8941 95.8596 47.8941ZM95.8596 36.448C92.0261 36.448 88.9018 39.4444 88.9018 43.5747C88.9018 47.6781 92.0261 50.7015 95.8596 50.7015C99.6923 50.7015 102.817 47.6781 102.817 43.5747C102.817 39.4444 99.6923 36.448 95.8596 36.448ZM111.037 47.8941C108.937 47.8941 107.125 46.1123 107.125 43.5747C107.125 41.0101 108.937 39.2554 111.037 39.2554C113.137 39.2554 114.948 41.0101 114.948 43.5747C114.948 46.1124 113.137 47.8941 111.037 47.8941ZM111.037 36.448C107.203 36.448 104.08 39.4444 104.08 43.5747C104.08 47.6781 107.203 50.7015 111.037 50.7015C114.87 50.7015 117.994 47.6781 117.994 43.5747C117.994 39.4444 114.87 36.448 111.037 36.448Z" fill="white"/>
<path d="M17.1248 12.754C16.5779 13.2614 16.2515 14.1076 16.2515 15.2309V14.977V52.0442V51.8001C16.2515 52.8375 16.5315 53.6386 17.0057 54.1545L17.1267 54.2737C17.5105 54.6298 18.0027 54.8194 18.5667 54.8188C19.1179 54.8188 19.7379 54.6381 20.3924 54.2566L44.0468 40.437L52.1719 35.6896C53.2038 35.0868 53.7831 34.3092 53.88 33.5171V33.5138C53.7831 32.72 53.2038 31.9429 52.172 31.3401L44.0461 26.5932L20.3924 12.7736C19.7366 12.3914 19.1161 12.2101 18.5635 12.2101C18.0001 12.2101 17.5085 12.3986 17.1248 12.754Z" fill="#00C1FF"/>
<path d="M17.1267 54.2737L17.0057 54.1545C16.5315 53.6386 16.2515 52.8375 16.2515 51.8001V52.0442V14.986V15.2309C16.2515 14.1076 16.5779 13.2614 17.1248 12.754L37.3156 33.5143L17.1267 54.2737Z" fill="url(#paint0_linear_182_272)"/>
<path d="M44.0468 40.437L37.3156 33.5143L44.0461 26.5932L52.172 31.3401C53.2038 31.9429 53.7831 32.72 53.88 33.5138V33.5171C53.7831 34.3092 53.2038 35.0868 52.1719 35.6896L44.0468 40.437Z" fill="url(#paint1_linear_182_272)"/>
<path d="M18.5667 54.8188C18.0027 54.8194 17.5105 54.6298 17.1267 54.2737L37.3156 33.5143L44.0468 40.437L20.3924 54.2566C19.7379 54.6381 19.1179 54.8188 18.5667 54.8188Z" fill="url(#paint2_linear_182_272)"/>
<path d="M37.3156 33.5143L17.1248 12.754C17.5085 12.3986 18.0001 12.2101 18.5635 12.2101C19.1161 12.2101 19.7366 12.3914 20.3924 12.7736L44.0461 26.5932L37.3156 33.5143Z" fill="url(#paint3_linear_182_272)"/>
<path d="M18.5674 55.064C18.0035 55.064 17.5106 54.8749 17.1268 54.5188C17.1252 54.5172 17.1229 54.5163 17.1211 54.5149L17.0161 54.4095C17.0128 54.4062 17.0097 54.4023 17.0059 54.3985L17.1267 54.2737C17.5105 54.6298 18.0027 54.8194 18.5667 54.8188C19.1179 54.8188 19.7379 54.6381 20.3924 54.2566L44.0468 40.437L44.1985 40.5927L20.3924 54.5011C19.796 54.8487 19.2288 55.03 18.7163 55.0602C18.6667 55.0627 18.6171 55.064 18.5674 55.064Z" fill="url(#paint4_linear_182_272)"/>
<path d="M17.0059 54.3985C16.5317 53.8826 16.2515 53.0823 16.2515 52.0442V51.8001C16.2515 52.8375 16.5315 53.6386 17.0057 54.1545L17.1267 54.2737L17.0059 54.3985Z" fill="url(#paint5_linear_182_272)"/>
<path d="M44.1985 40.5927L44.0468 40.437L52.1719 35.6896C53.2038 35.0868 53.7831 34.3092 53.88 33.5171C53.88 33.8078 53.817 34.0982 53.6917 34.3811C53.4389 34.9512 52.9323 35.4898 52.1721 35.9342L44.1985 40.5927Z" fill="url(#paint6_linear_182_272)"/>
<path d="M53.88 33.5138C53.7831 32.72 53.2038 31.9429 52.172 31.3401L44.0461 26.5932L44.1979 26.4374L52.1722 31.096C53.3099 31.761 53.8793 32.6373 53.88 33.5138Z" fill="url(#paint7_linear_182_272)"/>
<path d="M16.2515 15.2309V14.9748C16.2515 14.8825 16.2539 14.7922 16.2585 14.7045V14.7005C16.2585 14.6993 16.2585 14.698 16.2589 14.6967V14.6868C16.308 13.7933 16.5779 13.0963 17.0057 12.6309L17.1248 12.754C16.5779 13.2614 16.2515 14.1076 16.2515 15.2309Z" fill="url(#paint8_linear_182_272)"/>
<path d="M44.0461 26.5932L20.3924 12.7736C19.7366 12.3914 19.1161 12.2101 18.5635 12.2101C18.0001 12.2101 17.5085 12.3986 17.1248 12.754L17.0057 12.6309C17.0429 12.5904 17.0817 12.5514 17.1218 12.5139C17.123 12.5125 17.125 12.5112 17.1262 12.5099C17.507 12.1571 17.9933 11.9686 18.5516 11.9652H18.5636C19.1162 11.9652 19.7368 12.1466 20.3925 12.5289L44.1979 26.4374L44.0461 26.5932Z" fill="url(#paint9_linear_182_272)"/>
</g>
</g>
<defs>
<linearGradient id="paint0_linear_182_272" x1="134.764" y1="64.055" x2="125.852" y2="7.79526" gradientUnits="userSpaceOnUse">
<stop stop-color="#00A0FF"/>
<stop offset="0.00657" stop-color="#00A1FF"/>
<stop offset="0.2601" stop-color="#00BEFF"/>
<stop offset="0.5122" stop-color="#00D2FF"/>
<stop offset="0.7604" stop-color="#00DFFF"/>
<stop offset="1" stop-color="#00E3FF"/>
</linearGradient>
<linearGradient id="paint1_linear_182_272" x1="236.698" y1="34.095" x2="-287.021" y2="34.095" gradientUnits="userSpaceOnUse">
<stop stop-color="#FFE000"/>
<stop offset="0.4087" stop-color="#FFBD00"/>
<stop offset="0.7754" stop-color="#FFA500"/>
<stop offset="1" stop-color="#FF9C00"/>
</linearGradient>
<linearGradient id="paint2_linear_182_272" x1="190.795" y1="46.3196" x2="125.419" y2="-118.16" gradientUnits="userSpaceOnUse">
<stop stop-color="#FF3A44"/>
<stop offset="1" stop-color="#C31162"/>
</linearGradient>
<linearGradient id="paint3_linear_182_272" x1="-42.5247" y1="74.998" x2="-13.42" y2="1.66417" gradientUnits="userSpaceOnUse">
<stop stop-color="#32A071"/>
<stop offset="0.0685" stop-color="#2DA771"/>
<stop offset="0.4762" stop-color="#15CF74"/>
<stop offset="0.8009" stop-color="#06E775"/>
<stop offset="1" stop-color="#00F076"/>
</linearGradient>
<linearGradient id="paint4_linear_182_272" x1="189.743" y1="46.5849" x2="93.2843" y2="-119.58" gradientUnits="userSpaceOnUse">
<stop stop-color="#CC2E36"/>
<stop offset="1" stop-color="#9C0E4E"/>
</linearGradient>
<linearGradient id="paint5_linear_182_272" x1="676.092" y1="1026.69" x2="591.647" y2="223.767" gradientUnits="userSpaceOnUse">
<stop stop-color="#008DE0"/>
<stop offset="0.00657" stop-color="#008DE0"/>
<stop offset="0.2601" stop-color="#00A7E0"/>
<stop offset="0.5122" stop-color="#00B8E0"/>
<stop offset="0.7604" stop-color="#00C4E0"/>
<stop offset="1" stop-color="#00C7E0"/>
</linearGradient>
<linearGradient id="paint6_linear_182_272" x1="248.13" y1="67.0406" x2="-634.096" y2="67.0406" gradientUnits="userSpaceOnUse">
<stop stop-color="#E0C500"/>
<stop offset="0.4087" stop-color="#E0A600"/>
<stop offset="0.7754" stop-color="#E09100"/>
<stop offset="1" stop-color="#E08900"/>
</linearGradient>
<linearGradient id="paint7_linear_182_272" x1="248.127" y1="-0.015643" x2="-634.036" y2="-0.015643" gradientUnits="userSpaceOnUse">
<stop stop-color="#FFE840"/>
<stop offset="0.4087" stop-color="#FFCE40"/>
<stop offset="0.7754" stop-color="#FFBC40"/>
<stop offset="1" stop-color="#FFB540"/>
</linearGradient>
<linearGradient id="paint8_linear_182_272" x1="673.377" y1="15.6731" x2="588.635" y2="-757.247" gradientUnits="userSpaceOnUse">
<stop stop-color="#40B8FF"/>
<stop offset="0.00657" stop-color="#40B9FF"/>
<stop offset="0.2601" stop-color="#40CEFF"/>
<stop offset="0.5122" stop-color="#40DDFF"/>
<stop offset="0.7604" stop-color="#40E7FF"/>
<stop offset="1" stop-color="#40EAFF"/>
</linearGradient>
<linearGradient id="paint9_linear_182_272" x1="11.8917" y1="14.0666" x2="22.7132" y2="24.6251" gradientUnits="userSpaceOnUse">
<stop stop-color="#65B895"/>
<stop offset="0.0685" stop-color="#62BD95"/>
<stop offset="0.4762" stop-color="#50DB97"/>
<stop offset="0.8009" stop-color="#44ED98"/>
<stop offset="1" stop-color="#40F498"/>
</linearGradient>
</defs>
</svg>
