<svg width="41" height="40" viewBox="0 0 41 40" fill="none" xmlns="http://www.w3.org/2000/svg">
<path d="M16.7053 9.17858C16.1847 3.18639 9.93709 0.2462 9.67269 0.126193C9.42552 0.0099321 9.14852 -0.0272131 8.87948 0.0198226C1.66697 1.21717 0.582094 5.41743 0.538481 5.59199C0.479144 5.83524 0.488581 6.09021 0.565739 6.3284C9.16841 33.0355 27.047 37.9858 32.9239 39.6141C33.3764 39.7396 33.7498 39.8405 34.0333 39.9332C34.3568 40.039 34.7083 40.0185 35.0173 39.876C35.1972 39.7941 39.444 37.7922 40.4826 31.2627C40.5286 30.9776 40.4828 30.6853 40.3517 30.4281C40.2591 30.2481 38.0375 26.0178 31.8772 24.5232C31.6682 24.4697 31.4493 24.4678 31.2395 24.5177C31.0296 24.5676 30.835 24.6677 30.6724 24.8096C28.7289 26.4706 26.0439 28.2407 24.8855 28.4234C17.1196 24.6241 12.7828 17.3336 12.6193 15.9508C12.5239 15.1735 14.3038 12.4433 16.3509 10.2232C16.4796 10.0835 16.5776 9.91833 16.6386 9.73842C16.6997 9.55851 16.7224 9.3678 16.7053 9.17858Z" fill="#8EC352"/>
</svg>
